<svg width="341" height="40" viewBox="0 0 341 40" fill="none" xmlns="http://www.w3.org/2000/svg">
<rect x="7.5" y="0.5" width="333" height="35" rx="9.5" fill="#FAFAFA"/>
<rect x="7.5" y="0.5" width="333" height="35" rx="9.5" stroke="#F2F4F5"/>
<path d="M28.074 22.6569C31.3569 22.6569 34.0182 19.9956 34.0182 16.7127C34.0182 13.4298 31.3569 10.7686 28.074 10.7686C24.7912 10.7686 22.1299 13.4298 22.1299 16.7127C22.1299 19.9956 24.7912 22.6569 28.074 22.6569Z" stroke="#660B68" stroke-width="1.08333"/>
<path d="M35.7474 25.1944C35.866 25.3103 36.0257 25.3744 36.1916 25.3725C36.3574 25.3706 36.5156 25.303 36.6316 25.1844C36.7475 25.0658 36.8116 24.9061 36.8097 24.7403C36.8078 24.5744 36.7401 24.4162 36.6216 24.3002L35.7474 25.1944ZM33.2674 21.0219C33.1488 20.906 32.9891 20.8419 32.8232 20.8438C32.6574 20.8457 32.4992 20.9133 32.3832 21.0319C32.2673 21.1505 32.2032 21.3102 32.2051 21.4761C32.207 21.6419 32.2747 21.8002 32.3932 21.9161L33.2674 21.0219ZM36.6216 24.3002L33.2674 21.0219L32.3932 21.9161L35.7474 25.1944L36.6216 24.3002Z" fill="#660B68"/>
</svg>
