<svg width="25" height="24" viewBox="0 0 25 24" fill="none" xmlns="http://www.w3.org/2000/svg">
<g clip-path="url(#clip0_2_2141)">
<path d="M5 18H4.25C3.45435 18 2.69129 17.6839 2.12868 17.1213C1.56607 16.5587 1.25 15.7956 1.25 15V12C1.25 11.2044 1.56607 10.4413 2.12868 9.87868C2.69129 9.31607 3.45435 9 4.25 9H5C5.19891 9 5.38968 9.07902 5.53033 9.21967C5.67098 9.36032 5.75 9.55109 5.75 9.75V17.25C5.75 17.4489 5.67098 17.6397 5.53033 17.7803C5.38968 17.921 5.19891 18 5 18Z" stroke="black" stroke-width="1.5" stroke-linecap="round" stroke-linejoin="round"/>
<path d="M20.75 18H20C19.8011 18 19.6103 17.921 19.4697 17.7803C19.329 17.6397 19.25 17.4489 19.25 17.25V9.75C19.25 9.55109 19.329 9.36032 19.4697 9.21967C19.6103 9.07902 19.8011 9 20 9H20.75C21.5456 9 22.3087 9.31607 22.8713 9.87868C23.4339 10.4413 23.75 11.2044 23.75 12V15C23.75 15.7956 23.4339 16.5587 22.8713 17.1213C22.3087 17.6839 21.5456 18 20.75 18Z" stroke="black" stroke-width="1.5" stroke-linecap="round" stroke-linejoin="round"/>
<path d="M4.25 9C4.25 6.81196 5.11919 4.71354 6.66637 3.16637C8.21354 1.61919 10.312 0.75 12.5 0.75C14.688 0.75 16.7865 1.61919 18.3336 3.16637C19.8808 4.71354 20.75 6.81196 20.75 9" stroke="black" stroke-width="1.5" stroke-linecap="round" stroke-linejoin="round"/>
<path d="M15.5 21.75H17.75C18.5456 21.75 19.3087 21.4339 19.8713 20.8713C20.4339 20.3087 20.75 19.5456 20.75 18.75V18" stroke="black" stroke-width="1.5" stroke-linecap="round" stroke-linejoin="round"/>
<path d="M14 23.25H12.5C12.1022 23.25 11.7206 23.092 11.4393 22.8107C11.158 22.5294 11 22.1478 11 21.75C11 21.3522 11.158 20.9706 11.4393 20.6893C11.7206 20.408 12.1022 20.25 12.5 20.25H14C14.3978 20.25 14.7794 20.408 15.0607 20.6893C15.342 20.9706 15.5 21.3522 15.5 21.75C15.5 22.1478 15.342 22.5294 15.0607 22.8107C14.7794 23.092 14.3978 23.25 14 23.25Z" stroke="black" stroke-width="1.5" stroke-linecap="round" stroke-linejoin="round"/>
<path d="M9.5 8.25004C9.50011 7.70007 9.65139 7.16071 9.93732 6.69091C10.2232 6.22111 10.6328 5.83895 11.1213 5.58619C11.6097 5.33344 12.1583 5.21982 12.7069 5.25776C13.2556 5.29569 13.7833 5.48372 14.2323 5.80129C14.6813 6.11886 15.0344 6.55375 15.2529 7.05843C15.4715 7.56311 15.5471 8.11816 15.4715 8.66291C15.3959 9.20766 15.1721 9.72116 14.8244 10.1473C14.4767 10.5734 14.0185 10.8957 13.5 11.079C13.2074 11.1825 12.9541 11.3741 12.775 11.6275C12.5959 11.881 12.4998 12.1837 12.5 12.494V12.75" stroke="black" stroke-width="1.5" stroke-linecap="round" stroke-linejoin="round"/>
<path d="M12.5 16.5C12.2929 16.5 12.125 16.3321 12.125 16.125C12.125 15.9179 12.2929 15.75 12.5 15.75" stroke="black" stroke-width="1.5"/>
<path d="M12.5 16.5C12.7071 16.5 12.875 16.3321 12.875 16.125C12.875 15.9179 12.7071 15.75 12.5 15.75" stroke="black" stroke-width="1.5"/>
</g>
<defs>
<clipPath id="clip0_2_2141">
<rect width="24" height="24" fill="white" transform="translate(0.5)"/>
</clipPath>
</defs>
</svg>
