<svg width="50" height="51" viewBox="0 0 50 51" fill="none" xmlns="http://www.w3.org/2000/svg">
<g clip-path="url(#clip0_2_1276)">
<g clip-path="url(#clip1_2_1276)">
<path fill-rule="evenodd" clip-rule="evenodd" d="M25 17.9201H9.00001C7.34315 17.9201 6 19.2632 6 20.9201V26.9201C6 28.577 7.34315 29.9201 9.00001 29.9201H24.9999C24.4578 29.3482 23.9937 28.6729 23.6294 27.9201H9.00001C8.44773 27.9201 8.00001 27.4724 8.00001 26.9201V20.9201C8.00001 20.3678 8.44773 19.9201 9.00001 19.9201H23.6294C23.9938 19.1673 24.4578 18.492 25 17.9201Z" fill="black"/>
<path fill-rule="evenodd" clip-rule="evenodd" d="M33 29.9201C36.3137 29.9201 39 27.2338 39 23.9201C39 20.6064 36.3137 17.9201 33 17.9201C29.6863 17.9201 27 20.6064 27 23.9201C27 27.2338 29.6863 29.9201 33 29.9201ZM33 31.9201C37.4183 31.9201 41 28.3384 41 23.9201C41 19.5018 37.4183 15.9201 33 15.9201C28.5817 15.9201 25 19.5018 25 23.9201C25 28.3384 28.5817 31.9201 33 31.9201Z" fill="black"/>
<path fill-rule="evenodd" clip-rule="evenodd" d="M37.1351 28.6915C37.4665 28.2497 38.0933 28.1602 38.5351 28.4915L44.1732 32.7201C44.615 33.0515 44.7046 33.6783 44.3732 34.1201C44.0418 34.5619 43.415 34.6515 42.9732 34.3201L37.3351 30.0915C36.8933 29.7602 36.8037 29.1334 37.1351 28.6915Z" fill="black"/>
<path d="M13 23.9201C13 24.4724 12.5523 24.9201 12 24.9201C11.4477 24.9201 11 24.4724 11 23.9201C11 23.3678 11.4477 22.9201 12 22.9201C12.5523 22.9201 13 23.3678 13 23.9201Z" fill="black"/>
<path d="M17 23.9201C17 24.4724 16.5523 24.9201 16 24.9201C15.4477 24.9201 15 24.4724 15 23.9201C15 23.3678 15.4477 22.9201 16 22.9201C16.5523 22.9201 17 23.3678 17 23.9201Z" fill="black"/>
<path d="M21 23.9201C21 24.4724 20.5523 24.9201 20 24.9201C19.4477 24.9201 19 24.4724 19 23.9201C19 23.3678 19.4477 22.9201 20 22.9201C20.5523 22.9201 21 23.3678 21 23.9201Z" fill="black"/>
</g>
</g>
<defs>
<clipPath id="clip0_2_1276">
<rect width="50" height="50" fill="white" transform="translate(0 0.920105)"/>
</clipPath>
<clipPath id="clip1_2_1276">
<rect width="50" height="50" fill="white" transform="translate(0 0.920105)"/>
</clipPath>
</defs>
</svg>
