<svg width="35" height="35" viewBox="0 0 35 35" fill="none" xmlns="http://www.w3.org/2000/svg">
<g clip-path="url(#clip0_0_2533)">
<g clip-path="url(#clip1_0_2533)">
<g clip-path="url(#clip2_0_2533)">
<path fill-rule="evenodd" clip-rule="evenodd" d="M22.675 7.6001C20.8301 7.6001 19.0976 9.28872 17.9541 10.6129C17.8059 10.7845 17.6531 10.9667 17.5 11.158C17.3468 10.9667 17.194 10.7845 17.0459 10.6129C15.9024 9.28872 14.1698 7.6001 12.325 7.6001C10.721 7.6001 9.28721 8.21873 8.25551 9.2361C7.22685 10.2505 6.59998 11.6598 6.59998 13.2373C6.59998 17.401 10.5063 20.7451 16.2324 25.8654L17.5015 27.0047L18.8137 25.8354C24.5076 20.733 28.4 17.3935 28.4 13.2373C28.4 11.6598 27.7731 10.2505 26.7444 9.2361C25.7127 8.21873 24.279 7.6001 22.675 7.6001Z" stroke="#0A0A0A" stroke-width="1.2"/>
</g>
</g>
</g>
<defs>
<clipPath id="clip0_0_2533">
<rect width="35" height="35" fill="white"/>
</clipPath>
<clipPath id="clip1_0_2533">
<rect width="35" height="35" fill="white"/>
</clipPath>
<clipPath id="clip2_0_2533">
<rect width="35" height="35" fill="white"/>
</clipPath>
</defs>
</svg>
