<svg width="26" height="24" viewBox="0 0 26 24" fill="none" xmlns="http://www.w3.org/2000/svg">
<g clip-path="url(#clip0_2_1358)">
<g clip-path="url(#clip1_2_1358)">
<path d="M25 0H1V24H25V0Z" fill="#EBECF1"/>
<path d="M9 12.9946C9 12.6466 9.23024 12.3645 9.51421 12.3645C9.79821 12.3645 10.0284 12.6466 10.0284 12.9946C10.0284 14.2907 10.886 15.3602 11.9438 15.3602C13.0016 15.3602 12.412 15.3602 12.412 15.3602C13.4698 15.3602 14.3274 14.2907 14.3274 12.9946C14.3274 12.6466 14.5576 12.3645 14.8416 12.3645C15.1256 12.3645 15.3558 12.6466 15.3558 12.9946C15.3558 14.9867 14.0378 16.6017 12.412 16.6017H11.9438C10.318 16.6017 9 14.9867 9 12.9946Z" fill="#8F9ABE"/>
<path d="M15.4507 8.8267C15.793 9.35374 16.4976 9.50382 17.0256 9.16251C17.5527 8.82027 17.7028 8.11569 17.3605 7.58772C17.0183 7.05975 16.3137 6.90967 15.7856 7.25191C15.2585 7.59412 15.1084 8.29963 15.4507 8.8267Z" fill="#8F9ABE"/>
<path d="M6.57275 8.20689C6.57275 8.83566 7.08251 9.34542 7.71128 9.34542C8.34002 9.34542 8.84981 8.83566 8.84981 8.20689C8.84981 7.57812 8.34002 7.06836 7.71128 7.06836C7.08251 7.06836 6.57275 7.57812 6.57275 8.20689Z" fill="#8F9ABE"/>
</g>
</g>
<defs>
<clipPath id="clip0_2_1358">
<rect width="26" height="24" rx="12" fill="white"/>
</clipPath>
<clipPath id="clip1_2_1358">
<rect width="24" height="24" fill="white" transform="translate(1)"/>
</clipPath>
</defs>
</svg>
