<svg width="24" height="25" viewBox="0 0 24 25" fill="none" xmlns="http://www.w3.org/2000/svg">
<path d="M16.6204 3.49987H16.6152C15.742 3.49889 14.8788 3.68516 14.0838 4.04613C13.2887 4.4071 12.5804 4.93437 12.0064 5.59237C11.4223 4.92637 10.7011 4.39445 9.89236 4.03303C9.08357 3.67161 8.20623 3.48923 7.32041 3.49837C6.59012 3.49842 5.86709 3.64339 5.19322 3.92486C4.51935 4.20634 3.90803 4.61873 3.39468 5.13815C2.88133 5.65757 2.47615 6.27369 2.20261 6.95082C1.92908 7.62795 1.79262 8.35263 1.80116 9.08287C1.80116 12.9199 5.28116 16.0399 10.5012 20.7799L12.0012 22.0999L13.5012 20.7799C18.7212 16.0399 22.2012 12.9199 22.2012 9.07987V9.01987C22.2012 7.55588 21.6196 6.15185 20.5844 5.11665C19.5492 4.08144 18.1452 3.49987 16.6812 3.49987H16.6174H16.6204Z" fill="#212529" fill-opacity="0.4" stroke="#F2F4F6" stroke-width="1.5"/>
</svg>
