<svg width="40" height="44" viewBox="0 0 40 44" fill="none" xmlns="http://www.w3.org/2000/svg">
<path d="M6.41085 16.1182L20 4.49194L33.5892 16.1182C33.6907 16.205 33.75 16.3386 33.75 16.48V35.75C33.75 36.0032 33.5635 36.2083 33.3333 36.2083H24.1667C23.9365 36.2083 23.75 36.0032 23.75 35.75V29.7917C23.75 28.7791 23.0038 27.9583 22.0833 27.9583H17.9167C16.9962 27.9583 16.25 28.7791 16.25 29.7917V35.75C16.25 36.0032 16.0634 36.2083 15.8333 36.2083H6.66667C6.43655 36.2083 6.25 36.0032 6.25 35.75V16.48C6.25 16.3386 6.30937 16.205 6.41085 16.1182Z" stroke="#111111" stroke-width="1.5" stroke-linejoin="round"/>
</svg>
