<svg width="14" height="14" viewBox="0 0 14 14" fill="none" xmlns="http://www.w3.org/2000/svg">
<g clip-path="url(#clip0_2_2114)">
<path fill-rule="evenodd" clip-rule="evenodd" d="M0 11C0 11.828 0.67 12.5 1.498 12.5H12.502C13.33 12.5 14 11.828 14 11V8.966C14.0001 8.85613 13.964 8.74929 13.8973 8.66199C13.8306 8.57469 13.737 8.51178 13.631 8.483C13.3056 8.39438 13.0183 8.20118 12.8135 7.93319C12.6088 7.66519 12.4978 7.33728 12.4978 7C12.4978 6.66272 12.6088 6.33481 12.8135 6.06681C13.0183 5.79882 13.3056 5.60562 13.631 5.517C13.737 5.48822 13.8306 5.42531 13.8973 5.33801C13.964 5.25071 14.0001 5.14386 14 5.034V3C14 2.172 13.33 1.5 12.502 1.5H1.498C0.67 1.5 0 2.172 0 3V5.03C0.000132956 5.14039 0.0367946 5.24763 0.104267 5.335C0.17174 5.42238 0.266229 5.48496 0.373 5.513C0.701875 5.599 0.992962 5.7916 1.20071 6.06066C1.40846 6.32972 1.52116 6.66007 1.52116 7C1.52116 7.33993 1.40846 7.67028 1.20071 7.93934C0.992962 8.2084 0.701875 8.401 0.373 8.487C0.266229 8.51504 0.17174 8.57762 0.104267 8.665C0.0367946 8.75237 0.000132956 8.85961 0 8.97L0 11ZM4.962 9.942L9.962 4.942C10.0736 4.82377 10.1347 4.66671 10.1324 4.50416C10.1301 4.3416 10.0646 4.18634 9.94967 4.07132C9.83478 3.95629 9.67959 3.89057 9.51704 3.88808C9.35448 3.88559 9.19736 3.94655 9.079 4.058L4.079 9.058C4.01812 9.11533 3.96936 9.1843 3.93562 9.26081C3.90188 9.33733 3.88383 9.41983 3.88255 9.50345C3.88127 9.58706 3.89679 9.67009 3.92818 9.7476C3.95956 9.82511 4.00619 9.89553 4.06529 9.9547C4.12439 10.0139 4.19476 10.0606 4.27223 10.092C4.34971 10.1235 4.43271 10.1391 4.51633 10.1379C4.59995 10.1368 4.68247 10.1188 4.75903 10.0852C4.83558 10.0515 4.9046 10.0028 4.962 9.942ZM4.021 5C4.021 4.73478 4.12636 4.48043 4.31389 4.29289C4.50143 4.10536 4.75578 4 5.021 4C5.28622 4 5.54057 4.10536 5.72811 4.29289C5.91564 4.48043 6.021 4.73478 6.021 5C6.021 5.26522 5.91564 5.51957 5.72811 5.70711C5.54057 5.89464 5.28622 6 5.021 6C4.75578 6 4.50143 5.89464 4.31389 5.70711C4.12636 5.51957 4.021 5.26522 4.021 5ZM8.021 9C8.021 8.73478 8.12636 8.48043 8.31389 8.29289C8.50143 8.10536 8.75578 8 9.021 8C9.28622 8 9.54057 8.10536 9.72811 8.29289C9.91564 8.48043 10.021 8.73478 10.021 9C10.021 9.26522 9.91564 9.51957 9.72811 9.70711C9.54057 9.89464 9.28622 10 9.021 10C8.75578 10 8.50143 9.89464 8.31389 9.70711C8.12636 9.51957 8.021 9.26522 8.021 9Z" fill="black"/>
</g>
<defs>
<clipPath id="clip0_2_2114">
<rect width="14" height="14" fill="white"/>
</clipPath>
</defs>
</svg>
