<svg width="14" height="28" viewBox="0 0 14 28" fill="none" xmlns="http://www.w3.org/2000/svg">
<g clip-path="url(#clip0_4_2545)">
<path d="M2.19941 14.125L9.69641 6.67796C9.77547 6.60158 9.83834 6.51007 9.88128 6.40888C9.92422 6.30769 9.94635 6.19889 9.94635 6.08896C9.94635 5.97904 9.92422 5.87024 9.88128 5.76904C9.83834 5.66785 9.77547 5.57634 9.69641 5.49996C9.53621 5.34287 9.32079 5.25488 9.09641 5.25488C8.87204 5.25488 8.65662 5.34287 8.49642 5.49996L0.396415 13.539C0.31736 13.6153 0.25449 13.7069 0.211552 13.808C0.168613 13.9092 0.146484 14.018 0.146484 14.128C0.146484 14.2379 0.168613 14.3467 0.211552 14.4479C0.25449 14.5491 0.31736 14.6406 0.396415 14.717L8.50241 22.677C8.66163 22.8339 8.87583 22.9226 9.09941 22.924C9.31341 22.924 9.53242 22.844 9.69641 22.678C9.77547 22.6016 9.83834 22.5101 9.88128 22.4089C9.92422 22.3077 9.94635 22.1989 9.94635 22.089C9.94635 21.979 9.92422 21.8702 9.88128 21.769C9.83834 21.6679 9.77547 21.5763 9.69641 21.5L2.19941 14.125Z" fill="#222222"/>
</g>
<defs>
<clipPath id="clip0_4_2545">
<rect width="14" height="28" fill="white"/>
</clipPath>
</defs>
</svg>
