<svg width="50" height="51" viewBox="0 0 50 51" fill="none" xmlns="http://www.w3.org/2000/svg">
<g clip-path="url(#clip0_2_1312)">
<g clip-path="url(#clip1_2_1312)">
<path fill-rule="evenodd" clip-rule="evenodd" d="M32.4048 24.9121C32.9628 23.6533 33.2218 22.6257 33.2218 21.8612C33.2218 16.793 29.4147 12.9201 24.9996 12.9201C20.5844 12.9201 16.7773 16.793 16.7773 21.8612C16.7773 22.6257 17.0363 23.6533 17.5944 24.9121C18.1419 26.1472 18.9182 27.4747 19.8101 28.8011C21.5512 31.3906 23.6294 33.8255 24.9996 35.3433C26.3697 33.8255 28.448 31.3906 30.189 28.8011C31.0809 27.4747 31.8573 26.1472 32.4048 24.9121ZM26.3818 36.7965C29.1737 33.717 35.2218 26.5092 35.2218 21.8612C35.2218 15.8186 30.6451 10.9201 24.9996 10.9201C19.354 10.9201 14.7773 15.8186 14.7773 21.8612C14.7773 26.5092 20.8254 33.717 23.6173 36.7965C24.3667 37.6231 25.6325 37.6231 26.3818 36.7965Z" fill="black"/>
<path fill-rule="evenodd" clip-rule="evenodd" d="M16.226 33.933C15.1384 34.6579 15 35.2076 15 35.4003C15 35.6706 15.3238 36.5541 17.3505 37.4864C19.205 38.3394 21.9075 38.9201 25 38.9201C28.0925 38.9201 30.795 38.3394 32.6495 37.4864C34.6762 36.5541 35 35.6706 35 35.4003C35 35.2076 34.8616 34.6579 33.7738 33.9329C32.9337 33.3731 31.7259 32.8584 30.2219 32.4839C28.9698 33.9897 27.8442 35.2188 27.151 35.9542C25.9811 37.1954 24.0181 37.1954 22.8482 35.9542C22.155 35.2188 21.0294 33.9898 19.7774 32.484C18.2737 32.8586 17.066 33.3732 16.226 33.933ZM29.4463 30.2719C33.8725 31.0845 37 33.0744 37 35.4003C37 38.4488 31.6274 40.9201 25 40.9201C18.3726 40.9201 13 38.4488 13 35.4003C13 33.0746 16.1272 31.0848 20.553 30.272C22.0657 32.1588 23.4914 33.7207 24.3036 34.5824C24.684 34.986 25.3152 34.986 25.6956 34.5824C26.5078 33.7207 27.9336 32.1587 29.4463 30.2719Z" fill="black"/>
<path fill-rule="evenodd" clip-rule="evenodd" d="M25 23.0378C26.1185 23.0378 27 22.1416 27 21.0672C27 19.9928 26.1185 19.0966 25 19.0966C23.8815 19.0966 23 19.9928 23 21.0672C23 22.1416 23.8815 23.0378 25 23.0378ZM25 25.0378C27.2091 25.0378 29 23.2601 29 21.0672C29 18.8743 27.2091 17.0966 25 17.0966C22.7909 17.0966 21 18.8743 21 21.0672C21 23.2601 22.7909 25.0378 25 25.0378Z" fill="black"/>
</g>
</g>
<defs>
<clipPath id="clip0_2_1312">
<rect width="50" height="50" fill="white" transform="translate(0 0.920105)"/>
</clipPath>
<clipPath id="clip1_2_1312">
<rect width="50" height="50" fill="white" transform="translate(0 0.920105)"/>
</clipPath>
</defs>
</svg>
