<svg width="21" height="23" viewBox="0 0 21 23" fill="none" xmlns="http://www.w3.org/2000/svg">
<path fill-rule="evenodd" clip-rule="evenodd" d="M8.04439 20.498C8.39594 20.2939 8.84624 20.4137 9.05017 20.7655C9.18452 20.9974 9.37736 21.1898 9.60938 21.3236C9.84139 21.4573 10.1045 21.5277 10.3722 21.5277C10.64 21.5277 10.9031 21.4573 11.1351 21.3236C11.3671 21.1898 11.5599 20.9974 11.6943 20.7655C11.8982 20.4137 12.3485 20.2939 12.7001 20.498C13.0516 20.7021 13.1713 21.1529 12.9673 21.5047C12.7036 21.9598 12.3251 22.3375 11.8696 22.6001C11.4142 22.8627 10.8978 23.0009 10.3722 23.0009C9.84661 23.0009 9.33025 22.8627 8.8748 22.6001C8.41936 22.3375 8.04083 21.9598 7.7771 21.5047C7.57318 21.1529 7.69285 20.7021 8.04439 20.498Z" fill="#585D68"/>
<path fill-rule="evenodd" clip-rule="evenodd" d="M3.42968 7.51488C3.42968 3.36453 6.53864 0 10.3738 0C14.2089 0 17.3178 3.36453 17.3178 7.51488V10.34C17.3178 12.5016 18.1832 13.3044 19.1978 14.7952C19.6707 15.49 19.6512 16.3842 19.394 17.0569C19.1364 17.7305 18.5478 18.4 17.6833 18.4H3.0642C2.19969 18.4 1.61112 17.7305 1.35353 17.0569C1.09627 16.3842 1.07681 15.49 1.54967 14.7952C2.56434 13.3044 3.42968 12.5016 3.42968 10.34V7.51488ZM10.3738 1.46908C7.28836 1.46908 4.78716 4.17588 4.78716 7.51488V10.34C4.78716 12.9228 3.75892 14.0264 2.64266 15.6665C2.52039 15.8461 2.48318 16.1692 2.60785 16.4952C2.73219 16.8203 2.9252 16.9309 3.0642 16.9309H17.6833C17.8223 16.9309 18.0153 16.8203 18.1397 16.4952C18.2643 16.1692 18.2271 15.8461 18.1049 15.6665C16.9886 14.0264 15.9604 12.9228 15.9604 10.34V7.51488C15.9604 4.17588 13.4592 1.46908 10.3738 1.46908Z" fill="#585D68"/>
</svg>
