<svg width="12" height="12" viewBox="0 0 12 12" fill="none" xmlns="http://www.w3.org/2000/svg">
<g clip-path="url(#clip0_2_1883)">
<g clip-path="url(#clip1_2_1883)">
<path d="M5.99995 10.122L3.14245 11.8882C2.7907 12.1057 2.33095 11.9932 2.1157 11.6374C2.01295 11.4671 1.98145 11.2624 2.02682 11.0677L2.80345 7.77149L0.260947 5.56724C0.110352 5.43574 0.0174351 5.25035 0.0022143 5.05101C-0.0130065 4.85167 0.0506865 4.65432 0.179572 4.50149C0.242853 4.42651 0.320311 4.36476 0.407507 4.31978C0.494702 4.27479 0.589919 4.24747 0.687697 4.23936L4.02445 3.96899L5.31032 0.839611C5.36596 0.70229 5.46133 0.584709 5.58422 0.501934C5.70711 0.419159 5.85191 0.37496 6.00007 0.375C6.14824 0.37504 6.29302 0.419318 6.41586 0.50216C6.5387 0.585002 6.63401 0.702635 6.68957 0.839986L7.97507 3.96899L11.3126 4.23936C11.5112 4.25682 11.6949 4.3523 11.8233 4.50489C11.9517 4.65748 12.0144 4.85475 11.9977 5.05349C11.9822 5.25204 11.8892 5.43654 11.7389 5.56724L9.19607 7.77149L9.97307 11.0677C10.0197 11.2619 9.98779 11.4666 9.88419 11.6373C9.78058 11.808 9.61371 11.9308 9.41995 11.979C9.32482 12.0017 9.22612 12.0054 9.12957 11.9897C9.03302 11.9741 8.94053 11.9395 8.85745 11.8879L5.99995 10.122Z" fill="#FFBE1A"/>
</g>
</g>
<defs>
<clipPath id="clip0_2_1883">
<rect width="12" height="12" fill="white"/>
</clipPath>
<clipPath id="clip1_2_1883">
<rect width="12" height="12" fill="white"/>
</clipPath>
</defs>
</svg>
