<svg width="28" height="29" viewBox="0 0 28 29" fill="none" xmlns="http://www.w3.org/2000/svg">
<g clip-path="url(#clip0_1_1297)">
<g clip-path="url(#clip1_1_1297)">
<g clip-path="url(#clip2_1_1297)">
<path d="M14 13.5C16.2091 13.5 18 11.7091 18 9.5C18 7.29086 16.2091 5.5 14 5.5C11.7909 5.5 10 7.29086 10 9.5C10 11.7091 11.7909 13.5 14 13.5Z" stroke="black" stroke-width="1.2" stroke-miterlimit="10"/>
<path d="M5.22021 24.1498C5.22021 17.8218 9.78722 15.4498 14.3552 15.4498C15.7449 15.4456 17.1242 15.688 18.4292 16.1658C21.1692 17.1368 23.4912 19.6388 23.4912 24.1508" stroke="black" stroke-width="1.2" stroke-miterlimit="10"/>
</g>
</g>
</g>
<defs>
<clipPath id="clip0_1_1297">
<rect width="28" height="28" fill="white" transform="translate(0 0.5)"/>
</clipPath>
<clipPath id="clip1_1_1297">
<rect width="28" height="28" fill="white" transform="translate(0 0.5)"/>
</clipPath>
<clipPath id="clip2_1_1297">
<rect width="28" height="28" fill="white" transform="translate(0 0.5)"/>
</clipPath>
</defs>
</svg>
