<svg width="60" height="25" viewBox="0 0 60 25" fill="none" xmlns="http://www.w3.org/2000/svg">
<g clip-path="url(#clip0_2_1837)">
<g clip-path="url(#clip1_2_1837)">
<path d="M0 0.990234H52C56.4183 0.990234 60 4.57196 60 8.99024V24.9902H8C3.58172 24.9902 0 21.4085 0 16.9902V0.990234Z" fill="#00C4C4"/>
<path fill-rule="evenodd" clip-rule="evenodd" d="M47.7339 16.3441L47.7316 9.80441C47.7316 9.45184 48.011 9.16602 48.3556 9.16602H49.055L49.0314 16.3441H47.7339ZM38.2208 16.5155C36.3411 16.5155 34.9921 15.0821 34.9921 13.309V13.2913C34.9921 11.5195 36.3584 10.0681 38.2382 10.0681C40.1179 10.0681 41.4672 11.5017 41.4672 13.2746V13.2923C41.4672 15.0641 40.1018 16.5155 38.2208 16.5155ZM40.0658 13.2923C40.0658 12.2238 39.2999 11.3334 38.2208 11.3334C37.1417 11.3334 36.3932 12.2061 36.3932 13.2746V13.2923C36.3932 14.3608 37.1591 15.2512 38.2382 15.2512C39.3173 15.2512 40.0658 14.3785 40.0658 13.3101V13.2923ZM45.3302 13.7237L45.3066 16.3441L46.6295 16.3438L46.653 13.1373C46.653 12.042 45.8762 11.4715 45.0691 11.4715C44.3985 11.4715 43.8742 11.7834 43.5696 12.1841C43.5696 11.9129 43.3547 11.693 43.0897 11.693H42.2468L42.2232 16.3441H43.5474L43.5709 13.7237C43.5709 13.0827 43.946 12.7 44.4495 12.7C44.9531 12.7 45.3302 13.0827 45.3302 13.7237ZM51.267 17.7069C52.0591 17.7069 52.4419 17.3153 52.7989 16.3448L54.5926 11.6925H53.6731C53.4012 11.6918 53.1603 11.8713 53.0773 12.1361L52.1982 14.5741L51.1362 11.693H49.7354L51.46 15.8663C51.5597 16.1283 51.5569 16.3205 51.4082 16.4705C51.339 16.5399 51.2054 16.5826 51.1018 16.5826C50.903 16.5801 50.7082 16.5253 50.5361 16.4236L50.0921 17.3511C50.4317 17.5559 50.7883 17.7069 51.267 17.7069ZM23.7276 9.4251C23.847 9.30299 24.0089 9.23439 24.1777 9.23439H24.8661V16.3417H24.3496C24.1089 16.3414 23.8943 16.1865 23.8135 15.9545C23.3127 16.3274 22.7085 16.5269 22.0892 16.524C21.4242 16.524 20.7619 16.2966 20.248 15.8615C19.6367 15.3445 19.2966 14.5709 19.3518 13.7592C19.4365 12.51 20.4182 11.4945 21.6382 11.3949C22.337 11.3356 23.0278 11.5802 23.5412 12.0688V9.8855C23.5412 9.71281 23.6083 9.5472 23.7276 9.4251ZM20.7599 13.9418C20.7599 14.7742 21.3706 15.4491 22.1218 15.4491C22.8737 15.4491 23.4835 14.7742 23.4835 13.9418C23.4835 13.1095 22.874 12.4345 22.1218 12.4345C21.3696 12.4345 20.7599 13.1095 20.7599 13.9418ZM18.8014 16.3419V11.4715H18.1129C17.7816 11.4716 17.5059 11.7318 17.4791 12.0696C16.9657 11.5811 16.275 11.3364 15.5763 11.3957C14.356 11.4953 13.3746 12.5108 13.2896 13.76C13.2347 14.5717 13.5746 15.3453 14.1859 15.8623C14.7 16.2974 15.3621 16.5248 16.027 16.5248C16.6465 16.5277 17.2507 16.3282 17.7516 15.9553C17.8324 16.1872 18.0469 16.3421 18.2875 16.3425L18.8014 16.3419ZM16.0594 15.4491C15.3082 15.4491 14.6977 14.7742 14.6977 13.9418C14.6977 13.1095 15.3074 12.4345 16.0594 12.4345C16.8113 12.4345 17.4213 13.1095 17.4213 13.9418C17.4213 14.7742 16.8116 15.4491 16.0594 15.4491ZM32.3265 11.4715H28.8833C28.5321 11.4716 28.2474 11.763 28.2474 12.1223V12.6147H30.4069L28.0974 15.6445V16.3441H32.3265V15.2011H30.0212L32.3265 12.1782V11.4715ZM27.3322 10.4096C27.4997 9.98674 27.3004 9.50495 26.887 9.33356C26.4736 9.16217 26.0027 9.36608 25.8352 9.78901C25.6676 10.2119 25.8669 10.6937 26.2803 10.8651C26.6937 11.0365 27.1646 10.8326 27.3322 10.4096ZM12.0142 11.4728L11.0519 14.5057L10.0824 11.4728H9.1344C8.85909 11.4729 8.61507 11.6542 8.52984 11.922L7.70356 14.5057L6.74155 11.4728H5.39282L6.97597 16.343H8.32962L9.37788 13.2186L10.4259 16.343H11.7798L13.3629 11.4728H12.0142ZM27.2559 16.3441H25.9302V12.1239C25.9302 11.9512 25.9973 11.7855 26.1167 11.6634C26.2361 11.5413 26.398 11.4727 26.5669 11.4728H27.2559V16.3441Z" fill="#F9FAFB"/>
</g>
</g>
<defs>
<clipPath id="clip0_2_1837">
<rect width="60" height="24" fill="white" transform="translate(0 0.390625)"/>
</clipPath>
<clipPath id="clip1_2_1837">
<rect width="60" height="25" fill="white" transform="translate(0 0.390625)"/>
</clipPath>
</defs>
</svg>
