<svg width="72" height="45" viewBox="0 0 72 45" fill="none" xmlns="http://www.w3.org/2000/svg">
<g clip-path="url(#clip0_1_1272)">
<g clip-path="url(#clip1_1_1272)">
<g clip-path="url(#clip2_1_1272)">
<path d="M36 0.5C40.3512 0.5 44.6047 1.79028 48.2225 4.20767C51.8404 6.62506 54.6602 10.061 56.3253 14.081C57.9905 18.1009 58.4261 22.5244 57.5773 26.792C56.7284 31.0596 54.6331 34.9796 51.5564 38.0564C48.4796 41.1331 44.5596 43.2284 40.292 44.0773C36.0244 44.9261 31.6009 44.4905 27.581 42.8253C23.561 41.1602 20.1251 38.3404 17.7077 34.7225C15.2903 31.1047 14 26.8512 14 22.5C14 16.6652 16.3179 11.0695 20.4437 6.94365C24.5695 2.81785 30.1652 0.5 36 0.5Z" fill="black"/>
<path d="M36.0001 24.918V29.191C35.9991 29.2951 36.0187 29.3984 36.0577 29.495C36.0967 29.5916 36.1544 29.6795 36.2274 29.7538C36.3003 29.8281 36.3873 29.8873 36.4831 29.928C36.579 29.9687 36.6819 29.9901 36.7861 29.991H42.4321C42.6397 29.9894 42.845 29.9469 43.0363 29.866C43.2275 29.785 43.4009 29.6671 43.5465 29.5191C43.6921 29.371 43.8071 29.1957 43.885 29.0032C43.9628 28.8106 44.0019 28.6047 44.0001 28.397V19.314L36.0001 12.5L28.0001 19.314V28.398C27.9966 28.8171 28.1597 29.2205 28.4536 29.5194C28.7474 29.8183 29.1479 29.9883 29.5671 29.992H33.5921" stroke="white" stroke-linejoin="round"/>
</g>
</g>
</g>
<defs>
<clipPath id="clip0_1_1272">
<rect width="44" height="44" fill="white" transform="translate(14 0.5)"/>
</clipPath>
<clipPath id="clip1_1_1272">
<rect width="44" height="44" fill="white" transform="translate(14 0.5)"/>
</clipPath>
<clipPath id="clip2_1_1272">
<rect width="44" height="44" fill="white" transform="translate(14 0.5)"/>
</clipPath>
</defs>
</svg>
