<svg width="57" height="10" viewBox="0 0 57 10" fill="none" xmlns="http://www.w3.org/2000/svg">
<g clip-path="url(#clip0_2_6286)">
<g clip-path="url(#clip1_2_6286)">
<path d="M4.22254 4.0368L5.17816 1.14824C5.27919 0.842838 5.69151 0.842838 5.79255 1.14824L6.74816 4.0368L9.66597 4.09623C9.97447 4.10252 10.1019 4.51329 9.85583 4.70833L7.52862 6.55299L8.37631 9.47827C8.46594 9.78756 8.13237 10.0414 7.87926 9.85657L5.48535 8.10808L3.09144 9.85657C2.83834 10.0414 2.50476 9.78756 2.59439 9.47827L3.44208 6.55299L1.11487 4.70833C0.868818 4.51329 0.996231 4.10252 1.30473 4.09623L4.22254 4.0368Z" fill="#DFE2E6"/>
</g>
</g>
<g clip-path="url(#clip2_2_6286)">
<g clip-path="url(#clip3_2_6286)">
<g clip-path="url(#clip4_2_6286)">
<path d="M4.2368 4.06015L5.20686 1.12691C5.29846 0.849948 5.67225 0.849948 5.76384 1.12691L6.7339 4.06015L9.69582 4.1205C9.97549 4.1262 10.091 4.49873 9.86793 4.6756L7.50555 6.5488L8.36605 9.51933C8.4473 9.79982 8.1449 10.0301 7.91544 9.8624L5.48535 8.08687L3.05526 9.8624C2.8258 10.0301 2.5234 9.79982 2.60465 9.51933L3.46515 6.5488L1.10277 4.6756C0.879707 4.49873 0.995215 4.1262 1.27489 4.1205L4.2368 4.06015Z" fill="#F27935"/>
</g>
</g>
</g>
<g clip-path="url(#clip5_2_6286)">
<g clip-path="url(#clip6_2_6286)">
<path d="M15.2225 4.0368L16.1782 1.14824C16.2792 0.842838 16.6915 0.842838 16.7925 1.14824L17.7482 4.0368L20.666 4.09623C20.9745 4.10252 21.1019 4.51329 20.8558 4.70833L18.5286 6.55299L19.3763 9.47827C19.4659 9.78756 19.1324 10.0414 18.8793 9.85657L16.4854 8.10808L14.0914 9.85657C13.8383 10.0414 13.5048 9.78756 13.5944 9.47827L14.4421 6.55299L12.1149 4.70833C11.8688 4.51329 11.9962 4.10252 12.3047 4.09623L15.2225 4.0368Z" fill="#DFE2E6"/>
</g>
</g>
<g clip-path="url(#clip7_2_6286)">
<g clip-path="url(#clip8_2_6286)">
<g clip-path="url(#clip9_2_6286)">
<path d="M15.2368 4.06015L16.2069 1.12691C16.2985 0.849948 16.6722 0.849948 16.7638 1.12691L17.7339 4.06015L20.6958 4.1205C20.9755 4.1262 21.091 4.49873 20.8679 4.6756L18.5055 6.5488L19.3661 9.51933C19.4473 9.79982 19.1449 10.0301 18.9154 9.8624L16.4854 8.08687L14.0553 9.8624C13.8258 10.0301 13.5234 9.79982 13.6047 9.51933L14.4652 6.5488L12.1028 4.6756C11.8797 4.49873 11.9952 4.1262 12.2749 4.1205L15.2368 4.06015Z" fill="#F27935"/>
</g>
</g>
</g>
<g clip-path="url(#clip10_2_6286)">
<g clip-path="url(#clip11_2_6286)">
<path d="M26.2225 4.0368L27.1782 1.14824C27.2792 0.842838 27.6915 0.842838 27.7925 1.14824L28.7482 4.0368L31.666 4.09623C31.9745 4.10252 32.1019 4.51329 31.8558 4.70833L29.5286 6.55299L30.3763 9.47827C30.4659 9.78756 30.1324 10.0414 29.8793 9.85657L27.4854 8.10808L25.0914 9.85657C24.8383 10.0414 24.5048 9.78756 24.5944 9.47827L25.4421 6.55299L23.1149 4.70833C22.8688 4.51329 22.9962 4.10252 23.3047 4.09623L26.2225 4.0368Z" fill="#DFE2E6"/>
</g>
</g>
<g clip-path="url(#clip12_2_6286)">
<g clip-path="url(#clip13_2_6286)">
<g clip-path="url(#clip14_2_6286)">
<path d="M26.2368 4.06015L27.2069 1.12691C27.2985 0.849948 27.6722 0.849948 27.7638 1.12691L28.7339 4.06015L31.6958 4.1205C31.9755 4.1262 32.091 4.49873 31.8679 4.6756L29.5055 6.5488L30.3661 9.51933C30.4473 9.79982 30.1449 10.0301 29.9154 9.8624L27.4854 8.08687L25.0553 9.8624C24.8258 10.0301 24.5234 9.79982 24.6047 9.51933L25.4652 6.5488L23.1028 4.6756C22.8797 4.49873 22.9952 4.1262 23.2749 4.1205L26.2368 4.06015Z" fill="#F27935"/>
</g>
</g>
</g>
<g clip-path="url(#clip15_2_6286)">
<g clip-path="url(#clip16_2_6286)">
<path d="M37.2225 4.0368L38.1782 1.14824C38.2792 0.842838 38.6915 0.842838 38.7925 1.14824L39.7482 4.0368L42.666 4.09623C42.9745 4.10252 43.1019 4.51329 42.8558 4.70833L40.5286 6.55299L41.3763 9.47827C41.4659 9.78756 41.1324 10.0414 40.8793 9.85657L38.4854 8.10808L36.0914 9.85657C35.8383 10.0414 35.5048 9.78756 35.5944 9.47827L36.4421 6.55299L34.1149 4.70833C33.8688 4.51329 33.9962 4.10252 34.3047 4.09623L37.2225 4.0368Z" fill="#DFE2E6"/>
</g>
</g>
<g clip-path="url(#clip17_2_6286)">
<g clip-path="url(#clip18_2_6286)">
<g clip-path="url(#clip19_2_6286)">
<path d="M37.2368 4.06015L38.2069 1.12691C38.2985 0.849948 38.6722 0.849948 38.7638 1.12691L39.7339 4.06015L42.6958 4.1205C42.9755 4.1262 43.091 4.49873 42.8679 4.6756L40.5055 6.5488L41.3661 9.51933C41.4473 9.79982 41.1449 10.0301 40.9154 9.8624L38.4854 8.08687L36.0553 9.8624C35.8258 10.0301 35.5234 9.79982 35.6047 9.51933L36.4652 6.5488L34.1028 4.6756C33.8797 4.49873 33.9952 4.1262 34.2749 4.1205L37.2368 4.06015Z" fill="#F27935"/>
</g>
</g>
</g>
<g clip-path="url(#clip20_2_6286)">
<g clip-path="url(#clip21_2_6286)">
<path d="M48.2225 4.0368L49.1782 1.14824C49.2792 0.842838 49.6915 0.842838 49.7925 1.14824L50.7482 4.0368L53.666 4.09623C53.9745 4.10252 54.1019 4.51329 53.8558 4.70833L51.5286 6.55299L52.3763 9.47827C52.4659 9.78756 52.1324 10.0414 51.8793 9.85657L49.4854 8.10808L47.0914 9.85657C46.8383 10.0414 46.5048 9.78756 46.5944 9.47827L47.4421 6.55299L45.1149 4.70833C44.8688 4.51329 44.9962 4.10252 45.3047 4.09623L48.2225 4.0368Z" fill="#DFE2E6"/>
</g>
</g>
<g clip-path="url(#clip22_2_6286)">
<g clip-path="url(#clip23_2_6286)">
<g clip-path="url(#clip24_2_6286)">
<path d="M48.2368 4.06015L49.2069 1.12691C49.2985 0.849948 49.6722 0.849948 49.7638 1.12691L50.7339 4.06015L53.6958 4.1205C53.9755 4.1262 54.091 4.49873 53.8679 4.6756L51.5055 6.5488L52.3661 9.51933C52.4473 9.79982 52.1449 10.0301 51.9154 9.8624L49.4854 8.08687L47.0553 9.8624C46.8258 10.0301 46.5234 9.79982 46.6047 9.51933L47.4652 6.5488L45.1028 4.6756C44.8797 4.49873 44.9952 4.1262 45.2749 4.1205L48.2368 4.06015Z" fill="#F27935"/>
</g>
</g>
</g>
<defs>
<clipPath id="clip0_2_6286">
<rect width="9" height="9" fill="white" transform="translate(0.985352 0.919189)"/>
</clipPath>
<clipPath id="clip1_2_6286">
<rect width="9" height="9" fill="white" transform="translate(0.985352 0.919189)"/>
</clipPath>
<clipPath id="clip2_2_6286">
<rect width="9" height="9" fill="white" transform="translate(0.985352 0.919189)"/>
</clipPath>
<clipPath id="clip3_2_6286">
<rect width="9" height="9" fill="white" transform="translate(0.985352 0.919189)"/>
</clipPath>
<clipPath id="clip4_2_6286">
<rect width="9" height="9" fill="white" transform="translate(0.985352 0.919189)"/>
</clipPath>
<clipPath id="clip5_2_6286">
<rect width="9" height="9" fill="white" transform="translate(11.9854 0.919189)"/>
</clipPath>
<clipPath id="clip6_2_6286">
<rect width="9" height="9" fill="white" transform="translate(11.9854 0.919189)"/>
</clipPath>
<clipPath id="clip7_2_6286">
<rect width="9" height="9" fill="white" transform="translate(11.9854 0.919189)"/>
</clipPath>
<clipPath id="clip8_2_6286">
<rect width="9" height="9" fill="white" transform="translate(11.9854 0.919189)"/>
</clipPath>
<clipPath id="clip9_2_6286">
<rect width="9" height="9" fill="white" transform="translate(11.9854 0.919189)"/>
</clipPath>
<clipPath id="clip10_2_6286">
<rect width="9" height="9" fill="white" transform="translate(22.9854 0.919189)"/>
</clipPath>
<clipPath id="clip11_2_6286">
<rect width="9" height="9" fill="white" transform="translate(22.9854 0.919189)"/>
</clipPath>
<clipPath id="clip12_2_6286">
<rect width="9" height="9" fill="white" transform="translate(22.9854 0.919189)"/>
</clipPath>
<clipPath id="clip13_2_6286">
<rect width="9" height="9" fill="white" transform="translate(22.9854 0.919189)"/>
</clipPath>
<clipPath id="clip14_2_6286">
<rect width="9" height="9" fill="white" transform="translate(22.9854 0.919189)"/>
</clipPath>
<clipPath id="clip15_2_6286">
<rect width="9" height="9" fill="white" transform="translate(33.9854 0.919189)"/>
</clipPath>
<clipPath id="clip16_2_6286">
<rect width="9" height="9" fill="white" transform="translate(33.9854 0.919189)"/>
</clipPath>
<clipPath id="clip17_2_6286">
<rect width="9" height="9" fill="white" transform="translate(33.9854 0.919189)"/>
</clipPath>
<clipPath id="clip18_2_6286">
<rect width="9" height="9" fill="white" transform="translate(33.9854 0.919189)"/>
</clipPath>
<clipPath id="clip19_2_6286">
<rect width="9" height="9" fill="white" transform="translate(33.9854 0.919189)"/>
</clipPath>
<clipPath id="clip20_2_6286">
<rect width="9" height="9" fill="white" transform="translate(44.9854 0.919189)"/>
</clipPath>
<clipPath id="clip21_2_6286">
<rect width="9" height="9" fill="white" transform="translate(44.9854 0.919189)"/>
</clipPath>
<clipPath id="clip22_2_6286">
<rect width="9" height="9" fill="white" transform="translate(44.9854 0.919189)"/>
</clipPath>
<clipPath id="clip23_2_6286">
<rect width="9" height="9" fill="white" transform="translate(44.9854 0.919189)"/>
</clipPath>
<clipPath id="clip24_2_6286">
<rect width="9" height="9" fill="white" transform="translate(44.9854 0.919189)"/>
</clipPath>
</defs>
</svg>
