<svg width="26" height="26" viewBox="0 0 26 26" fill="none" xmlns="http://www.w3.org/2000/svg">
<g clip-path="url(#clip0_2_1192)">
<path fill-rule="evenodd" clip-rule="evenodd" d="M13.0002 2.58333C18.7533 2.58333 23.4168 7.24687 23.4168 13C23.4205 15.4041 22.5891 17.7348 21.0648 19.5937L21.0856 19.6167L20.9481 19.7333C19.9712 20.8888 18.7539 21.817 17.3811 22.4532C16.0083 23.0894 14.5132 23.4182 13.0002 23.4167C9.92726 23.4167 7.16684 22.0865 5.26059 19.9719L5.05226 19.7323L4.91476 19.6177L4.93559 19.5927C3.41138 17.734 2.57999 15.4037 2.58351 13C2.58351 7.24687 7.24705 2.58333 13.0002 2.58333ZM13.0002 18.2083C11.0627 18.2083 9.31163 18.825 8.00746 19.6729C9.44748 20.7534 11.1999 21.3362 13.0002 21.3333C14.8005 21.3362 16.5529 20.7534 17.9929 19.6729C16.5026 18.718 14.7701 18.2098 13.0002 18.2083ZM13.0002 4.66666C11.432 4.66662 9.89558 5.10907 8.56759 5.94317C7.23961 6.77727 6.17393 7.96916 5.49305 9.38184C4.81217 10.7945 4.54372 12.3707 4.71856 13.9291C4.8934 15.4875 5.50443 16.965 6.48142 18.1917C8.16997 16.9802 10.4741 16.125 13.0002 16.125C15.5262 16.125 17.8304 16.9802 19.5189 18.1917C20.4959 16.965 21.1069 15.4875 21.2818 13.9291C21.4566 12.3707 21.1882 10.7945 20.5073 9.38184C19.8264 7.96916 18.7607 6.77727 17.4328 5.94317C16.1048 5.10907 14.5684 4.66662 13.0002 4.66666ZM13.0002 6.74999C14.1052 6.74999 15.1651 7.18898 15.9465 7.97038C16.7279 8.75178 17.1668 9.81159 17.1668 10.9167C17.1668 12.0217 16.7279 13.0815 15.9465 13.8629C15.1651 14.6443 14.1052 15.0833 13.0002 15.0833C11.8951 15.0833 10.8353 14.6443 10.0539 13.8629C9.27249 13.0815 8.83351 12.0217 8.83351 10.9167C8.83351 9.81159 9.27249 8.75178 10.0539 7.97038C10.8353 7.18898 11.8951 6.74999 13.0002 6.74999ZM13.0002 8.83333C12.4476 8.83333 11.9177 9.05282 11.527 9.44352C11.1363 9.83422 10.9168 10.3641 10.9168 10.9167C10.9168 11.4692 11.1363 11.9991 11.527 12.3898C11.9177 12.7805 12.4476 13 13.0002 13C13.5527 13 14.0826 12.7805 14.4733 12.3898C14.864 11.9991 15.0835 11.4692 15.0835 10.9167C15.0835 10.3641 14.864 9.83422 14.4733 9.44352C14.0826 9.05282 13.5527 8.83333 13.0002 8.83333Z" fill="black"/>
</g>
<defs>
<clipPath id="clip0_2_1192">
<rect width="25" height="25" fill="white" transform="translate(0.5 0.5)"/>
</clipPath>
</defs>
</svg>
