<svg width="44" height="44" viewBox="0 0 44 44" fill="none" xmlns="http://www.w3.org/2000/svg">
<path d="M37.4819 27.6368C36.9527 28.8231 35.3343 29.2417 33.8671 28.5718L10.8441 18.0599C9.37696 17.39 8.61663 15.8853 9.14586 14.699L10.7429 11.119C11.721 11.5656 12.8 11.2865 13.1528 10.4957C13.5056 9.70485 12.9987 8.70169 12.0206 8.25512L13.6177 4.67517C14.1469 3.48888 15.7653 3.07025 17.2324 3.74013L40.2554 14.2521C41.7226 14.922 42.4829 16.4267 41.9537 17.613L40.3566 21.1929C39.3785 20.7463 38.2996 21.0254 37.9468 21.8163C37.594 22.6071 38.1009 23.6103 39.079 24.0569L37.4819 27.6368Z" fill="#D9DDFF"/>
<path d="M0.0711754 18.6397C0.0318291 16.9833 1.34302 15.629 2.99982 15.6149L28.9988 15.3927C30.6556 15.3785 32.0306 16.7098 32.07 18.3662L32.1887 23.3648C31.0842 23.3742 30.2101 24.2771 30.2363 25.3813C30.2625 26.4855 31.1792 27.3731 32.2837 27.3636L32.4024 32.3622C32.4418 34.0186 31.1306 35.3729 29.4738 35.387L3.47477 35.6092C1.81797 35.6234 0.442987 34.2921 0.40364 32.6357L0.284903 27.6371C1.38941 27.6277 2.26356 26.7249 2.23733 25.6206C2.2111 24.5164 1.29442 23.6288 0.189913 23.6383L0.0711754 18.6397Z" fill="#7F8EFB"/>
<path d="M15.492 24.3789C18.5212 25.2391 20.0473 26.848 20.4073 28.8835C20.5035 29.4274 20.0443 29.8789 19.492 29.8789H15.742H12.3851C11.7009 29.8789 11.1907 29.1984 11.4098 28.5503C11.9266 27.021 12.8585 25.1304 15.492 24.3789Z" fill="#EAEEFF"/>
<path d="M14.1522 24.7157C15.5152 25.6578 17.3838 25.3165 18.3258 23.9535C19.2679 22.5905 18.9266 20.7219 17.5636 19.7799C16.2006 18.8379 14.332 19.1791 13.39 20.5421C12.448 21.9051 12.7892 23.7737 14.1522 24.7157Z" fill="#EAEEFF" stroke="#7F8EFB"/>
<path d="M36.9507 27.375H25.0493C21.1561 27.375 18 30.5311 18 34.4243C18 38.3174 21.1561 41.4735 25.0493 41.4735H36.9507C40.8439 41.4735 44 38.3174 44 34.4243C44 30.5311 40.8439 27.375 36.9507 27.375Z" fill="#FF5555"/>
<path d="M27.5273 31.7695V37.4258H26.0352V33.1445H26.0039L24.7539 33.8945V32.6211L26.1523 31.7695H27.5273ZM30.4023 36.6445V35.207H28.9727V34.0039H30.4023V32.5742H31.6055V34.0039H33.0352V35.207H31.6055V36.6445H30.4023ZM36.8008 31.7695V37.4258H35.3086V33.1445H35.2773L34.0273 33.8945V32.6211L35.4258 31.7695H36.8008Z" fill="white"/>
</svg>
