<svg width="27" height="23" viewBox="0 0 27 23" fill="none" xmlns="http://www.w3.org/2000/svg">
<g clip-path="url(#clip0_19_406)">
<path d="M2.62817 3.45959H5.55906L7.80184 13.1261H17.433L19.4509 5.48726H6.70306M16.4674 18.411C16.6527 18.4165 16.8374 18.3847 17.0104 18.3176C17.1832 18.2505 17.3408 18.1493 17.4739 18.0202C17.607 17.891 17.7128 17.7364 17.7851 17.5655C17.8574 17.3947 17.8945 17.2112 17.8945 17.0256C17.8945 16.8402 17.8574 16.6565 17.7851 16.4858C17.7128 16.3149 17.607 16.1603 17.4739 16.0311C17.3408 15.9019 17.1832 15.8008 17.0104 15.7336C16.8374 15.6665 16.6527 15.6347 16.4674 15.6402C16.1071 15.651 15.7652 15.8016 15.5141 16.0602C15.2629 16.3189 15.1225 16.6652 15.1225 17.0256C15.1225 17.3861 15.2629 17.7324 15.5141 17.9911C15.7652 18.2497 16.1071 18.4004 16.4674 18.411ZM8.68795 18.411C8.87334 18.4165 9.05795 18.3847 9.23085 18.3176C9.40375 18.2505 9.56141 18.1493 9.69449 18.0202C9.82758 17.891 9.93337 17.7364 10.0056 17.5655C10.0779 17.3947 10.1151 17.2112 10.1151 17.0256C10.1151 16.8402 10.0779 16.6565 10.0056 16.4858C9.93337 16.3149 9.82758 16.1603 9.69449 16.0311C9.56141 15.9019 9.40375 15.8008 9.23085 15.7336C9.05795 15.6665 8.87334 15.6347 8.68795 15.6402C8.32764 15.651 7.98569 15.8016 7.73461 16.0602C7.48354 16.3189 7.3431 16.6652 7.3431 17.0256C7.3431 17.3861 7.48354 17.7324 7.73461 17.9911C7.98569 18.2497 8.32764 18.4004 8.68795 18.411Z" stroke="#333333" stroke-width="1.22222" stroke-linecap="square" stroke-linejoin="round"/>
</g>
<defs>
<clipPath id="clip0_19_406">
<rect width="22" height="22" fill="white" transform="translate(0.752197 0.15979)"/>
</clipPath>
</defs>
</svg>
