<svg width="27" height="23" viewBox="0 0 27 23" fill="none" xmlns="http://www.w3.org/2000/svg">
<g clip-path="url(#clip0_19_391)">
<path d="M2.76709 3.65416H5.69798L7.94076 13.3207H17.5719L19.5898 5.68183H6.84198M16.6064 18.6056C16.7916 18.6111 16.9763 18.5793 17.1493 18.5122C17.3221 18.4451 17.4798 18.3439 17.6129 18.2147C17.746 18.0855 17.8517 17.9309 17.924 17.7601C17.9963 17.5893 18.0334 17.4057 18.0334 17.2202C18.0334 17.0348 17.9963 16.8511 17.924 16.6803C17.8517 16.5095 17.746 16.3549 17.6129 16.2257C17.4798 16.0965 17.3221 15.9954 17.1493 15.9282C16.9763 15.8611 16.7916 15.8293 16.6064 15.8348C16.246 15.8456 15.9041 15.9961 15.653 16.2548C15.4019 16.5135 15.2614 16.8598 15.2614 17.2202C15.2614 17.5806 15.4019 17.927 15.653 18.1856C15.9041 18.4443 16.246 18.595 16.6064 18.6056ZM8.82687 18.6056C9.01225 18.6111 9.19687 18.5793 9.36977 18.5122C9.54266 18.4451 9.70033 18.3439 9.8334 18.2147C9.96649 18.0855 10.0723 17.9309 10.1445 17.7601C10.2168 17.5893 10.254 17.4057 10.254 17.2202C10.254 17.0348 10.2168 16.8511 10.1445 16.6803C10.0723 16.5095 9.96649 16.3549 9.8334 16.2257C9.70033 16.0965 9.54266 15.9954 9.36977 15.9282C9.19687 15.8611 9.01225 15.8293 8.82687 15.8348C8.46656 15.8456 8.1246 15.9961 7.87352 16.2548C7.62245 16.5135 7.48202 16.8598 7.48202 17.2202C7.48202 17.5806 7.62245 17.927 7.87352 18.1856C8.1246 18.4443 8.46656 18.595 8.82687 18.6056Z" stroke="#333333" stroke-width="1.22222" stroke-linecap="square" stroke-linejoin="round"/>
</g>
<defs>
<clipPath id="clip0_19_391">
<rect width="22" height="22" fill="white" transform="translate(0.891113 0.354355)"/>
</clipPath>
</defs>
</svg>
