<svg width="15" height="16" viewBox="0 0 15 16" fill="none" xmlns="http://www.w3.org/2000/svg">
<path d="M7.1915 8.27778C8.11976 8.27778 9.00999 7.92659 9.66637 7.30147C10.3227 6.67635 10.6915 5.8285 10.6915 4.94444C10.6915 4.06039 10.3227 3.21254 9.66637 2.58742C9.00999 1.9623 8.11976 1.61111 7.1915 1.61111C6.26324 1.61111 5.373 1.9623 4.71662 2.58742C4.06025 3.21254 3.6915 4.06039 3.6915 4.94444C3.6915 5.8285 4.06025 6.67635 4.71662 7.30147C5.373 7.92659 6.26324 8.27778 7.1915 8.27778ZM7.1915 9.38889C5.95382 9.38889 4.76684 8.92064 3.89167 8.08714C3.0165 7.25365 2.52483 6.12318 2.52483 4.94444C2.52483 3.7657 3.0165 2.63524 3.89167 1.80175C4.76684 0.968253 5.95382 0.5 7.1915 0.5C8.42917 0.5 9.61616 0.968253 10.4913 1.80175C11.3665 2.63524 11.8582 3.7657 11.8582 4.94444C11.8582 6.12318 11.3665 7.25365 10.4913 8.08714C9.61616 8.92064 8.42917 9.38889 7.1915 9.38889ZM13.0248 14.9444V13.2778C13.0248 12.8358 12.8405 12.4118 12.5123 12.0993C12.1841 11.7867 11.739 11.6111 11.2748 11.6111H3.10816C2.64404 11.6111 2.19892 11.7867 1.87073 12.0993C1.54254 12.4118 1.35816 12.8358 1.35816 13.2778V14.9444C1.35816 15.0918 1.29671 15.2331 1.18731 15.3373C1.07791 15.4415 0.929541 15.5 0.774831 15.5C0.620121 15.5 0.471749 15.4415 0.362352 15.3373C0.252956 15.2331 0.191498 15.0918 0.191498 14.9444V13.2778C0.191498 12.5411 0.498789 11.8345 1.04577 11.3136C1.59275 10.7927 2.33462 10.5 3.10816 10.5H11.2748C12.0484 10.5 12.7902 10.7927 13.3372 11.3136C13.8842 11.8345 14.1915 12.5411 14.1915 13.2778V14.9444C14.1915 15.0918 14.13 15.2331 14.0206 15.3373C13.9112 15.4415 13.7629 15.5 13.6082 15.5C13.4535 15.5 13.3051 15.4415 13.1957 15.3373C13.0863 15.2331 13.0248 15.0918 13.0248 14.9444Z" fill="black"/>
</svg>
