<svg width="18" height="18" viewBox="0 0 18 18" fill="none" xmlns="http://www.w3.org/2000/svg">
<path d="M16.4855 17.1926L10.2235 10.9306C9.72347 11.3566 9.14847 11.6863 8.49847 11.9196C7.84847 12.153 7.19514 12.2696 6.53847 12.2696C4.93714 12.2696 3.5818 11.7153 2.47247 10.6066C1.36314 9.49795 0.808472 8.14295 0.808472 6.54162C0.808472 4.94029 1.36247 3.58462 2.47047 2.47462C3.57847 1.36462 4.93314 0.808953 6.53447 0.80762C8.13581 0.806286 9.49181 1.36095 10.6025 2.47162C11.7131 3.58229 12.2685 4.93795 12.2685 6.53862C12.2685 7.23329 12.1455 7.90562 11.8995 8.55562C11.6535 9.20562 11.3301 9.76162 10.9295 10.2236L17.1915 16.4846L16.4855 17.1926ZM6.53947 11.2686C7.86614 11.2686 8.98614 10.812 9.89947 9.89862C10.8128 8.98529 11.2695 7.86495 11.2695 6.53762C11.2695 5.21029 10.8128 4.09029 9.89947 3.17762C8.98614 2.26495 7.86614 1.80829 6.53947 1.80762C5.2128 1.80695 4.09247 2.26362 3.17847 3.17762C2.26447 4.09162 1.80781 5.21162 1.80847 6.53762C1.80914 7.86362 2.2658 8.98362 3.17847 9.89762C4.09114 10.8116 5.21114 11.2683 6.53847 11.2676" fill="black"/>
</svg>
