<svg width="53" height="39" viewBox="0 0 53 39" fill="none" xmlns="http://www.w3.org/2000/svg">
<g filter="url(#filter0_d_313_591)">
<path fill-rule="evenodd" clip-rule="evenodd" d="M4 4.01474C4 1.92796 5.84682 0.236328 8.125 0.236328H44.875C47.1532 0.236328 49 1.92796 49 4.01474V11.2247C47.0278 11.4707 45.5019 13.1468 45.5019 15.1781C45.5019 17.2093 47.0278 18.8855 49 19.1315V26.3414C49 28.4282 47.1532 30.1198 44.875 30.1198H8.125C5.84682 30.1198 4 28.4282 4 26.3414V19.1318C5.97316 18.8866 7.5 17.21 7.5 15.1781C7.5 13.1462 5.97316 11.4695 4 11.2244V4.01474Z" fill="#FB5315" fill-opacity="0.1" shape-rendering="crispEdges"/>
</g>
<defs>
<filter id="filter0_d_313_591" x="0" y="0.236328" width="53" height="37.8828" filterUnits="userSpaceOnUse" color-interpolation-filters="sRGB">
<feFlood flood-opacity="0" result="BackgroundImageFix"/>
<feColorMatrix in="SourceAlpha" type="matrix" values="0 0 0 0 0 0 0 0 0 0 0 0 0 0 0 0 0 0 127 0" result="hardAlpha"/>
<feOffset dy="4"/>
<feGaussianBlur stdDeviation="2"/>
<feComposite in2="hardAlpha" operator="out"/>
<feColorMatrix type="matrix" values="0 0 0 0 0 0 0 0 0 0 0 0 0 0 0 0 0 0 0.25 0"/>
<feBlend mode="normal" in2="BackgroundImageFix" result="effect1_dropShadow_313_591"/>
<feBlend mode="normal" in="SourceGraphic" in2="effect1_dropShadow_313_591" result="shape"/>
</filter>
</defs>
</svg>
