<svg width="18" height="18" viewBox="0 0 18 18" fill="none" xmlns="http://www.w3.org/2000/svg">
<path d="M16.4855 17.1925L10.2235 10.9305C9.7235 11.3565 9.1485 11.6862 8.4985 11.9195C7.8485 12.1528 7.19517 12.2695 6.5385 12.2695C4.93717 12.2695 3.58184 11.7152 2.4725 10.6065C1.36317 9.49783 0.808502 8.14283 0.808502 6.5415C0.808502 4.94016 1.3625 3.5845 2.4705 2.4745C3.5785 1.3645 4.93317 0.808831 6.5345 0.807498C8.13584 0.806164 9.49184 1.36083 10.6025 2.4715C11.7132 3.58216 12.2685 4.93783 12.2685 6.5385C12.2685 7.23316 12.1455 7.9055 11.8995 8.5555C11.6535 9.2055 11.3302 9.7615 10.9295 10.2235L17.1915 16.4845L16.4855 17.1925ZM6.5395 11.2685C7.86617 11.2685 8.98617 10.8118 9.8995 9.8985C10.8128 8.98516 11.2695 7.86483 11.2695 6.5375C11.2695 5.21016 10.8128 4.09016 9.8995 3.1775C8.98617 2.26483 7.86617 1.80816 6.5395 1.8075C5.21283 1.80683 4.0925 2.2635 3.1785 3.1775C2.2645 4.0915 1.80784 5.2115 1.8085 6.5375C1.80917 7.8635 2.26584 8.9835 3.1785 9.8975C4.09117 10.8115 5.21117 11.2682 6.5385 11.2675" fill="black"/>
</svg>
