<svg width="18" height="17" viewBox="0 0 18 17" fill="none" xmlns="http://www.w3.org/2000/svg">
<path d="M16.4856 16.6926L10.2236 10.4306C9.72359 10.8566 9.14859 11.1863 8.49859 11.4196C7.84859 11.653 7.19526 11.7696 6.53859 11.7696C4.93726 11.7696 3.58193 11.2153 2.47259 10.1066C1.36326 8.99795 0.808594 7.64295 0.808594 6.04162C0.808594 4.44029 1.36259 3.08462 2.47059 1.97462C3.57859 0.864619 4.93326 0.308953 6.53459 0.30762C8.13593 0.306286 9.49193 0.860953 10.6026 1.97162C11.7133 3.08229 12.2686 4.43795 12.2686 6.03862C12.2686 6.73329 12.1456 7.40562 11.8996 8.05562C11.6536 8.70562 11.3303 9.26162 10.9296 9.72362L17.1916 15.9846L16.4856 16.6926ZM6.53959 10.7686C7.86626 10.7686 8.98626 10.312 9.89959 9.39862C10.8129 8.48529 11.2696 7.36495 11.2696 6.03762C11.2696 4.71029 10.8129 3.59029 9.89959 2.67762C8.98626 1.76495 7.86626 1.30829 6.53959 1.30762C5.21293 1.30695 4.09259 1.76362 3.17859 2.67762C2.26459 3.59162 1.80793 4.71162 1.80859 6.03762C1.80926 7.36362 2.26593 8.48362 3.17859 9.39762C4.09126 10.3116 5.21126 10.7683 6.53859 10.7676" fill="black"/>
</svg>
