<svg width="375" height="47" viewBox="0 0 375 47" fill="none" xmlns="http://www.w3.org/2000/svg">
<g filter="url(#filter0_d_2_287)">
<rect width="375" height="47" fill="white"/>
<rect x="0.5" y="0.5" width="374" height="46" stroke="black"/>
<path d="M51.3086 33.894H55.0006V28.01H59.6166V33.894H63.3086V24.894L57.3086 20.356L51.3086 24.894V33.894ZM50.3086 34.894V24.394L57.3086 19.106L64.3086 24.394V34.894H58.6166V29.01H56.0006V34.894H50.3086Z" fill="black"/>
<path d="M129.986 35.1925L123.724 28.9305C123.224 29.3565 122.649 29.6862 121.999 29.9195C121.349 30.1528 120.695 30.2695 120.039 30.2695C118.437 30.2695 117.082 29.7152 115.973 28.6065C114.863 27.4978 114.309 26.1428 114.309 24.5415C114.309 22.9402 114.863 21.5845 115.971 20.4745C117.079 19.3645 118.433 18.8088 120.035 18.8075C121.636 18.8062 122.992 19.3608 124.103 20.4715C125.213 21.5822 125.769 22.9378 125.769 24.5385C125.769 25.2332 125.646 25.9055 125.4 26.5555C125.154 27.2055 124.83 27.7615 124.43 28.2235L130.692 34.4845L129.986 35.1925ZM120.04 29.2685C121.366 29.2685 122.486 28.8118 123.4 27.8985C124.313 26.9852 124.77 25.8648 124.77 24.5375C124.77 23.2102 124.313 22.0902 123.4 21.1775C122.486 20.2648 121.366 19.8082 120.04 19.8075C118.713 19.8068 117.593 20.2635 116.679 21.1775C115.765 22.0915 115.308 23.2115 115.309 24.5375C115.309 25.8635 115.766 26.9835 116.679 27.8975C117.591 28.8115 118.711 29.2682 120.039 29.2675" fill="black"/>
<path fill-rule="evenodd" clip-rule="evenodd" d="M191.562 21.5C190.687 21.5 189.847 21.8594 189.228 22.5015L189.051 22.6848C188.957 22.7824 188.827 22.8376 188.691 22.8376C188.556 22.8376 188.426 22.7824 188.332 22.6848L188.155 22.5015C186.867 21.1666 184.775 21.1666 183.487 22.5015C182.204 23.8316 182.204 25.9847 183.487 27.3148L188.351 32.356C188.53 32.5417 188.829 32.5488 189.017 32.3715C190.135 31.2939 191.199 30.1647 192.27 29.0268C192.807 28.4565 193.346 27.884 193.896 27.3148C194.511 26.6771 194.858 25.8118 194.858 24.9081C194.858 24.0045 194.511 23.1394 193.896 22.5016C193.276 21.8595 192.436 21.5 191.562 21.5ZM188.691 21.6282C189.475 20.9058 190.496 20.5 191.562 20.5C192.712 20.5 193.811 20.9732 194.615 21.8072C195.414 22.6345 195.858 23.7499 195.858 24.9081C195.858 26.0665 195.414 27.1818 194.615 28.0091C194.084 28.5595 193.554 29.1224 193.021 29.6882C191.939 30.8375 190.845 31.999 189.709 33.0933L189.706 33.0959C189.12 33.6519 188.192 33.6318 187.631 33.0503L182.768 28.0091C181.111 26.2916 181.111 23.5247 182.768 21.8072C184.389 20.1266 187 20.0669 188.691 21.6282Z" fill="#292927"/>
<path d="M248.307 36C247.847 36 247.462 35.846 247.154 35.538C246.846 35.23 246.692 34.8457 246.691 34.385V23.615C246.691 23.155 246.846 22.771 247.154 22.463C247.463 22.155 247.847 22.0007 248.307 22H250.191V21.5C250.191 20.528 250.532 19.7017 251.212 19.021C251.893 18.3403 252.719 18 253.691 18C254.663 18 255.49 18.3403 256.17 19.021C256.851 19.7017 257.191 20.528 257.191 21.5V22H259.076C259.536 22 259.92 22.1543 260.228 22.463C260.536 22.7717 260.691 23.156 260.691 23.616V34.385C260.691 34.845 260.537 35.2293 260.228 35.538C259.92 35.8467 259.536 36.0007 259.076 36H248.307ZM248.307 35H259.076C259.23 35 259.371 34.936 259.499 34.808C259.628 34.68 259.692 34.5387 259.691 34.384V23.616C259.691 23.462 259.627 23.3207 259.499 23.192C259.371 23.0633 259.23 22.9993 259.075 23H257.191V25.5C257.191 25.6427 257.144 25.7617 257.048 25.857C256.953 25.9523 256.834 26 256.691 26C256.549 26 256.43 25.9523 256.334 25.857C256.239 25.7617 256.191 25.6427 256.191 25.5V23H251.191V25.5C251.191 25.6427 251.144 25.7617 251.048 25.857C250.953 25.9523 250.834 26 250.691 26C250.549 26 250.43 25.9523 250.334 25.857C250.239 25.7617 250.191 25.6427 250.191 25.5V23H248.307C248.153 23 248.012 23.064 247.883 23.192C247.755 23.32 247.691 23.4613 247.691 23.616V34.385C247.691 34.5383 247.755 34.6793 247.883 34.808C248.011 34.9367 248.152 35.0007 248.306 35M251.191 22H256.191V21.5C256.191 20.796 255.951 20.2033 255.469 19.722C254.988 19.2407 254.395 19 253.691 19C252.987 19 252.395 19.2407 251.913 19.722C251.432 20.2033 251.191 20.796 251.191 21.5V22Z" fill="black"/>
<path d="M317.691 27.2778C318.62 27.2778 319.51 26.9266 320.166 26.3015C320.823 25.6763 321.191 24.8285 321.191 23.9444C321.191 23.0604 320.823 22.2125 320.166 21.5874C319.51 20.9623 318.62 20.6111 317.691 20.6111C316.763 20.6111 315.873 20.9623 315.217 21.5874C314.56 22.2125 314.191 23.0604 314.191 23.9444C314.191 24.8285 314.56 25.6763 315.217 26.3015C315.873 26.9266 316.763 27.2778 317.691 27.2778ZM317.691 28.3889C316.454 28.3889 315.267 27.9206 314.392 27.0871C313.516 26.2536 313.025 25.1232 313.025 23.9444C313.025 22.7657 313.516 21.6352 314.392 20.8017C315.267 19.9683 316.454 19.5 317.691 19.5C318.929 19.5 320.116 19.9683 320.991 20.8017C321.866 21.6352 322.358 22.7657 322.358 23.9444C322.358 25.1232 321.866 26.2536 320.991 27.0871C320.116 27.9206 318.929 28.3889 317.691 28.3889ZM323.525 33.9444V32.2778C323.525 31.8358 323.34 31.4118 323.012 31.0993C322.684 30.7867 322.239 30.6111 321.775 30.6111H313.608C313.144 30.6111 312.699 30.7867 312.371 31.0993C312.042 31.4118 311.858 31.8358 311.858 32.2778V33.9444C311.858 34.0918 311.797 34.2331 311.687 34.3373C311.578 34.4415 311.429 34.5 311.275 34.5C311.12 34.5 310.972 34.4415 310.862 34.3373C310.753 34.2331 310.691 34.0918 310.691 33.9444V32.2778C310.691 31.5411 310.999 30.8345 311.546 30.3136C312.093 29.7927 312.835 29.5 313.608 29.5H321.775C322.548 29.5 323.29 29.7927 323.837 30.3136C324.384 30.8345 324.691 31.5411 324.691 32.2778V33.9444C324.691 34.0918 324.63 34.2331 324.521 34.3373C324.411 34.4415 324.263 34.5 324.108 34.5C323.953 34.5 323.805 34.4415 323.696 34.3373C323.586 34.2331 323.525 34.0918 323.525 33.9444Z" fill="black"/>
</g>
<defs>
<filter id="filter0_d_2_287" x="-4" y="0" width="383" height="55" filterUnits="userSpaceOnUse" color-interpolation-filters="sRGB">
<feFlood flood-opacity="0" result="BackgroundImageFix"/>
<feColorMatrix in="SourceAlpha" type="matrix" values="0 0 0 0 0 0 0 0 0 0 0 0 0 0 0 0 0 0 127 0" result="hardAlpha"/>
<feOffset dy="4"/>
<feGaussianBlur stdDeviation="2"/>
<feComposite in2="hardAlpha" operator="out"/>
<feColorMatrix type="matrix" values="0 0 0 0 0 0 0 0 0 0 0 0 0 0 0 0 0 0 0.25 0"/>
<feBlend mode="normal" in2="BackgroundImageFix" result="effect1_dropShadow_2_287"/>
<feBlend mode="normal" in="SourceGraphic" in2="effect1_dropShadow_2_287" result="shape"/>
</filter>
</defs>
</svg>
