<svg width="30" height="30" viewBox="0 0 30 30" fill="none" xmlns="http://www.w3.org/2000/svg">
<g clip-path="url(#clip0_177_733)">
<path fill-rule="evenodd" clip-rule="evenodd" d="M0 23.571C0 25.3453 1.43571 26.7853 3.21 26.7853H26.79C28.5643 26.7853 30 25.3453 30 23.571V19.2124C30.0002 18.977 29.9229 18.7481 29.78 18.561C29.637 18.3739 29.4365 18.2391 29.2093 18.1774C28.5119 17.9875 27.8964 17.5735 27.4576 16.9993C27.0188 16.425 26.7811 15.7223 26.7811 14.9996C26.7811 14.2768 27.0188 13.5742 27.4576 12.9999C27.8964 12.4256 28.5119 12.0116 29.2093 11.8217C29.4365 11.76 29.637 11.6252 29.78 11.4382C29.9229 11.2511 30.0002 11.0221 30 10.7867V6.42815C30 4.65387 28.5643 3.21387 26.79 3.21387H3.21C1.43571 3.21387 0 4.65387 0 6.42815V10.7782C0.000284905 11.0147 0.0788455 11.2445 0.223429 11.4317C0.368013 11.619 0.570492 11.7531 0.799286 11.8132C1.50402 11.9974 2.12778 12.4102 2.57296 12.9867C3.01814 13.5633 3.25962 14.2712 3.25962 14.9996C3.25962 15.728 3.01814 16.4359 2.57296 17.0124C2.12778 17.589 1.50402 18.0017 0.799286 18.186C0.570492 18.2461 0.368013 18.3802 0.223429 18.5674C0.0788455 18.7547 0.000284905 18.9845 0 19.221L0 23.571ZM10.6329 21.3039L21.3471 10.5896C21.5863 10.3362 21.7173 9.99968 21.7123 9.65135C21.7074 9.30301 21.5669 8.9703 21.3207 8.72383C21.0745 8.47735 20.742 8.33651 20.3936 8.33118C20.0453 8.32585 19.7086 8.45646 19.455 8.6953L8.74071 19.4096C8.61026 19.5324 8.50578 19.6802 8.43347 19.8442C8.36116 20.0081 8.32249 20.1849 8.31975 20.3641C8.31701 20.5433 8.35026 20.7212 8.41752 20.8873C8.48478 21.0534 8.58469 21.2043 8.71133 21.3311C8.83797 21.4579 8.98876 21.5579 9.15478 21.6254C9.3208 21.6928 9.49867 21.7263 9.67785 21.7237C9.85703 21.7212 10.0339 21.6827 10.1979 21.6106C10.362 21.5385 10.5099 21.4342 10.6329 21.3039ZM8.61643 10.7139C8.61643 10.1455 8.84219 9.6005 9.24406 9.19864C9.64592 8.79677 10.191 8.57101 10.7593 8.57101C11.3276 8.57101 11.8727 8.79677 12.2745 9.19864C12.6764 9.6005 12.9021 10.1455 12.9021 10.7139C12.9021 11.2822 12.6764 11.8272 12.2745 12.2291C11.8727 12.631 11.3276 12.8567 10.7593 12.8567C10.191 12.8567 9.64592 12.631 9.24406 12.2291C8.84219 11.8272 8.61643 11.2822 8.61643 10.7139ZM17.1879 19.2853C17.1879 18.717 17.4136 18.1719 17.8155 17.7701C18.2173 17.3682 18.7624 17.1424 19.3307 17.1424C19.899 17.1424 20.4441 17.3682 20.8459 17.7701C21.2478 18.1719 21.4736 18.717 21.4736 19.2853C21.4736 19.8536 21.2478 20.3987 20.8459 20.8005C20.4441 21.2024 19.899 21.4282 19.3307 21.4282C18.7624 21.4282 18.2173 21.2024 17.8155 20.8005C17.4136 20.3987 17.1879 19.8536 17.1879 19.2853Z" fill="#FF695B"/>
</g>
<defs>
<clipPath id="clip0_177_733">
<rect width="30" height="30" fill="white"/>
</clipPath>
</defs>
</svg>
