<svg width="13" height="12" viewBox="0 0 13 12" fill="none" xmlns="http://www.w3.org/2000/svg">
<g clip-path="url(#clip0_363_716)">
<g clip-path="url(#clip1_363_716)">
<path d="M6.83003 10.123L3.97253 11.8892C3.62078 12.1067 3.16103 11.9942 2.94578 11.6383C2.84303 11.4681 2.81153 11.2633 2.8569 11.0687L3.63353 7.77246L1.09103 5.56821C0.94043 5.43672 0.847513 5.25133 0.832292 5.05199C0.817072 4.85264 0.880765 4.6553 1.00965 4.50246C1.07293 4.42748 1.15039 4.36573 1.23758 4.32075C1.32478 4.27577 1.42 4.24844 1.51778 4.24034L4.85453 3.96996L6.1404 0.840588C6.19604 0.703267 6.29141 0.585686 6.4143 0.502911C6.53718 0.420135 6.68199 0.375936 6.83015 0.375977C6.97832 0.376017 7.12309 0.420295 7.24594 0.503137C7.36878 0.585979 7.46409 0.703612 7.51965 0.840963L8.80515 3.96996L12.1427 4.24034C12.3413 4.25779 12.525 4.35327 12.6534 4.50587C12.7818 4.65846 12.8445 4.85573 12.8278 5.05446C12.8122 5.25302 12.7193 5.43752 12.569 5.56821L10.0262 7.77246L10.8032 11.0687C10.8498 11.2629 10.8179 11.4676 10.7143 11.6383C10.6107 11.8089 10.4438 11.9318 10.25 11.98C10.1549 12.0027 10.0562 12.0064 9.95965 11.9907C9.8631 11.9751 9.77061 11.9405 9.68753 11.8888L6.83003 10.123Z" fill="#FFBE1A"/>
</g>
</g>
<defs>
<clipPath id="clip0_363_716">
<rect width="12" height="12" fill="white" transform="translate(0.830078)"/>
</clipPath>
<clipPath id="clip1_363_716">
<rect width="12" height="12" fill="white" transform="translate(0.830078)"/>
</clipPath>
</defs>
</svg>
