<svg width="26" height="25" viewBox="0 0 26 25" fill="none" xmlns="http://www.w3.org/2000/svg">
<path d="M20.3428 7.03149H5.64179C5.28877 7.01709 4.94253 7.13134 4.6674 7.35301C4.39228 7.57467 4.20699 7.88869 4.14595 8.23669L2.06262 22.7315C2.05183 22.9305 2.08324 23.1295 2.15477 23.3155C2.22631 23.5015 2.33636 23.6702 2.4777 23.8107C2.61906 23.9512 2.78851 24.0601 2.97494 24.1305C3.16138 24.2009 3.36059 24.231 3.5595 24.219H22.4251C22.6239 24.2311 22.8231 24.2009 23.0096 24.1306C23.1959 24.0601 23.3653 23.9511 23.5065 23.8107C23.6479 23.6701 23.7578 23.5014 23.8292 23.3153C23.9006 23.1294 23.9318 22.9305 23.9209 22.7315L21.8376 8.23669C21.7766 7.88887 21.5914 7.57501 21.3165 7.35336C21.0416 7.13171 20.6957 7.01734 20.3428 7.03149Z" stroke="black" stroke-width="1.5" stroke-linecap="round" stroke-linejoin="round"/>
<path d="M16.8147 3.96563C16.6437 3.07179 16.167 2.2653 15.4665 1.68434C14.7659 1.10337 13.8852 0.78411 12.9751 0.78125C12.0696 0.785222 11.1933 1.10262 10.4953 1.67952C9.79723 2.25642 9.32046 3.05722 9.146 3.94583" stroke="black" stroke-width="1.5" stroke-linecap="round" stroke-linejoin="round"/>
<path d="M15.7635 14.0625L12.0969 18.951L9.8667 16.7219" stroke="black" stroke-width="1.5" stroke-linecap="round" stroke-linejoin="round"/>
</svg>
