<svg width="31" height="31" viewBox="0 0 31 31" fill="none" xmlns="http://www.w3.org/2000/svg">
<path d="M10.504 22.062C10.2554 22.062 10.0169 21.9632 9.84109 21.7874C9.66527 21.6116 9.5665 21.3731 9.5665 21.1245V9.8745C9.56658 9.71476 9.60748 9.55769 9.68532 9.41819C9.76316 9.2787 9.87535 9.1614 10.0112 9.07744C10.1471 8.99348 10.3022 8.94564 10.4618 8.93845C10.6214 8.93126 10.7802 8.96497 10.9231 9.03637L22.1731 14.6614C22.3286 14.7393 22.4593 14.859 22.5507 15.007C22.6421 15.155 22.6905 15.3255 22.6905 15.4995C22.6905 15.6735 22.6421 15.844 22.5507 15.992C22.4593 16.14 22.3286 16.2597 22.1731 16.3376L10.9231 21.9626C10.793 22.0278 10.6495 22.0618 10.504 22.062ZM11.4415 11.3914V19.6076L19.6577 15.4995L11.4415 11.3914Z" fill="black"/>
<path d="M15.1915 4.25C17.4165 4.25 19.5916 4.9098 21.4417 6.14597C23.2917 7.38213 24.7337 9.13914 25.5851 11.1948C26.4366 13.2505 26.6594 15.5125 26.2253 17.6948C25.7913 19.8771 24.7198 21.8816 23.1465 23.455C21.5731 25.0283 19.5686 26.0998 17.3863 26.5338C15.204 26.9679 12.942 26.7451 10.8863 25.8936C8.83065 25.0422 7.07364 23.6002 5.83747 21.7502C4.6013 19.9001 3.9415 17.725 3.9415 15.5C3.9415 12.5163 5.12677 9.65483 7.23655 7.54505C9.34634 5.43526 12.2078 4.25 15.1915 4.25ZM15.1915 2.375C12.5956 2.375 10.058 3.14477 7.89964 4.58696C5.74125 6.02916 4.05898 8.079 3.06558 10.4773C2.07218 12.8756 1.81227 15.5146 2.3187 18.0606C2.82513 20.6066 4.07516 22.9452 5.91073 24.7808C7.74629 26.6163 10.0849 27.8664 12.6309 28.3728C15.1769 28.8792 17.8159 28.6193 20.2142 27.6259C22.6125 26.6325 24.6623 24.9503 26.1045 22.7919C27.5467 20.6335 28.3165 18.0959 28.3165 15.5C28.3165 12.019 26.9337 8.68064 24.4723 6.21922C22.0109 3.75781 18.6725 2.375 15.1915 2.375Z" fill="black"/>
</svg>
