<svg width="25" height="24" viewBox="0 0 25 24" fill="none" xmlns="http://www.w3.org/2000/svg">
<g clip-path="url(#clip0_3_2891)">
<path d="M7.25 15.25H5C4.00544 15.25 3.05161 14.8549 2.34835 14.1517C1.64509 13.4484 1.25 12.4946 1.25 11.5C1.25 10.5054 1.64509 9.55161 2.34835 8.84835C3.05161 8.14509 4.00544 7.75 5 7.75H7.25V15.25Z" stroke="black" stroke-width="1.5" stroke-linecap="round" stroke-linejoin="round"/>
<path d="M7.25 15.25C11.6511 15.2504 15.9538 16.5531 19.616 18.994L20.75 19.75V3.25L19.616 4.006C15.9538 6.44694 11.6511 7.74963 7.25 7.75V15.25Z" stroke="black" stroke-width="1.5" stroke-linecap="round" stroke-linejoin="round"/>
<path d="M23.75 10V13" stroke="black" stroke-width="1.5" stroke-linecap="round" stroke-linejoin="round"/>
<path d="M7.25 15.25C7.24936 16.2319 7.4485 17.2037 7.83531 18.1063C8.22212 19.0088 8.7885 19.8233 9.5 20.5" stroke="black" stroke-width="1.5" stroke-linecap="round" stroke-linejoin="round"/>
</g>
<defs>
<clipPath id="clip0_3_2891">
<rect width="24" height="24" fill="white" transform="translate(0.5)"/>
</clipPath>
</defs>
</svg>
