<svg width="35" height="35" viewBox="0 0 35 35" fill="none" xmlns="http://www.w3.org/2000/svg">
<g clip-path="url(#clip0_313_734)">
<g clip-path="url(#clip1_313_734)">
<g clip-path="url(#clip2_313_734)">
<path fill-rule="evenodd" clip-rule="evenodd" d="M22.6746 7.59961C20.8297 7.59961 19.0972 9.28823 17.9537 10.6124C17.8055 10.784 17.6528 10.9663 17.4996 11.1575C17.3465 10.9663 17.1937 10.784 17.0455 10.6124C15.902 9.28823 14.1695 7.59961 12.3246 7.59961C10.7206 7.59961 9.28684 8.21824 8.25515 9.23561C7.22648 10.25 6.59961 11.6594 6.59961 13.2368C6.59961 17.4005 10.5059 20.7446 16.2321 25.8649L17.5011 27.0042L18.8134 25.8349C24.5072 20.7326 28.3996 17.393 28.3996 13.2368C28.3996 11.6594 27.7727 10.25 26.7441 9.23561C25.7124 8.21824 24.2786 7.59961 22.6746 7.59961Z" stroke="#0A0A0A" stroke-width="1.2"/>
</g>
</g>
</g>
<defs>
<clipPath id="clip0_313_734">
<rect width="35" height="35" fill="white"/>
</clipPath>
<clipPath id="clip1_313_734">
<rect width="35" height="35" fill="white"/>
</clipPath>
<clipPath id="clip2_313_734">
<rect width="35" height="35" fill="white"/>
</clipPath>
</defs>
</svg>
