<svg width="15" height="16" viewBox="0 0 15 16" fill="none" xmlns="http://www.w3.org/2000/svg">
<path d="M7.19141 8.27778C8.11966 8.27778 9.0099 7.92659 9.66628 7.30147C10.3227 6.67635 10.6914 5.8285 10.6914 4.94444C10.6914 4.06039 10.3227 3.21254 9.66628 2.58742C9.0099 1.9623 8.11966 1.61111 7.19141 1.61111C6.26315 1.61111 5.37291 1.9623 4.71653 2.58742C4.06016 3.21254 3.69141 4.06039 3.69141 4.94444C3.69141 5.8285 4.06016 6.67635 4.71653 7.30147C5.37291 7.92659 6.26315 8.27778 7.19141 8.27778ZM7.19141 9.38889C5.95373 9.38889 4.76674 8.92064 3.89157 8.08714C3.0164 7.25365 2.52474 6.12318 2.52474 4.94444C2.52474 3.7657 3.0164 2.63524 3.89157 1.80175C4.76674 0.968253 5.95373 0.5 7.19141 0.5C8.42908 0.5 9.61607 0.968253 10.4912 1.80175C11.3664 2.63524 11.8581 3.7657 11.8581 4.94444C11.8581 6.12318 11.3664 7.25365 10.4912 8.08714C9.61607 8.92064 8.42908 9.38889 7.19141 9.38889ZM13.0247 14.9444V13.2778C13.0247 12.8358 12.8404 12.4118 12.5122 12.0993C12.184 11.7867 11.7389 11.6111 11.2747 11.6111H3.10807C2.64394 11.6111 2.19882 11.7867 1.87064 12.0993C1.54245 12.4118 1.35807 12.8358 1.35807 13.2778V14.9444C1.35807 15.0918 1.29661 15.2331 1.18722 15.3373C1.07782 15.4415 0.929449 15.5 0.77474 15.5C0.62003 15.5 0.471657 15.4415 0.362261 15.3373C0.252865 15.2331 0.191406 15.0918 0.191406 14.9444V13.2778C0.191406 12.5411 0.498697 11.8345 1.04568 11.3136C1.59266 10.7927 2.33452 10.5 3.10807 10.5H11.2747C12.0483 10.5 12.7902 10.7927 13.3371 11.3136C13.8841 11.8345 14.1914 12.5411 14.1914 13.2778V14.9444C14.1914 15.0918 14.1299 15.2331 14.0206 15.3373C13.9112 15.4415 13.7628 15.5 13.6081 15.5C13.4534 15.5 13.305 15.4415 13.1956 15.3373C13.0862 15.2331 13.0247 15.0918 13.0247 14.9444Z" fill="black"/>
</svg>
