<svg width="15" height="18" viewBox="0 0 15 18" fill="none" xmlns="http://www.w3.org/2000/svg">
<path d="M1.80753 18C1.34686 18 0.962528 17.846 0.654528 17.538C0.346528 17.23 0.192195 16.8457 0.191528 16.385V5.615C0.191528 5.155 0.345861 4.771 0.654528 4.463C0.963195 4.155 1.34753 4.00067 1.80753 4H3.69153V3.5C3.69153 2.528 4.03186 1.70167 4.71253 1.021C5.39319 0.340333 6.21953 0 7.19153 0C8.16353 0 8.98986 0.340333 9.67053 1.021C10.3512 1.70167 10.6915 2.528 10.6915 3.5V4H12.5765C13.0365 4 13.4205 4.15433 13.7285 4.463C14.0365 4.77167 14.1909 5.156 14.1915 5.616V16.385C14.1915 16.845 14.0372 17.2293 13.7285 17.538C13.4199 17.8467 13.0359 18.0007 12.5765 18H1.80753ZM1.80753 17H12.5765C12.7299 17 12.8709 16.936 12.9995 16.808C13.1282 16.68 13.1922 16.5387 13.1915 16.384V5.616C13.1915 5.462 13.1275 5.32067 12.9995 5.192C12.8715 5.06333 12.7302 4.99933 12.5755 5H10.6915V7.5C10.6915 7.64267 10.6439 7.76167 10.5485 7.857C10.4532 7.95233 10.3342 8 10.1915 8C10.0489 8 9.92986 7.95233 9.83453 7.857C9.73919 7.76167 9.69153 7.64267 9.69153 7.5V5H4.69153V7.5C4.69153 7.64267 4.64386 7.76167 4.54853 7.857C4.4532 7.95233 4.33419 8 4.19153 8C4.04886 8 3.92986 7.95233 3.83453 7.857C3.73919 7.76167 3.69153 7.64267 3.69153 7.5V5H1.80753C1.65353 5 1.51219 5.064 1.38353 5.192C1.25486 5.32 1.19086 5.46133 1.19153 5.616V16.385C1.19153 16.5383 1.25553 16.6793 1.38353 16.808C1.51153 16.9367 1.65253 17.0007 1.80653 17M4.69153 4H9.69153V3.5C9.69153 2.796 9.45086 2.20333 8.96953 1.722C8.48819 1.24067 7.89553 1 7.19153 1C6.48753 1 5.89486 1.24067 5.41353 1.722C4.9322 2.20333 4.69153 2.796 4.69153 3.5V4Z" fill="black"/>
</svg>
