<svg width="15" height="19" viewBox="0 0 15 19" fill="none" xmlns="http://www.w3.org/2000/svg">
<path d="M1.80741 18.5C1.34674 18.5 0.962406 18.346 0.654406 18.038C0.346406 17.73 0.192073 17.3457 0.191406 16.885V6.115C0.191406 5.655 0.345739 5.271 0.654406 4.963C0.963073 4.655 1.34741 4.50067 1.80741 4.5H3.69141V4C3.69141 3.028 4.03174 2.20167 4.71241 1.521C5.39307 0.840333 6.21941 0.5 7.19141 0.5C8.16341 0.5 8.98974 0.840333 9.67041 1.521C10.3511 2.20167 10.6914 3.028 10.6914 4V4.5H12.5764C13.0364 4.5 13.4204 4.65433 13.7284 4.963C14.0364 5.27167 14.1907 5.656 14.1914 6.116V16.885C14.1914 17.345 14.0371 17.7293 13.7284 18.038C13.4197 18.3467 13.0357 18.5007 12.5764 18.5H1.80741ZM1.80741 17.5H12.5764C12.7297 17.5 12.8707 17.436 12.9994 17.308C13.1281 17.18 13.1921 17.0387 13.1914 16.884V6.116C13.1914 5.962 13.1274 5.82067 12.9994 5.692C12.8714 5.56333 12.7301 5.49933 12.5754 5.5H10.6914V8C10.6914 8.14267 10.6437 8.26167 10.5484 8.357C10.4531 8.45233 10.3341 8.5 10.1914 8.5C10.0487 8.5 9.92974 8.45233 9.83441 8.357C9.73907 8.26167 9.69141 8.14267 9.69141 8V5.5H4.69141V8C4.69141 8.14267 4.64374 8.26167 4.54841 8.357C4.45307 8.45233 4.33407 8.5 4.19141 8.5C4.04874 8.5 3.92974 8.45233 3.83441 8.357C3.73907 8.26167 3.69141 8.14267 3.69141 8V5.5H1.80741C1.65341 5.5 1.51207 5.564 1.38341 5.692C1.25474 5.82 1.19074 5.96133 1.19141 6.116V16.885C1.19141 17.0383 1.25541 17.1793 1.38341 17.308C1.51141 17.4367 1.65241 17.5007 1.80641 17.5M4.69141 4.5H9.69141V4C9.69141 3.296 9.45074 2.70333 8.96941 2.222C8.48807 1.74067 7.89541 1.5 7.19141 1.5C6.48741 1.5 5.89474 1.74067 5.41341 2.222C4.93207 2.70333 4.69141 3.296 4.69141 4V4.5Z" fill="black"/>
</svg>
