<svg width="18" height="17" viewBox="0 0 18 17" fill="none" xmlns="http://www.w3.org/2000/svg">
<path d="M16.4855 16.6925L10.2235 10.4305C9.72347 10.8565 9.14847 11.1862 8.49847 11.4195C7.84847 11.6528 7.19514 11.7695 6.53847 11.7695C4.93714 11.7695 3.5818 11.2152 2.47247 10.1065C1.36314 8.99783 0.808472 7.64283 0.808472 6.0415C0.808472 4.44016 1.36247 3.0845 2.47047 1.9745C3.57847 0.864497 4.93314 0.308831 6.53447 0.307498C8.13581 0.306164 9.49181 0.860831 10.6025 1.9715C11.7131 3.08216 12.2685 4.43783 12.2685 6.0385C12.2685 6.73316 12.1455 7.4055 11.8995 8.0555C11.6535 8.7055 11.3301 9.2615 10.9295 9.7235L17.1915 15.9845L16.4855 16.6925ZM6.53947 10.7685C7.86614 10.7685 8.98614 10.3118 9.89947 9.3985C10.8128 8.48516 11.2695 7.36483 11.2695 6.0375C11.2695 4.71016 10.8128 3.59016 9.89947 2.6775C8.98614 1.76483 7.86614 1.30816 6.53947 1.3075C5.2128 1.30683 4.09247 1.7635 3.17847 2.6775C2.26447 3.5915 1.80781 4.7115 1.80847 6.0375C1.80914 7.3635 2.2658 8.4835 3.17847 9.3975C4.09114 10.3115 5.21114 10.7682 6.53847 10.7675" fill="black"/>
</svg>
