<svg width="51" height="51" viewBox="0 0 51 51" fill="none" xmlns="http://www.w3.org/2000/svg">
<g clip-path="url(#clip0_2_1300)">
<g clip-path="url(#clip1_2_1300)">
<path fill-rule="evenodd" clip-rule="evenodd" d="M36.75 19.9201H12.75V17.9201H36.75V19.9201Z" fill="black"/>
<path fill-rule="evenodd" clip-rule="evenodd" d="M18.7505 17.92L20.7505 12.92L22.6074 13.6628L20.6074 18.6628L18.7505 17.92Z" fill="black"/>
<path fill-rule="evenodd" clip-rule="evenodd" d="M25.7505 17.92L27.7505 12.92L29.6074 13.6628L27.6074 18.6628L25.7505 17.92Z" fill="black"/>
<path fill-rule="evenodd" clip-rule="evenodd" d="M34.75 37.9201C37.5114 37.9201 39.75 35.6815 39.75 32.9201C39.75 30.1587 37.5114 27.9201 34.75 27.9201C31.9886 27.9201 29.75 30.1587 29.75 32.9201C29.75 35.6815 31.9886 37.9201 34.75 37.9201ZM34.75 39.9201C38.616 39.9201 41.75 36.7861 41.75 32.9201C41.75 29.0541 38.616 25.9201 34.75 25.9201C30.884 25.9201 27.75 29.0541 27.75 32.9201C27.75 36.7861 30.884 39.9201 34.75 39.9201Z" fill="black"/>
<path fill-rule="evenodd" clip-rule="evenodd" d="M16.75 13.9201H31.75C33.4069 13.9201 34.75 15.2632 34.75 16.9201V25.9201C35.445 25.9201 36.1163 26.0214 36.75 26.21V16.9201C36.75 14.1587 34.5114 11.9201 31.75 11.9201H16.75C13.9886 11.9201 11.75 14.1587 11.75 16.9201V31.9201C11.75 34.6815 13.9886 36.9201 16.75 36.9201H29.0047C28.5834 36.3161 28.2549 35.6425 28.0399 34.9201H16.75C15.0931 34.9201 13.75 33.577 13.75 31.9201V16.9201C13.75 15.2632 15.0931 13.9201 16.75 13.9201Z" fill="black"/>
<path fill-rule="evenodd" clip-rule="evenodd" d="M34.75 29.9201C35.3023 29.9201 35.75 30.3678 35.75 30.9201V34.9201C35.75 35.4724 35.3023 35.9201 34.75 35.9201C34.1977 35.9201 33.75 35.4724 33.75 34.9201V30.9201C33.75 30.3678 34.1977 29.9201 34.75 29.9201Z" fill="black"/>
<path fill-rule="evenodd" clip-rule="evenodd" d="M31.75 32.9201C31.75 32.3678 32.1977 31.9201 32.75 31.9201H36.75C37.3023 31.9201 37.75 32.3678 37.75 32.9201C37.75 33.4724 37.3023 33.9201 36.75 33.9201H32.75C32.1977 33.9201 31.75 33.4724 31.75 32.9201Z" fill="black"/>
<path fill-rule="evenodd" clip-rule="evenodd" d="M25.75 26.9201L22.75 25.1881V28.6522L25.75 26.9201ZM28.25 27.7861C28.9167 27.4012 28.9167 26.439 28.25 26.0541L22.25 22.59C21.5833 22.2051 20.75 22.6862 20.75 23.456V30.3842C20.75 31.154 21.5833 31.6351 22.25 31.2502L28.25 27.7861Z" fill="black"/>
</g>
</g>
<defs>
<clipPath id="clip0_2_1300">
<rect width="50" height="50" fill="white" transform="translate(0.75 0.920105)"/>
</clipPath>
<clipPath id="clip1_2_1300">
<rect width="50" height="50" fill="white" transform="translate(0.75 0.920105)"/>
</clipPath>
</defs>
</svg>
