<svg width="51" height="51" viewBox="0 0 51 51" fill="none" xmlns="http://www.w3.org/2000/svg">
<g clip-path="url(#clip0_2_1286)">
<g clip-path="url(#clip1_2_1286)">
<path fill-rule="evenodd" clip-rule="evenodd" d="M33.5298 14.9201H18.5298C16.8729 14.9201 15.5298 16.2632 15.5298 17.9201V32.9201C15.5298 34.577 16.8729 35.9201 18.5298 35.9201H33.5298C35.1867 35.9201 36.5298 34.577 36.5298 32.9201V17.9201C36.5298 16.2632 35.1867 14.9201 33.5298 14.9201ZM18.5298 12.9201C15.7684 12.9201 13.5298 15.1587 13.5298 17.9201V32.9201C13.5298 35.6815 15.7684 37.9201 18.5298 37.9201H33.5298C36.2912 37.9201 38.5298 35.6815 38.5298 32.9201V17.9201C38.5298 15.1587 36.2912 12.9201 33.5298 12.9201H18.5298Z" fill="black"/>
<path fill-rule="evenodd" clip-rule="evenodd" d="M20.5298 18.9201H31.5298V22.9201C31.5298 23.4724 31.0821 23.9201 30.5298 23.9201C29.9775 23.9201 29.5298 23.4724 29.5298 22.9201V20.9201H22.5298V22.9201C22.5298 23.4724 22.0821 23.9201 21.5298 23.9201C20.9775 23.9201 20.5298 23.4724 20.5298 22.9201V18.9201Z" fill="black"/>
<path fill-rule="evenodd" clip-rule="evenodd" d="M26.0298 18.9201C26.5821 18.9201 27.0298 19.3678 27.0298 19.9201V29.9201C27.0298 30.4724 26.5821 30.9201 26.0298 30.9201C25.4775 30.9201 25.0298 30.4724 25.0298 29.9201V19.9201C25.0298 19.3678 25.4775 18.9201 26.0298 18.9201Z" fill="black"/>
<path fill-rule="evenodd" clip-rule="evenodd" d="M22.3296 30.9201C22.3296 30.3678 22.7773 29.9201 23.3296 29.9201H28.7296C29.2819 29.9201 29.7296 30.3678 29.7296 30.9201C29.7296 31.4724 29.2819 31.9201 28.7296 31.9201H23.3296C22.7773 31.9201 22.3296 31.4724 22.3296 30.9201Z" fill="black"/>
</g>
</g>
<defs>
<clipPath id="clip0_2_1286">
<rect width="50" height="50" fill="white" transform="translate(0.529785 0.920105)"/>
</clipPath>
<clipPath id="clip1_2_1286">
<rect width="50" height="50" fill="white" transform="translate(0.529785 0.920105)"/>
</clipPath>
</defs>
</svg>
