<svg width="35" height="35" viewBox="0 0 35 35" fill="none" xmlns="http://www.w3.org/2000/svg">
<g clip-path="url(#clip0_4_2586)">
<g clip-path="url(#clip1_4_2586)">
<g clip-path="url(#clip2_4_2586)">
<path fill-rule="evenodd" clip-rule="evenodd" d="M22.6751 7.59998C20.8302 7.59998 19.0977 9.2886 17.9542 10.6128C17.806 10.7844 17.6533 10.9666 17.5001 11.1579C17.3469 10.9666 17.1942 10.7844 17.046 10.6128C15.9025 9.2886 14.17 7.59998 12.3251 7.59998C10.7211 7.59998 9.28733 8.21861 8.25564 9.23598C7.22697 10.2504 6.6001 11.6597 6.6001 13.2372C6.6001 17.4009 10.5064 20.745 16.2325 25.8653L17.5016 27.0045L18.8138 25.8353C24.5077 20.7329 28.4001 17.3934 28.4001 13.2372C28.4001 11.6597 27.7732 10.2504 26.7446 9.23598C25.7129 8.21861 24.2791 7.59998 22.6751 7.59998Z" stroke="#0A0A0A" stroke-width="1.2"/>
</g>
</g>
</g>
<defs>
<clipPath id="clip0_4_2586">
<rect width="35" height="35" fill="white"/>
</clipPath>
<clipPath id="clip1_4_2586">
<rect width="35" height="35" fill="white"/>
</clipPath>
<clipPath id="clip2_4_2586">
<rect width="35" height="35" fill="white"/>
</clipPath>
</defs>
</svg>
