<svg width="36" height="37" viewBox="0 0 36 37" fill="none" xmlns="http://www.w3.org/2000/svg">
<g clip-path="url(#clip0_2_1935)">
<g clip-path="url(#clip1_2_1935)">
<mask id="mask0_2_1935" style="mask-type:luminance" maskUnits="userSpaceOnUse" x="0" y="0" width="36" height="37">
<path d="M0 0.5H36V36.5H0V0.5Z" fill="white"/>
</mask>
<g mask="url(#mask0_2_1935)">
<path fill-rule="evenodd" clip-rule="evenodd" d="M36 18.5C36 28.4414 27.9409 36.5 18 36.5C8.05905 36.5 0 28.4414 0 18.5C0 8.5586 8.05905 0.5 18 0.5C27.9409 0.5 36 8.5586 36 18.5Z" fill="#E9ECEF"/>
</g>
<path fill-rule="evenodd" clip-rule="evenodd" d="M10.0374 12.6113L10.1409 13.5658C10.1364 13.6963 10.1629 13.8173 10.2223 13.9289C10.2606 14.0464 10.3249 14.1472 10.4172 14.2331C10.5027 14.3245 10.603 14.3897 10.7205 14.4275C10.8325 14.4869 10.954 14.5135 11.0832 14.5085L11.3338 14.4748C11.4936 14.4302 11.6322 14.3492 11.7496 14.2331L11.8972 14.0419C11.9827 13.8952 12.0255 13.7359 12.0264 13.5658C11.9913 13.2481 11.9571 12.929 11.9229 12.6113C11.9274 12.4808 11.9004 12.3598 11.8419 12.2482C11.8042 12.1317 11.7369 12.027 11.6466 11.9444C11.5642 11.8541 11.4597 11.7869 11.3433 11.7496C11.2315 11.6909 11.1062 11.6629 10.9801 11.6686C10.8969 11.6803 10.8127 11.6911 10.7295 11.7023C10.572 11.7454 10.4285 11.8288 10.3132 11.9444L10.1665 12.1352C10.081 12.2824 10.0383 12.4408 10.0374 12.6113ZM24.247 12.7976V13.9325C24.247 14.1746 24.3519 14.4284 24.5229 14.5994C24.6084 14.6908 24.7092 14.756 24.8262 14.7943C24.9387 14.8528 25.0593 14.8798 25.1893 14.8753C25.4332 14.8645 25.6861 14.7844 25.8558 14.5994C26.025 14.4149 26.1321 14.1881 26.1321 13.9325V12.7976C26.1321 12.5564 26.0268 12.3026 25.8558 12.1316C25.7732 12.0415 25.6687 11.9742 25.5525 11.9363C25.4408 11.8774 25.3154 11.8494 25.1893 11.8553C24.9454 11.8661 24.6925 11.9462 24.5229 12.1316C24.3537 12.3157 24.247 12.5425 24.247 12.7976ZM16.3338 12.1753C15.9994 14.126 15.666 16.0781 15.3325 18.0298C15.2497 18.5135 15.4608 19.0679 15.9909 19.189C16.4472 19.2925 17.061 19.0499 17.1501 18.5311L18.1513 12.6761C18.2341 12.1924 18.0231 11.6375 17.493 11.5165C17.0362 11.413 16.422 11.6551 16.3338 12.1753ZM20.3212 23.1737C20.2492 23.0252 20.2758 22.9591 20.301 22.811C20.251 22.8898 20.2447 22.9015 20.2821 22.8457C20.3013 22.8084 20.334 22.7798 20.3734 22.7656C20.2744 22.8182 20.2677 22.8277 20.3523 22.7944C20.2944 22.8153 20.2353 22.8327 20.1754 22.8466C20.1385 22.8556 19.8789 22.8916 20.0562 22.8722C19.5544 22.928 19.0482 22.9577 18.5442 23.0005L15.4495 23.2601C14.9595 23.3015 14.4829 23.6638 14.5068 24.2024C14.5284 24.6776 14.9235 25.1888 15.4495 25.1443L19.4275 24.8113C20.08 24.7559 20.796 24.7528 21.3567 24.3703C22.0767 23.8784 22.33 23.0077 21.9489 22.2229C21.7329 21.7774 21.0642 21.623 20.6592 21.8845C20.2033 22.1788 20.0904 22.6976 20.3212 23.1737Z" fill="#CDD3D8"/>
</g>
</g>
<defs>
<clipPath id="clip0_2_1935">
<rect width="36" height="36" fill="white" transform="translate(0 0.5)"/>
</clipPath>
<clipPath id="clip1_2_1935">
<rect width="36" height="36" fill="white" transform="translate(0 0.5)"/>
</clipPath>
</defs>
</svg>
