<svg width="23" height="28" viewBox="0 0 23 28" fill="none" xmlns="http://www.w3.org/2000/svg">
<path d="M5.19953 14.125L14.482 6.67796C14.5799 6.60158 14.6577 6.51007 14.7109 6.40888C14.764 6.30769 14.7914 6.19889 14.7914 6.08896C14.7914 5.97904 14.764 5.87024 14.7109 5.76904C14.6577 5.66785 14.5799 5.57634 14.482 5.49996C14.2836 5.34287 14.0169 5.25488 13.7391 5.25488C13.4613 5.25488 13.1946 5.34287 12.9962 5.49996L2.96714 13.539C2.86926 13.6153 2.79141 13.7069 2.73825 13.808C2.68508 13.9092 2.65768 14.018 2.65768 14.128C2.65768 14.2379 2.68508 14.3467 2.73825 14.4479C2.79141 14.5491 2.86926 14.6406 2.96714 14.717L13.0036 22.677C13.2008 22.8339 13.466 22.9226 13.7428 22.924C14.0078 22.924 14.2789 22.844 14.482 22.678C14.5799 22.6016 14.6577 22.5101 14.7109 22.4089C14.764 22.3077 14.7914 22.1989 14.7914 22.089C14.7914 21.979 14.764 21.8702 14.7109 21.769C14.6577 21.6679 14.5799 21.5763 14.482 21.5L5.19953 14.125Z" fill="#222222"/>
</svg>
