<svg width="27" height="23" viewBox="0 0 27 23" fill="none" xmlns="http://www.w3.org/2000/svg">
<g clip-path="url(#clip0_19_33)">
<path d="M2.7439 3.34778H5.67479L7.91756 13.0143H17.5487L19.5666 5.37545H6.81879M16.5832 18.2992C16.7685 18.3047 16.9531 18.2729 17.1261 18.2058C17.2989 18.1387 17.4566 18.0375 17.5897 17.9083C17.7228 17.7792 17.8285 17.6245 17.9008 17.4537C17.9731 17.2829 18.0102 17.0994 18.0102 16.9138C18.0102 16.7284 17.9731 16.5447 17.9008 16.374C17.8285 16.2031 17.7228 16.0485 17.5897 15.9193C17.4566 15.7901 17.2989 15.689 17.1261 15.6218C16.9531 15.5547 16.7685 15.5229 16.5832 15.5284C16.2229 15.5392 15.8809 15.6898 15.6298 15.9484C15.3787 16.2071 15.2382 16.5534 15.2382 16.9138C15.2382 17.2743 15.3787 17.6206 15.6298 17.8793C15.8809 18.1379 16.2229 18.2886 16.5832 18.2992ZM8.80367 18.2992C8.98906 18.3047 9.17368 18.2729 9.34657 18.2058C9.51947 18.1387 9.67714 18.0375 9.81021 17.9083C9.9433 17.7792 10.0491 17.6245 10.1214 17.4537C10.1936 17.2829 10.2308 17.0994 10.2308 16.9138C10.2308 16.7284 10.1936 16.5447 10.1214 16.374C10.0491 16.2031 9.9433 16.0485 9.81021 15.9193C9.67714 15.7901 9.51947 15.689 9.34657 15.6218C9.17368 15.5547 8.98906 15.5229 8.80367 15.5284C8.44336 15.5392 8.10141 15.6898 7.85033 15.9484C7.59926 16.2071 7.45883 16.5534 7.45883 16.9138C7.45883 17.2743 7.59926 17.6206 7.85033 17.8793C8.10141 18.1379 8.44336 18.2886 8.80367 18.2992Z" stroke="#333333" stroke-width="1.22222" stroke-linecap="square" stroke-linejoin="round"/>
</g>
<defs>
<clipPath id="clip0_19_33">
<rect width="22" height="22" fill="white" transform="translate(0.86792 0.0479736)"/>
</clipPath>
</defs>
</svg>
