<svg width="27" height="23" viewBox="0 0 27 23" fill="none" xmlns="http://www.w3.org/2000/svg">
<g clip-path="url(#clip0_19_498)">
<path d="M2.62817 3.87805H5.55906L7.80184 13.5446H17.433L19.4509 5.90572H6.70306M16.4674 18.8295C16.6527 18.835 16.8374 18.8032 17.0104 18.7361C17.1832 18.669 17.3408 18.5678 17.4739 18.4386C17.607 18.3094 17.7128 18.1548 17.7851 17.984C17.8574 17.8132 17.8945 17.6296 17.8945 17.4441C17.8945 17.2587 17.8574 17.075 17.7851 16.9042C17.7128 16.7334 17.607 16.5788 17.4739 16.4496C17.3408 16.3204 17.1832 16.2193 17.0104 16.1521C16.8374 16.085 16.6527 16.0532 16.4674 16.0587C16.1071 16.0695 15.7652 16.22 15.5141 16.4787C15.2629 16.7374 15.1225 17.0837 15.1225 17.4441C15.1225 17.8045 15.2629 18.1509 15.5141 18.4095C15.7652 18.6682 16.1071 18.8188 16.4674 18.8295ZM8.68795 18.8295C8.87334 18.835 9.05795 18.8032 9.23085 18.7361C9.40375 18.669 9.56141 18.5678 9.69449 18.4386C9.82758 18.3094 9.93337 18.1548 10.0056 17.984C10.0779 17.8132 10.1151 17.6296 10.1151 17.4441C10.1151 17.2587 10.0779 17.075 10.0056 16.9042C9.93337 16.7334 9.82758 16.5788 9.69449 16.4496C9.56141 16.3204 9.40375 16.2193 9.23085 16.1521C9.05795 16.085 8.87334 16.0532 8.68795 16.0587C8.32764 16.0695 7.98569 16.22 7.73461 16.4787C7.48354 16.7374 7.3431 17.0837 7.3431 17.4441C7.3431 17.8045 7.48354 18.1509 7.73461 18.4095C7.98569 18.6682 8.32764 18.8188 8.68795 18.8295Z" stroke="#333333" stroke-width="1.22222" stroke-linecap="square" stroke-linejoin="round"/>
</g>
<defs>
<clipPath id="clip0_19_498">
<rect width="22" height="22" fill="white" transform="translate(0.752197 0.578247)"/>
</clipPath>
</defs>
</svg>
