<svg width="12" height="11" viewBox="0 0 12 11" fill="none" xmlns="http://www.w3.org/2000/svg">
<path opacity="0.5" d="M8.28409 5.5L11.6932 8.625C11.8977 8.8125 12 9.0625 12 9.3125C12 9.59375 11.8977 9.84375 11.6932 10.0312L10.9432 10.7188C10.7045 10.9062 10.4318 11 10.1591 11C9.85227 11 9.61364 10.9062 9.40909 10.7188L6 7.59375L2.59091 10.7188C2.38636 10.9062 2.11364 11 1.84091 11C1.53409 11 1.26136 10.9062 1.05682 10.7188L0.306818 10.0312C0.102273 9.84375 0 9.59375 0 9.3125C0 9.0625 0.102273 8.8125 0.306818 8.625L3.71591 5.5L0.306818 2.375C0.102273 2.1875 0 1.96875 0 1.6875C0 1.4375 0.102273 1.1875 0.306818 0.96875L1.05682 0.28125C1.26136 0.09375 1.53409 0 1.84091 0C2.11364 0 2.38636 0.09375 2.59091 0.28125L6 3.40625L9.40909 0.28125C9.61364 0.09375 9.85227 0 10.1591 0C10.4318 0 10.7045 0.09375 10.9432 0.28125L11.6932 0.96875C11.8977 1.1875 12 1.4375 12 1.6875C12 1.96875 11.8977 2.1875 11.6932 2.375L8.28409 5.5Z" fill="black"/>
</svg>
