<svg width="18" height="18" viewBox="0 0 18 18" fill="none" xmlns="http://www.w3.org/2000/svg">
<path d="M16.4856 17.1925L10.2236 10.9305C9.72359 11.3565 9.14859 11.6862 8.49859 11.9195C7.84859 12.1528 7.19526 12.2695 6.53859 12.2695C4.93726 12.2695 3.58193 11.7152 2.47259 10.6065C1.36326 9.49783 0.808594 8.14283 0.808594 6.5415C0.808594 4.94016 1.36259 3.5845 2.47059 2.4745C3.57859 1.3645 4.93326 0.808831 6.53459 0.807498C8.13593 0.806164 9.49193 1.36083 10.6026 2.4715C11.7133 3.58216 12.2686 4.93783 12.2686 6.5385C12.2686 7.23316 12.1456 7.9055 11.8996 8.5555C11.6536 9.2055 11.3303 9.7615 10.9296 10.2235L17.1916 16.4845L16.4856 17.1925ZM6.53959 11.2685C7.86626 11.2685 8.98626 10.8118 9.89959 9.8985C10.8129 8.98516 11.2696 7.86483 11.2696 6.5375C11.2696 5.21016 10.8129 4.09016 9.89959 3.1775C8.98626 2.26483 7.86626 1.80816 6.53959 1.8075C5.21293 1.80683 4.09259 2.2635 3.17859 3.1775C2.26459 4.0915 1.80793 5.2115 1.80859 6.5375C1.80926 7.8635 2.26593 8.9835 3.17859 9.8975C4.09126 10.8115 5.21126 11.2682 6.53859 11.2675" fill="black"/>
</svg>
