<svg width="14" height="18" viewBox="0 0 14 18" fill="none" xmlns="http://www.w3.org/2000/svg">
<path fill-rule="evenodd" clip-rule="evenodd" d="M7.19153 17.0195L7.82253 16.3085C8.53853 15.4885 9.18253 14.7105 9.75553 13.9705L10.2285 13.3465C12.2035 10.6855 13.1915 8.57349 13.1915 7.01249C13.1915 3.68049 10.5055 0.979492 7.19153 0.979492C3.87753 0.979492 1.19153 3.68049 1.19153 7.01249C1.19153 8.57349 2.17953 10.6855 4.15453 13.3465L4.62753 13.9705C5.44497 15.0179 6.3002 16.0342 7.19153 17.0195Z" stroke="black" stroke-linecap="round" stroke-linejoin="round"/>
<path d="M7.19153 9.47949C8.57224 9.47949 9.69153 8.3602 9.69153 6.97949C9.69153 5.59878 8.57224 4.47949 7.19153 4.47949C5.81082 4.47949 4.69153 5.59878 4.69153 6.97949C4.69153 8.3602 5.81082 9.47949 7.19153 9.47949Z" stroke="black" stroke-linecap="round" stroke-linejoin="round"/>
</svg>
