<svg width="15" height="16" viewBox="0 0 15 16" fill="none" xmlns="http://www.w3.org/2000/svg">
<path d="M7.19153 8.27778C8.11979 8.27778 9.01003 7.92659 9.6664 7.30147C10.3228 6.67635 10.6915 5.8285 10.6915 4.94444C10.6915 4.06039 10.3228 3.21254 9.6664 2.58742C9.01003 1.9623 8.11979 1.61111 7.19153 1.61111C6.26327 1.61111 5.37303 1.9623 4.71665 2.58742C4.06028 3.21254 3.69153 4.06039 3.69153 4.94444C3.69153 5.8285 4.06028 6.67635 4.71665 7.30147C5.37303 7.92659 6.26327 8.27778 7.19153 8.27778ZM7.19153 9.38889C5.95385 9.38889 4.76687 8.92064 3.8917 8.08714C3.01653 7.25365 2.52486 6.12318 2.52486 4.94444C2.52486 3.7657 3.01653 2.63524 3.8917 1.80175C4.76687 0.968253 5.95385 0.5 7.19153 0.5C8.4292 0.5 9.61619 0.968253 10.4914 1.80175C11.3665 2.63524 11.8582 3.7657 11.8582 4.94444C11.8582 6.12318 11.3665 7.25365 10.4914 8.08714C9.61619 8.92064 8.4292 9.38889 7.19153 9.38889ZM13.0249 14.9444V13.2778C13.0249 12.8358 12.8405 12.4118 12.5123 12.0993C12.1841 11.7867 11.739 11.6111 11.2749 11.6111H3.10819C2.64407 11.6111 2.19895 11.7867 1.87076 12.0993C1.54257 12.4118 1.35819 12.8358 1.35819 13.2778V14.9444C1.35819 15.0918 1.29674 15.2331 1.18734 15.3373C1.07794 15.4415 0.929571 15.5 0.774862 15.5C0.620152 15.5 0.471779 15.4415 0.362383 15.3373C0.252987 15.2331 0.191528 15.0918 0.191528 14.9444V13.2778C0.191528 12.5411 0.498819 11.8345 1.0458 11.3136C1.59278 10.7927 2.33465 10.5 3.10819 10.5H11.2749C12.0484 10.5 12.7903 10.7927 13.3373 11.3136C13.8842 11.8345 14.1915 12.5411 14.1915 13.2778V14.9444C14.1915 15.0918 14.1301 15.2331 14.0207 15.3373C13.9113 15.4415 13.7629 15.5 13.6082 15.5C13.4535 15.5 13.3051 15.4415 13.1957 15.3373C13.0863 15.2331 13.0249 15.0918 13.0249 14.9444Z" fill="black"/>
</svg>
