<svg width="18" height="28" viewBox="0 0 18 28" fill="none" xmlns="http://www.w3.org/2000/svg">
<g clip-path="url(#clip0_0_2266)">
<path d="M4.19941 14.125L11.6964 6.67796C11.7755 6.60158 11.8383 6.51007 11.8813 6.40888C11.9242 6.30769 11.9463 6.19889 11.9463 6.08896C11.9463 5.97904 11.9242 5.87024 11.8813 5.76904C11.8383 5.66785 11.7755 5.57634 11.6964 5.49996C11.5362 5.34287 11.3208 5.25488 11.0964 5.25488C10.872 5.25488 10.6566 5.34287 10.4964 5.49996L2.39641 13.539C2.31736 13.6153 2.25449 13.7069 2.21155 13.808C2.16861 13.9092 2.14648 14.018 2.14648 14.128C2.14648 14.2379 2.16861 14.3467 2.21155 14.4479C2.25449 14.5491 2.31736 14.6406 2.39641 14.717L10.5024 22.677C10.6616 22.8339 10.8758 22.9226 11.0994 22.924C11.3134 22.924 11.5324 22.844 11.6964 22.678C11.7755 22.6016 11.8383 22.5101 11.8813 22.4089C11.9242 22.3077 11.9463 22.1989 11.9463 22.089C11.9463 21.979 11.9242 21.8702 11.8813 21.769C11.8383 21.6679 11.7755 21.5763 11.6964 21.5L4.19941 14.125Z" fill="#222222"/>
</g>
<defs>
<clipPath id="clip0_0_2266">
<rect width="18" height="28" fill="white"/>
</clipPath>
</defs>
</svg>
