<svg width="35" height="35" viewBox="0 0 35 35" fill="none" xmlns="http://www.w3.org/2000/svg">
<g clip-path="url(#clip0_0_2541)">
<g clip-path="url(#clip1_0_2541)">
<g clip-path="url(#clip2_0_2541)">
<path d="M20.5 11.5L14 15.721" stroke="#0A0A0A" stroke-width="1.2"/>
<path d="M20.5 23.1101L14 18.8891" stroke="#0A0A0A" stroke-width="1.2"/>
<path d="M11 20C12.6569 20 14 18.6569 14 17C14 15.3431 12.6569 14 11 14C9.34315 14 8 15.3431 8 17C8 18.6569 9.34315 20 11 20Z" stroke="#0A0A0A" stroke-width="1.2"/>
<path d="M23 27C24.6569 27 26 25.6569 26 24C26 22.3431 24.6569 21 23 21C21.3431 21 20 22.3431 20 24C20 25.6569 21.3431 27 23 27Z" stroke="#0A0A0A" stroke-width="1.2"/>
<path d="M23 13C24.6569 13 26 11.6569 26 10C26 8.34315 24.6569 7 23 7C21.3431 7 20 8.34315 20 10C20 11.6569 21.3431 13 23 13Z" stroke="#0A0A0A" stroke-width="1.2"/>
</g>
</g>
</g>
<defs>
<clipPath id="clip0_0_2541">
<rect width="35" height="35" fill="white"/>
</clipPath>
<clipPath id="clip1_0_2541">
<rect width="35" height="35" fill="white"/>
</clipPath>
<clipPath id="clip2_0_2541">
<rect width="35" height="35" fill="white"/>
</clipPath>
</defs>
</svg>
