<svg width="25" height="25" viewBox="0 0 25 25" fill="none" xmlns="http://www.w3.org/2000/svg">
<g clip-path="url(#clip0_2_2133)">
<path d="M22.25 19.25H11.75L5.75 23.75V19.25H2.75C2.35218 19.25 1.97064 19.092 1.68934 18.8107C1.40804 18.5294 1.25 18.1478 1.25 17.75V2.75C1.25 2.35218 1.40804 1.97064 1.68934 1.68934C1.97064 1.40804 2.35218 1.25 2.75 1.25H22.25C22.6478 1.25 23.0294 1.40804 23.3107 1.68934C23.592 1.97064 23.75 2.35218 23.75 2.75V17.75C23.75 18.1478 23.592 18.5294 23.3107 18.8107C23.0294 19.092 22.6478 19.25 22.25 19.25Z" stroke="black" stroke-width="1.5" stroke-linecap="round" stroke-linejoin="round"/>
<path d="M10.25 7.25004C10.2501 6.70007 10.4014 6.16071 10.6873 5.6909C10.9733 5.2211 11.3828 4.83894 11.8713 4.58619C12.3597 4.33344 12.9083 4.21982 13.4569 4.25776C14.0056 4.29569 14.5333 4.48372 14.9823 4.80129C15.4313 5.11886 15.7844 5.55375 16.0029 6.05843C16.2215 6.56311 16.2971 7.11816 16.2215 7.66291C16.1459 8.20766 15.9221 8.72116 15.5744 9.14727C15.2267 9.57338 14.7685 9.89571 14.25 10.079C13.9576 10.1824 13.7044 10.3739 13.5253 10.6272C13.3462 10.8804 13.25 11.1829 13.25 11.4931V11.7501" stroke="black" stroke-width="1.5" stroke-linecap="round" stroke-linejoin="round"/>
<path d="M13.25 15.5C13.0429 15.5 12.875 15.3321 12.875 15.125C12.875 14.9179 13.0429 14.75 13.25 14.75" stroke="black" stroke-width="1.5"/>
<path d="M13.25 15.5C13.4571 15.5 13.625 15.3321 13.625 15.125C13.625 14.9179 13.4571 14.75 13.25 14.75" stroke="black" stroke-width="1.5"/>
</g>
<defs>
<clipPath id="clip0_2_2133">
<rect width="24" height="24" fill="white" transform="translate(0.5 0.5)"/>
</clipPath>
</defs>
</svg>
