<svg width="51" height="51" viewBox="0 0 51 51" fill="none" xmlns="http://www.w3.org/2000/svg">
<g clip-path="url(#clip0_2_1294)">
<g clip-path="url(#clip1_2_1294)">
<path d="M33.0601 13.9201H18.0601C15.8509 13.9201 14.0601 15.711 14.0601 17.9201V32.9201C14.0601 35.1292 15.8509 36.9201 18.0601 36.9201H33.0601C35.2692 36.9201 37.0601 35.1292 37.0601 32.9201V17.9201C37.0601 15.711 35.2692 13.9201 33.0601 13.9201Z" stroke="black" stroke-width="2"/>
<path d="M16.85 27.9201H18.31V22.3201H16.85V27.9201ZM17.59 21.4201C18.09 21.4201 18.46 21.0801 18.46 20.6201C18.46 20.1401 18.09 19.8201 17.59 19.8201C17.08 19.8201 16.71 20.1401 16.71 20.6201C16.71 21.0801 17.08 21.4201 17.59 21.4201ZM19.8471 27.9201H21.3071V24.0701C21.7071 23.6501 22.0671 23.4401 22.3871 23.4401C22.9171 23.4401 23.1671 23.7501 23.1671 24.6101V27.9201H24.6371V24.0701C25.0371 23.6501 25.3971 23.4401 25.7171 23.4401C26.2471 23.4401 26.4971 23.7501 26.4971 24.6101V27.9201H27.9671V24.4301C27.9671 23.0201 27.4171 22.1801 26.2271 22.1801C25.4971 22.1801 24.9571 22.6201 24.4471 23.1601C24.1771 22.5401 23.7071 22.1801 22.9071 22.1801C22.1771 22.1801 21.6571 22.5801 21.1871 23.0701H21.1471L21.0471 22.3201H19.8471V27.9201ZM31.4158 30.3501C33.2858 30.3501 34.4558 29.4901 34.4558 28.3601C34.4558 27.3801 33.7258 26.9601 32.3758 26.9601H31.4258C30.7658 26.9601 30.5458 26.8001 30.5458 26.5001C30.5458 26.2801 30.6258 26.1501 30.7858 26.0201C31.0258 26.1001 31.2858 26.1501 31.5058 26.1501C32.7058 26.1501 33.6658 25.5101 33.6658 24.2501C33.6658 23.9001 33.5558 23.5901 33.4058 23.4001H34.3658V22.3201H32.3458C32.1158 22.2401 31.8158 22.1801 31.5058 22.1801C30.3158 22.1801 29.2458 22.8901 29.2458 24.2101C29.2458 24.8601 29.6058 25.3901 29.9858 25.6701V25.7101C29.6558 25.9501 29.3658 26.3401 29.3658 26.7601C29.3658 27.2201 29.5858 27.5101 29.8758 27.7001V27.7501C29.3658 28.0401 29.0758 28.4401 29.0758 28.9101C29.0758 29.9001 30.0958 30.3501 31.4158 30.3501ZM31.5058 25.2401C31.0158 25.2401 30.6258 24.8701 30.6258 24.2101C30.6258 23.5501 31.0058 23.1801 31.5058 23.1801C32.0058 23.1801 32.3758 23.5501 32.3758 24.2101C32.3758 24.8701 31.9958 25.2401 31.5058 25.2401ZM31.6358 29.4201C30.8158 29.4201 30.2958 29.1501 30.2958 28.6801C30.2958 28.4501 30.4158 28.2301 30.6658 28.0301C30.8658 28.0801 31.1058 28.1101 31.4458 28.1101H32.1258C32.7258 28.1101 33.0558 28.2101 33.0558 28.6101C33.0558 29.0501 32.4758 29.4201 31.6358 29.4201Z" fill="black"/>
</g>
</g>
<defs>
<clipPath id="clip0_2_1294">
<rect width="50" height="50" fill="white" transform="translate(0.0600586 0.920105)"/>
</clipPath>
<clipPath id="clip1_2_1294">
<rect width="50" height="50" fill="white" transform="translate(0.0600586 0.920105)"/>
</clipPath>
</defs>
</svg>
