<svg width="21" height="21" viewBox="0 0 21 21" fill="none" xmlns="http://www.w3.org/2000/svg">
<g clip-path="url(#clip0_2_6782)">
<path d="M11.3677 5.9434C11.3677 5.9434 15.9753 0.288641 15.9753 5.9434M11.3677 5.9434C11.3677 5.9434 6.76013 0.288641 6.76013 5.9434M11.3677 5.9434V10.1321M5.0186 10.1321H17.717C18.3745 10.1321 18.9075 9.59914 18.9075 8.94165V7.1339C18.9075 6.47641 18.3745 5.94342 17.717 5.94342H5.0186C4.36112 5.94342 3.82812 6.47641 3.82812 7.1339V8.94166C3.82812 9.59914 4.36112 10.1321 5.0186 10.1321ZM4.66595 10.1321H18.0698V16.1286C18.0698 17.4436 17.0039 18.5096 15.6888 18.5096H7.04691C5.73193 18.5096 4.66595 17.4436 4.66595 16.1286V10.1321Z" stroke="#F27935" stroke-width="1.14286" stroke-linecap="round" stroke-linejoin="round"/>
</g>
<defs>
<clipPath id="clip0_2_6782">
<rect width="20" height="20" fill="white" transform="translate(0.909912 0.969971)"/>
</clipPath>
</defs>
</svg>
