<svg width="16" height="17" viewBox="0 0 16 17" fill="none" xmlns="http://www.w3.org/2000/svg">
<g clip-path="url(#clip0_2_1585)">
<g clip-path="url(#clip1_2_1585)">
<path d="M7.99993 13.997L4.18993 16.352C3.72093 16.642 3.10793 16.492 2.82093 16.0175C2.68393 15.7905 2.64193 15.5175 2.70243 15.258L3.73793 10.863L0.347929 7.92396C0.147136 7.74863 0.0232469 7.50145 0.0029524 7.23566C-0.0173421 6.96986 0.067582 6.70674 0.239429 6.50296C0.323803 6.40299 0.427082 6.32065 0.543342 6.26068C0.659602 6.2007 0.786558 6.16427 0.916929 6.15346L5.36593 5.79296L7.08043 1.62046C7.15461 1.43736 7.28178 1.28059 7.44563 1.17022C7.60948 1.05986 7.80255 1.00092 8.0001 1.00098C8.19765 1.00103 8.39069 1.06007 8.55448 1.17052C8.71826 1.28098 8.84534 1.43782 8.91943 1.62096L10.6334 5.79296L15.0834 6.15346C15.3483 6.17673 15.5932 6.30404 15.7644 6.5075C15.9356 6.71096 16.0192 6.97398 15.9969 7.23896C15.9762 7.5037 15.8523 7.7497 15.6519 7.92396L12.2614 10.863L13.2974 15.258C13.3597 15.5168 13.3171 15.7898 13.1789 16.0173C13.0408 16.2449 12.8183 16.4087 12.5599 16.473C12.4331 16.5033 12.3015 16.5082 12.1728 16.4873C12.044 16.4665 11.9207 16.4203 11.8099 16.3515L7.99993 13.997Z" fill="#FFBE1A"/>
</g>
</g>
<defs>
<clipPath id="clip0_2_1585">
<rect width="16" height="16" fill="white" transform="translate(0 0.5)"/>
</clipPath>
<clipPath id="clip1_2_1585">
<rect width="16" height="16" fill="white" transform="translate(0 0.5)"/>
</clipPath>
</defs>
</svg>
