<svg width="15" height="17" viewBox="0 0 15 17" fill="none" xmlns="http://www.w3.org/2000/svg">
<mask id="mask0_2_5376" style="mask-type:luminance" maskUnits="userSpaceOnUse" x="1" y="3" width="13" height="13">
<path fill-rule="evenodd" clip-rule="evenodd" d="M3.21415 3.64258C2.03068 3.64258 1.07129 4.60197 1.07129 5.78544V10.7912C1.07129 11.9746 2.03068 12.934 3.21415 12.934H5.47713L6.78931 15.1768C6.99618 15.5305 7.50723 15.5305 7.71409 15.1768L9.02627 12.934H11.2499C12.4334 12.934 13.3927 11.9746 13.3927 10.7912V5.78544C13.3927 4.60197 12.4334 3.64258 11.2499 3.64258H3.21415Z" fill="white"/>
</mask>
<g mask="url(#mask0_2_5376)">
<path d="M5.47712 12.9339L6.40191 12.3928L6.0916 11.8625H5.47712V12.9339ZM9.02626 12.9339V11.8625H8.41177L8.10148 12.3928L9.02626 12.9339ZM2.1427 5.78533C2.1427 5.1936 2.6224 4.7139 3.21413 4.7139V2.57104C1.43894 2.57104 -0.000152588 4.01013 -0.000152588 5.78533H2.1427ZM2.1427 10.7911V5.78533H-0.000152588V10.7911H2.1427ZM3.21413 11.8625C2.6224 11.8625 2.1427 11.3828 2.1427 10.7911H-0.000152588C-0.000152588 12.5663 1.43894 14.0053 3.21413 14.0053V11.8625ZM5.47712 11.8625H3.21413V14.0053H5.47712V11.8625ZM7.71408 14.6358L6.40191 12.3928L4.55234 13.475L5.86452 15.7178L7.71408 14.6358ZM6.7893 14.6358C6.99617 14.2822 7.50722 14.2822 7.71408 14.6358L5.86452 15.7178C6.48511 16.7786 8.01827 16.7786 8.63887 15.7178L6.7893 14.6358ZM8.10148 12.3928L6.7893 14.6358L8.63887 15.7178L9.95105 13.475L8.10148 12.3928ZM11.2498 11.8625H9.02626V14.0053H11.2498V11.8625ZM12.3213 10.7911C12.3213 11.3828 11.8416 11.8625 11.2498 11.8625V14.0053C13.0251 14.0053 14.4641 12.5663 14.4641 10.7911H12.3213ZM12.3213 5.78533V10.7911H14.4641V5.78533H12.3213ZM11.2498 4.7139C11.8416 4.7139 12.3213 5.1936 12.3213 5.78533H14.4641C14.4641 4.01013 13.0251 2.57104 11.2498 2.57104V4.7139ZM3.21413 4.7139H11.2498V2.57104H3.21413V4.7139Z" fill="#999999"/>
</g>
<path d="M4.66099 8.92355C5.10479 8.92355 5.46456 8.56378 5.46456 8.11998C5.46456 7.67618 5.10479 7.31641 4.66099 7.31641C4.21719 7.31641 3.85742 7.67618 3.85742 8.11998C3.85742 8.56378 4.21719 8.92355 4.66099 8.92355Z" fill="#999999"/>
<path d="M7.23213 8.92355C7.67593 8.92355 8.0357 8.56378 8.0357 8.11998C8.0357 7.67618 7.67593 7.31641 7.23213 7.31641C6.78833 7.31641 6.42856 7.67618 6.42856 8.11998C6.42856 8.56378 6.78833 8.92355 7.23213 8.92355Z" fill="#999999"/>
<path d="M9.8036 8.92355C10.2474 8.92355 10.6072 8.56378 10.6072 8.11998C10.6072 7.67618 10.2474 7.31641 9.8036 7.31641C9.3598 7.31641 9.00003 7.67618 9.00003 8.11998C9.00003 8.56378 9.3598 8.92355 9.8036 8.92355Z" fill="#999999"/>
</svg>
