<svg width="16" height="17" viewBox="0 0 16 17" fill="none" xmlns="http://www.w3.org/2000/svg">
<mask id="mask0_19_79" style="mask-type:luminance" maskUnits="userSpaceOnUse" x="1" y="3" width="13" height="13">
<path fill-rule="evenodd" clip-rule="evenodd" d="M3.32987 3.27136C2.1464 3.27136 1.18701 4.23075 1.18701 5.41422V10.4199C1.18701 11.6034 2.1464 12.5628 3.32987 12.5628H5.59285L6.90503 14.8056C7.1119 15.1593 7.62295 15.1593 7.82982 14.8056L9.14199 12.5628H11.3656C12.5491 12.5628 13.5084 11.6034 13.5084 10.4199V5.41422C13.5084 4.23075 12.5491 3.27136 11.3656 3.27136H3.32987Z" fill="white"/>
</mask>
<g mask="url(#mask0_19_79)">
<path d="M5.59287 12.5628L6.51766 12.0217L6.20736 11.4914H5.59287V12.5628ZM9.14201 12.5628V11.4914H8.52752L8.21723 12.0217L9.14201 12.5628ZM2.25846 5.41424C2.25846 4.82251 2.73816 4.34281 3.32989 4.34281V2.19995C1.55469 2.19995 0.115601 3.63904 0.115601 5.41424H2.25846ZM2.25846 10.42V5.41424H0.115601V10.42H2.25846ZM3.32989 11.4914C2.73816 11.4914 2.25846 11.0117 2.25846 10.42H0.115601C0.115601 12.1952 1.55469 13.6342 3.32989 13.6342V11.4914ZM5.59287 11.4914H3.32989V13.6342H5.59287V11.4914ZM7.82983 14.2647L6.51766 12.0217L4.66809 13.1039L5.98027 15.3467L7.82983 14.2647ZM6.90505 14.2647C7.11192 13.9111 7.62297 13.9111 7.82983 14.2647L5.98027 15.3467C6.60086 16.4075 8.13402 16.4075 8.75463 15.3467L6.90505 14.2647ZM8.21723 12.0217L6.90505 14.2647L8.75463 15.3467L10.0668 13.1039L8.21723 12.0217ZM11.3656 11.4914H9.14201V13.6342H11.3656V11.4914ZM12.437 10.42C12.437 11.0117 11.9573 11.4914 11.3656 11.4914V13.6342C13.1409 13.6342 14.5799 12.1952 14.5799 10.42H12.437ZM12.437 5.41424V10.42H14.5799V5.41424H12.437ZM11.3656 4.34281C11.9573 4.34281 12.437 4.82251 12.437 5.41424H14.5799C14.5799 3.63904 13.1409 2.19995 11.3656 2.19995V4.34281ZM3.32989 4.34281H11.3656V2.19995H3.32989V4.34281Z" fill="#999999"/>
</g>
<path d="M4.77672 8.55233C5.22052 8.55233 5.58029 8.19256 5.58029 7.74876C5.58029 7.30496 5.22052 6.94519 4.77672 6.94519C4.33292 6.94519 3.97314 7.30496 3.97314 7.74876C3.97314 8.19256 4.33292 8.55233 4.77672 8.55233Z" fill="#999999"/>
<path d="M7.34788 8.55246C7.79168 8.55246 8.15145 8.19268 8.15145 7.74888C8.15145 7.30508 7.79168 6.94531 7.34788 6.94531C6.90408 6.94531 6.54431 7.30508 6.54431 7.74888C6.54431 8.19268 6.90408 8.55246 7.34788 8.55246Z" fill="#999999"/>
<path d="M9.91929 8.55246C10.3631 8.55246 10.7229 8.19268 10.7229 7.74888C10.7229 7.30508 10.3631 6.94531 9.91929 6.94531C9.47549 6.94531 9.11572 7.30508 9.11572 7.74888C9.11572 8.19268 9.47549 8.55246 9.91929 8.55246Z" fill="#999999"/>
</svg>
