<svg width="328" height="40" viewBox="0 0 328 40" fill="none" xmlns="http://www.w3.org/2000/svg">
<mask id="mask0_4_315" style="mask-type:alpha" maskUnits="userSpaceOnUse" x="0" y="0" width="328" height="40">
<rect width="328" height="40" fill="url(#paint0_linear_4_315)"/>
</mask>
<g mask="url(#mask0_4_315)">
<mask id="mask1_4_315" style="mask-type:alpha" maskUnits="userSpaceOnUse" x="0" y="0" width="328" height="40">
<rect width="328" height="40" fill="url(#paint1_linear_4_315)"/>
</mask>
<g mask="url(#mask1_4_315)">
</g>
<path d="M19.9211 23.488H31.3871V24.454H19.9211V23.488ZM25.0171 20.422H26.1651V23.81H25.0171V20.422ZM24.9891 14.276H25.9971V15.256C25.9971 17.958 23.4071 20.044 20.8591 20.576L20.3691 19.61C22.5951 19.204 24.9891 17.342 24.9891 15.256V14.276ZM25.1991 14.276H26.2071V15.256C26.2071 17.356 28.6151 19.204 30.8411 19.61L30.3371 20.576C27.7891 20.044 25.1991 17.958 25.1991 15.256V14.276ZM42.404 13.436H43.524V26.092H42.404V13.436ZM40.36 18.518H42.782V19.47H40.36V18.518ZM37.084 15.06H38.204C38.204 18.322 37.084 21.346 33.472 23.376L32.786 22.55C35.964 20.772 37.084 18.21 37.084 15.284V15.06ZM33.276 15.06H37.476V16.026H33.276V15.06ZM39.59 13.772H40.696V25.476H39.59V13.772Z" fill="white" fill-opacity="0.5"/>
<path d="M19.9211 23.488H31.3871V24.454H19.9211V23.488ZM25.0171 20.422H26.1651V23.81H25.0171V20.422ZM24.9891 14.276H25.9971V15.256C25.9971 17.958 23.4071 20.044 20.8591 20.576L20.3691 19.61C22.5951 19.204 24.9891 17.342 24.9891 15.256V14.276ZM25.1991 14.276H26.2071V15.256C26.2071 17.356 28.6151 19.204 30.8411 19.61L30.3371 20.576C27.7891 20.044 25.1991 17.958 25.1991 15.256V14.276ZM42.404 13.436H43.524V26.092H42.404V13.436ZM40.36 18.518H42.782V19.47H40.36V18.518ZM37.084 15.06H38.204C38.204 18.322 37.084 21.346 33.472 23.376L32.786 22.55C35.964 20.772 37.084 18.21 37.084 15.284V15.06ZM33.276 15.06H37.476V16.026H33.276V15.06ZM39.59 13.772H40.696V25.476H39.59V13.772Z" fill="white" fill-opacity="0.5"/>
<path d="M67.3122 20.982H68.4742V26.092H67.3122V20.982ZM71.8342 20.982H73.0102V26.092H71.8342V20.982ZM64.4282 20.828H75.9082V21.78H64.4282V20.828ZM65.8702 13.926H67.0322V15.62H73.2902V13.926H74.4382V19.344H65.8702V13.926ZM67.0322 16.572V18.378H73.2902V16.572H67.0322ZM78.1191 22.088H79.1271C81.4931 22.088 83.1451 22.018 85.0911 21.696L85.2031 22.634C83.2151 22.984 81.5351 23.054 79.1271 23.054H78.1191V22.088ZM78.1191 14.584H84.2511V15.55H79.2671V22.424H78.1191V14.584ZM78.9871 18.126H83.7891V19.064H78.9871V18.126ZM86.5331 13.436H87.6951V26.092H86.5331V13.436ZM95.268 14.304H96.276V15.27C96.276 18.028 93.714 20.17 91.18 20.744L90.662 19.778C92.888 19.358 95.268 17.426 95.268 15.27V14.304ZM95.478 14.304H96.486V15.27C96.486 17.44 98.88 19.358 101.092 19.778L100.574 20.744C98.054 20.17 95.478 18.042 95.478 15.27V14.304ZM90.2 23.432H101.666V24.384H90.2V23.432ZM104.549 20.254H113.243V21.192H104.549V20.254ZM103.079 23.502H114.545V24.468H103.079V23.502ZM104.549 14.514H113.103V15.466H105.725V20.548H104.549V14.514ZM105.347 17.342H112.837V18.266H105.347V17.342Z" fill="white"/>
<path d="M213.475 13.422H214.651V26.092H213.475V13.422ZM214.329 18.56H216.667V19.526H214.329V18.56ZM210.241 14.794H211.375C211.375 18.392 209.723 21.64 205.635 23.698L204.991 22.802C208.491 21.024 210.241 18.322 210.241 14.976V14.794ZM205.579 14.794H210.843V15.746H205.579V14.794ZM223.19 14.29H224.408C224.408 17.51 222.126 19.806 218.444 20.814L217.982 19.904C221.23 19.008 223.19 17.146 223.19 14.794V14.29ZM218.626 14.29H223.904V15.228H218.626V14.29ZM219.76 21.556H228.202V26.064H227.04V22.494H219.76V21.556ZM227.04 13.436H228.202V20.982H227.04V13.436ZM223.89 15.69H227.278V16.642H223.89V15.69ZM223.764 18.378H227.194V19.33H223.764V18.378Z" fill="white" fill-opacity="0.5"/>
<path d="M249.553 13.436H250.673V26.092H249.553V13.436ZM247.229 13.702H248.321V25.462H247.229V13.702ZM245.479 17.72H247.733V18.658H245.479V17.72ZM245.381 20.618H247.649V21.556H245.381V20.618ZM239.893 15.606H246.123V16.544H239.893V15.606ZM242.987 17.412C244.527 17.412 245.647 18.602 245.647 20.338C245.647 22.06 244.527 23.264 242.987 23.264C241.461 23.264 240.341 22.06 240.341 20.338C240.341 18.602 241.461 17.412 242.987 17.412ZM242.987 18.392C242.049 18.392 241.363 19.19 241.363 20.338C241.363 21.472 242.049 22.27 242.987 22.27C243.939 22.27 244.611 21.472 244.611 20.338C244.611 19.19 243.939 18.392 242.987 18.392ZM242.427 13.758H243.575V16.138H242.427V13.758ZM253.332 19.484H254.144C256.132 19.484 257.308 19.442 258.722 19.162L258.834 20.114C257.378 20.394 256.174 20.45 254.144 20.45H253.332V19.484ZM253.332 14.36H258.232V15.312H254.452V20.002H253.332V14.36ZM254.102 16.88H258.078V17.79H254.102V16.88ZM262.348 13.436H263.454V21.108H262.348V13.436ZM260.304 16.74H262.698V17.692H260.304V16.74ZM259.562 13.674H260.654V21.038H259.562V13.674ZM254.97 21.78H263.454V26.092H262.306V22.732H254.97V21.78Z" fill="white" fill-opacity="0.5"/>
<path d="M280.51 14.304H281.518V15.27C281.518 18.028 278.956 20.17 276.422 20.744L275.904 19.778C278.13 19.358 280.51 17.426 280.51 15.27V14.304ZM280.72 14.304H281.728V15.27C281.728 17.44 284.122 19.358 286.334 19.778L285.816 20.744C283.296 20.17 280.72 18.042 280.72 15.27V14.304ZM275.442 23.432H286.908V24.384H275.442V23.432ZM288.853 22.088H289.847C292.185 22.088 293.795 22.032 295.699 21.696L295.825 22.648C293.865 22.984 292.213 23.054 289.847 23.054H288.853V22.088ZM288.853 14.584H294.747V15.55H290.015V22.424H288.853V14.584ZM289.721 18.126H294.467V19.064H289.721V18.126ZM296.875 13.436H298.051V26.092H296.875V13.436ZM297.771 18.518H300.123V19.498H297.771V18.518ZM304.742 13.898C306.632 13.898 308.018 15.046 308.018 16.712C308.018 18.364 306.632 19.512 304.742 19.512C302.866 19.512 301.48 18.364 301.48 16.712C301.48 15.046 302.866 13.898 304.742 13.898ZM304.742 14.85C303.524 14.85 302.6 15.62 302.6 16.712C302.6 17.804 303.524 18.56 304.742 18.56C305.974 18.56 306.884 17.804 306.884 16.712C306.884 15.62 305.974 14.85 304.742 14.85ZM310.398 13.436H311.574V19.918H310.398V13.436ZM303.384 20.534H311.574V23.614H304.546V25.518H303.412V22.746H310.426V21.472H303.384V20.534ZM303.412 25H311.994V25.924H303.412V25ZM319.203 20.254H320.351V22.438H319.203V20.254ZM314.065 19.624H325.503V20.576H314.065V19.624ZM315.339 22.046H324.089V26.092H322.927V22.984H315.339V22.046ZM315.591 13.73H316.739V15.158H322.857V13.73H324.019V18.462H315.591V13.73ZM316.739 16.068V17.538H322.857V16.068H316.739Z" fill="white" fill-opacity="0.5"/>
<path d="M133 19.5C133 10.9396 139.94 4 148.5 4H180.5C189.06 4 196 10.9396 196 19.5C196 28.0604 189.06 35 180.5 35H148.5C139.94 35 133 28.0604 133 19.5Z" fill="#BC9F73"/>
<path d="M144.954 16.138H147.11V17.636H144.954V16.138ZM144.954 20.142H147.11V21.654H144.954V20.142ZM149.168 13.282H150.946V26.246H149.168V13.282ZM146.578 13.478H148.314V25.658H146.578V13.478ZM142.714 14.192C144.436 14.192 145.542 15.97 145.542 18.896C145.542 21.836 144.436 23.614 142.714 23.614C141.006 23.614 139.914 21.836 139.914 18.896C139.914 15.97 141.006 14.192 142.714 14.192ZM142.714 15.942C142 15.942 141.58 16.922 141.58 18.896C141.58 20.884 142 21.85 142.714 21.85C143.442 21.85 143.862 20.884 143.862 18.896C143.862 16.922 143.442 15.942 142.714 15.942ZM162.313 14.962H164.553V16.488H162.313V14.962ZM162.313 17.776H164.553V19.302H162.313V17.776ZM161.025 13.282H162.887V20.926H161.025V13.282ZM154.235 21.458H162.887V26.246H161.025V22.942H154.235V21.458ZM156.293 13.982C158.295 13.982 159.821 15.312 159.821 17.16C159.821 19.008 158.295 20.324 156.293 20.324C154.291 20.324 152.765 19.008 152.765 17.16C152.765 15.312 154.291 13.982 156.293 13.982ZM156.293 15.564C155.313 15.564 154.585 16.138 154.585 17.16C154.585 18.182 155.313 18.77 156.293 18.77C157.273 18.77 158.001 18.182 158.001 17.16C158.001 16.138 157.273 15.564 156.293 15.564ZM173.876 13.282H175.724V26.246H173.876V13.282ZM175.304 18.336H177.6V19.89H175.304V18.336ZM165.504 15.2H173.05V16.684H165.504V15.2ZM169.298 17.412C171.188 17.412 172.588 18.7 172.588 20.506C172.588 22.312 171.188 23.6 169.298 23.6C167.408 23.6 166.008 22.312 166.008 20.506C166.008 18.7 167.408 17.412 169.298 17.412ZM169.298 18.924C168.416 18.924 167.786 19.512 167.786 20.506C167.786 21.5 168.416 22.088 169.298 22.088C170.18 22.088 170.81 21.5 170.81 20.506C170.81 19.512 170.18 18.924 169.298 18.924ZM168.36 13.492H170.222V15.76H168.36V13.492ZM187.371 13.282H189.247V26.246H187.371V13.282ZM183.549 14.626H185.397C185.397 18.588 184.053 21.836 179.447 24.062L178.481 22.578C182.205 20.786 183.549 18.434 183.549 14.962V14.626ZM179.167 14.626H184.431V16.096H179.167V14.626Z" fill="white"/>
</g>
<defs>
<linearGradient id="paint0_linear_4_315" x1="328" y1="20" x2="0" y2="20" gradientUnits="userSpaceOnUse">
<stop stop-opacity="0"/>
<stop/>
<stop offset="0.926829"/>
<stop offset="1" stop-opacity="0"/>
</linearGradient>
<linearGradient id="paint1_linear_4_315" x1="328" y1="20" x2="0" y2="20" gradientUnits="userSpaceOnUse">
<stop stop-opacity="0"/>
<stop/>
<stop offset="0.926829"/>
<stop offset="1" stop-opacity="0"/>
</linearGradient>
</defs>
</svg>
