<svg width="20" height="20" viewBox="0 0 20 20" fill="none" xmlns="http://www.w3.org/2000/svg">
<path d="M8.07405 13.6566C11.3569 13.6566 14.0182 10.9953 14.0182 7.71248C14.0182 4.4296 11.3569 1.76831 8.07405 1.76831C4.79118 1.76831 2.12988 4.4296 2.12988 7.71248C2.12988 10.9953 4.79118 13.6566 8.07405 13.6566Z" stroke="#020202" stroke-width="1.08333"/>
<path d="M15.7474 16.1942C15.866 16.3101 16.0257 16.3742 16.1916 16.3723C16.3574 16.3704 16.5156 16.3027 16.6316 16.1842C16.7475 16.0656 16.8116 15.9058 16.8097 15.74C16.8078 15.5742 16.7401 15.4159 16.6216 15.3L15.7474 16.1942ZM13.2674 12.0217C13.1488 11.9057 12.9891 11.8417 12.8232 11.8435C12.6574 11.8454 12.4992 11.9131 12.3832 12.0317C12.2673 12.1502 12.2032 12.31 12.2051 12.4758C12.207 12.6416 12.2747 12.7999 12.3932 12.9158L13.2674 12.0217ZM16.6216 15.3L13.2674 12.0217L12.3932 12.9158L15.7474 16.1942L16.6216 15.3Z" fill="#020202"/>
</svg>
