<svg width="44" height="44" viewBox="0 0 44 44" fill="none" xmlns="http://www.w3.org/2000/svg">
<path d="M37.4817 27.6372C36.9525 28.8235 35.3341 29.2421 33.8669 28.5722L10.8439 18.0603C9.37671 17.3904 8.61638 15.8857 9.14561 14.6994L10.7427 11.1194C11.7208 11.566 12.7998 11.2869 13.1526 10.4961C13.5054 9.70524 12.9985 8.70208 12.0204 8.2555L13.6175 4.67556C14.1467 3.48927 15.7651 3.07064 17.2322 3.74052L40.2552 14.2525C41.7224 14.9224 42.4827 16.4271 41.9534 17.6134L40.3564 21.1933C39.3783 20.7467 38.2994 21.0258 37.9466 21.8167C37.5938 22.6075 38.1007 23.6107 39.0788 24.0573L37.4817 27.6372Z" fill="#D9DDFF"/>
<path d="M0.0712974 18.6398C0.0319511 16.9834 1.34314 15.6291 2.99994 15.615L28.999 15.3928C30.6558 15.3786 32.0308 16.7099 32.0702 18.3663L32.1889 23.3649C31.0844 23.3743 30.2103 24.2772 30.2365 25.3814C30.2627 26.4856 31.1794 27.3732 32.2839 27.3637L32.4026 32.3623C32.442 34.0187 31.1308 35.373 29.474 35.3871L3.47489 35.6093C1.81809 35.6235 0.443109 34.2922 0.403762 32.6358L0.285025 27.6372C1.38953 27.6278 2.26368 26.725 2.23745 25.6207C2.21122 24.5165 1.29454 23.6289 0.190035 23.6384L0.0712974 18.6398Z" fill="#7F8EFB"/>
<path d="M15.4922 24.3789C18.5214 25.2391 20.0475 26.848 20.4075 28.8835C20.5037 29.4274 20.0445 29.8789 19.4922 29.8789H15.7422H12.3853C11.7011 29.8789 11.1909 29.1984 11.41 28.5503C11.9268 27.021 12.8587 25.1304 15.4922 24.3789Z" fill="#EAEEFF"/>
<path d="M14.1524 24.716C15.5153 25.6581 17.3839 25.3168 18.326 23.9538C19.268 22.5908 18.9267 20.7222 17.5637 19.7802C16.2007 18.8382 14.3322 19.1794 13.3901 20.5424C12.4481 21.9054 12.7894 23.774 14.1524 24.716Z" fill="#EAEEFF" stroke="#7F8EFB"/>
<path d="M36.9507 27.375H25.0493C21.1561 27.375 18 30.5311 18 34.4243C18 38.3174 21.1561 41.4735 25.0493 41.4735H36.9507C40.8439 41.4735 44 38.3174 44 34.4243C44 30.5311 40.8439 27.375 36.9507 27.375Z" fill="#FF5555"/>
<path d="M27.5273 31.7695V37.4258H26.0352V33.1445H26.0039L24.7539 33.8945V32.6211L26.1523 31.7695H27.5273ZM30.4023 36.6445V35.207H28.9727V34.0039H30.4023V32.5742H31.6055V34.0039H33.0352V35.207H31.6055V36.6445H30.4023ZM36.8008 31.7695V37.4258H35.3086V33.1445H35.2773L34.0273 33.8945V32.6211L35.4258 31.7695H36.8008Z" fill="white"/>
</svg>
