<svg width="20" height="20" viewBox="0 0 20 20" fill="none" xmlns="http://www.w3.org/2000/svg">
<path d="M8.07405 13.6569C11.3569 13.6569 14.0182 10.9956 14.0182 7.71272C14.0182 4.42985 11.3569 1.76855 8.07405 1.76855C4.79118 1.76855 2.12988 4.42985 2.12988 7.71272C2.12988 10.9956 4.79118 13.6569 8.07405 13.6569Z" stroke="#F3554B" stroke-width="1.08333"/>
<path d="M15.7474 16.1944C15.866 16.3103 16.0257 16.3744 16.1916 16.3725C16.3574 16.3706 16.5156 16.303 16.6316 16.1844C16.7475 16.0658 16.8116 15.9061 16.8097 15.7403C16.8078 15.5744 16.7401 15.4162 16.6216 15.3002L15.7474 16.1944ZM13.2674 12.0219C13.1488 11.906 12.9891 11.8419 12.8232 11.8438C12.6574 11.8457 12.4992 11.9133 12.3832 12.0319C12.2673 12.1505 12.2032 12.3102 12.2051 12.4761C12.207 12.6419 12.2747 12.8002 12.3932 12.9161L13.2674 12.0219ZM16.6216 15.3002L13.2674 12.0219L12.3932 12.9161L15.7474 16.1944L16.6216 15.3002Z" fill="#F3554B"/>
</svg>
