<svg width="27" height="23" viewBox="0 0 27 23" fill="none" xmlns="http://www.w3.org/2000/svg">
<g clip-path="url(#clip0_19_184)">
<path d="M2.7439 3.45959H5.67479L7.91756 13.1261H17.5487L19.5666 5.48726H6.81879M16.5832 18.411C16.7685 18.4165 16.9531 18.3847 17.1261 18.3176C17.2989 18.2505 17.4566 18.1493 17.5897 18.0202C17.7228 17.891 17.8285 17.7364 17.9008 17.5655C17.9731 17.3947 18.0102 17.2112 18.0102 17.0256C18.0102 16.8402 17.9731 16.6565 17.9008 16.4858C17.8285 16.3149 17.7228 16.1603 17.5897 16.0311C17.4566 15.9019 17.2989 15.8008 17.1261 15.7336C16.9531 15.6665 16.7685 15.6347 16.5832 15.6402C16.2229 15.651 15.8809 15.8016 15.6298 16.0602C15.3787 16.3189 15.2382 16.6652 15.2382 17.0256C15.2382 17.3861 15.3787 17.7324 15.6298 17.9911C15.8809 18.2497 16.2229 18.4004 16.5832 18.411ZM8.80367 18.411C8.98906 18.4165 9.17368 18.3847 9.34657 18.3176C9.51947 18.2505 9.67714 18.1493 9.81021 18.0202C9.9433 17.891 10.0491 17.7364 10.1214 17.5655C10.1936 17.3947 10.2308 17.2112 10.2308 17.0256C10.2308 16.8402 10.1936 16.6565 10.1214 16.4858C10.0491 16.3149 9.9433 16.1603 9.81021 16.0311C9.67714 15.9019 9.51947 15.8008 9.34657 15.7336C9.17368 15.6665 8.98906 15.6347 8.80367 15.6402C8.44336 15.651 8.10141 15.8016 7.85033 16.0602C7.59926 16.3189 7.45883 16.6652 7.45883 17.0256C7.45883 17.3861 7.59926 17.7324 7.85033 17.9911C8.10141 18.2497 8.44336 18.4004 8.80367 18.411Z" stroke="#333333" stroke-width="1.22222" stroke-linecap="square" stroke-linejoin="round"/>
</g>
<defs>
<clipPath id="clip0_19_184">
<rect width="22" height="22" fill="white" transform="translate(0.86792 0.15979)"/>
</clipPath>
</defs>
</svg>
