<svg width="27" height="23" viewBox="0 0 27 23" fill="none" xmlns="http://www.w3.org/2000/svg">
<g clip-path="url(#clip0_19_346)">
<path d="M2.7207 3.9884H5.65159L7.89437 13.6549H17.5255L19.5434 6.01607H6.79559M16.56 18.9398C16.7453 18.9453 16.9299 18.9136 17.1029 18.8465C17.2757 18.7794 17.4334 18.6782 17.5665 18.549C17.6996 18.4198 17.8053 18.2652 17.8777 18.0943C17.9499 17.9236 17.987 17.74 17.987 17.5544C17.987 17.369 17.9499 17.1853 17.8777 17.0146C17.8053 16.8437 17.6996 16.6891 17.5665 16.5599C17.4334 16.4307 17.2757 16.3297 17.1029 16.2624C16.9299 16.1953 16.7453 16.1636 16.56 16.1691C16.1997 16.1798 15.8577 16.3304 15.6066 16.589C15.3555 16.8478 15.215 17.194 15.215 17.5544C15.215 17.9149 15.3555 18.2613 15.6066 18.5199C15.8577 18.7785 16.1997 18.9292 16.56 18.9398ZM8.78048 18.9398C8.96587 18.9453 9.15048 18.9136 9.32338 18.8465C9.49627 18.7794 9.65394 18.6782 9.78702 18.549C9.92011 18.4198 10.0259 18.2652 10.0982 18.0943C10.1704 17.9236 10.2076 17.74 10.2076 17.5544C10.2076 17.369 10.1704 17.1853 10.0982 17.0146C10.0259 16.8437 9.92011 16.6891 9.78702 16.5599C9.65394 16.4307 9.49627 16.3297 9.32338 16.2624C9.15048 16.1953 8.96587 16.1636 8.78048 16.1691C8.42017 16.1798 8.07822 16.3304 7.82714 16.589C7.57607 16.8478 7.43563 17.194 7.43563 17.5544C7.43563 17.9149 7.57607 18.2613 7.82714 18.5199C8.07822 18.7785 8.42017 18.9292 8.78048 18.9398Z" stroke="#333333" stroke-width="1.22222" stroke-linecap="square" stroke-linejoin="round"/>
</g>
<defs>
<clipPath id="clip0_19_346">
<rect width="22" height="22" fill="white" transform="translate(0.844727 0.688599)"/>
</clipPath>
</defs>
</svg>
