<svg width="26" height="25" viewBox="0 0 26 25" fill="none" xmlns="http://www.w3.org/2000/svg">
<g clip-path="url(#clip0_2_1358)">
<g clip-path="url(#clip1_2_1358)">
<g clip-path="url(#clip2_2_1358)">
<path d="M25 0.610107H1V24.6101H25V0.610107Z" fill="#EBECF1"/>
<path d="M9 13.6046C9 13.2566 9.23024 12.9745 9.51421 12.9745C9.79821 12.9745 10.0284 13.2566 10.0284 13.6046C10.0284 14.9007 10.886 15.9702 11.9438 15.9702C13.0016 15.9702 12.412 15.9702 12.412 15.9702C13.4698 15.9702 14.3274 14.9007 14.3274 13.6046C14.3274 13.2566 14.5576 12.9745 14.8416 12.9745C15.1256 12.9745 15.3558 13.2566 15.3558 13.6046C15.3558 15.5967 14.0378 17.2117 12.412 17.2117H11.9438C10.318 17.2117 9 15.5967 9 13.6046Z" fill="#8F9ABE"/>
<path d="M15.4507 9.43668C15.793 9.96372 16.4976 10.1138 17.0256 9.77249C17.5527 9.43025 17.7028 8.72568 17.3605 8.19771C17.0183 7.66974 16.3137 7.51966 15.7856 7.8619C15.2585 8.20411 15.1084 8.90961 15.4507 9.43668Z" fill="#8F9ABE"/>
<path d="M6.57275 8.81687C6.57275 9.44564 7.08251 9.9554 7.71128 9.9554C8.34002 9.9554 8.84981 9.44564 8.84981 8.81687C8.84981 8.1881 8.34002 7.67834 7.71128 7.67834C7.08251 7.67834 6.57275 8.1881 6.57275 8.81687Z" fill="#8F9ABE"/>
</g>
</g>
</g>
<defs>
<clipPath id="clip0_2_1358">
<rect y="0.610107" width="26" height="24" rx="12" fill="white"/>
</clipPath>
<clipPath id="clip1_2_1358">
<rect width="26" height="24" fill="white" transform="translate(0 0.610107)"/>
</clipPath>
<clipPath id="clip2_2_1358">
<rect width="24" height="24" fill="white" transform="translate(1 0.610107)"/>
</clipPath>
</defs>
</svg>
