<svg width="21" height="21" viewBox="0 0 21 21" fill="none" xmlns="http://www.w3.org/2000/svg">
<mask id="mask0_2_6057" style="mask-type:luminance" maskUnits="userSpaceOnUse" x="0" y="0" width="21" height="21">
<path d="M20.9854 0.449219H0.985352V20.4492H20.9854V0.449219Z" fill="white"/>
</mask>
<g mask="url(#mask0_2_6057)">
<path d="M14.98 4.04095C16.922 4.04095 18.562 5.68145 18.562 7.62295C18.562 8.55795 18.1125 9.44546 17.103 10.501L10.8785 17.012C10.8535 16.989 10.8275 16.968 10.8005 16.948C10.698 16.8425 10.481 16.614 10.147 16.2615C9.36347 15.4355 7.79498 13.7825 4.65798 10.501C3.64848 9.44546 3.19898 8.55795 3.19898 7.62295C3.19898 5.68145 4.83897 4.04095 6.78097 4.04095C8.13998 4.04095 9.36798 4.80845 9.98598 6.04446C10.1545 6.38096 10.4975 6.59446 10.874 6.59696H10.8805C11.2545 6.59696 11.597 6.38845 11.769 6.05595C12.4105 4.81295 13.641 4.04095 14.98 4.04095ZM14.98 3.04095C13.1955 3.04095 11.6525 4.10195 10.8805 5.59696C10.1085 4.05395 8.56547 3.04095 6.78097 3.04095C4.27248 3.04095 2.19897 5.11495 2.19897 7.62295C2.19897 9.06996 3.00847 10.223 3.93498 11.1925C9.74797 17.2735 10.172 17.7585 10.203 17.7585C10.205 17.7585 10.205 17.7555 10.205 17.7515C10.398 17.9445 10.639 18.041 10.8805 18.041C11.1215 18.041 11.363 17.9445 11.5555 17.7515L17.8255 11.1925C18.7525 10.223 19.562 9.06996 19.562 7.62295C19.562 5.11495 17.4885 3.04095 14.98 3.04095Z" fill="#949DA6"/>
</g>
</svg>
