<svg width="20" height="22" viewBox="0 0 20 22" fill="none" xmlns="http://www.w3.org/2000/svg">
<g clip-path="url(#clip0_2_1206)">
<g clip-path="url(#clip1_2_1206)">
<g clip-path="url(#clip2_2_1206)">
<path d="M14.4 2.53003H3.6C1.61177 2.53003 0 4.1418 0 6.13003V16.93C0 18.9183 1.61177 20.53 3.6 20.53H14.4C16.3882 20.53 18 18.9183 18 16.93V6.13003C18 4.1418 16.3882 2.53003 14.4 2.53003Z" fill="#00D28E"/>
<path fill-rule="evenodd" clip-rule="evenodd" d="M9.25034 14.68C8.42238 14.68 7.74995 13.9748 7.74995 13.1046C7.74995 12.2352 8.42238 11.53 9.25034 11.53C10.0783 11.53 10.7499 12.2352 10.7499 13.1046C10.7499 13.9748 10.0783 14.68 9.25034 14.68ZM7.2041 10.1786V6.28003H5.25V16.5243H7.22971V15.7216C7.22971 15.7216 7.81453 16.78 9.29063 16.78C9.29063 16.78 12.75 16.6526 12.75 12.9576C12.75 12.9576 12.622 9.21122 9.29063 9.21122C9.29063 9.21122 8.19698 9.21122 7.2041 10.1786Z" fill="white"/>
</g>
</g>
</g>
<defs>
<clipPath id="clip0_2_1206">
<rect width="18" height="18" fill="white" transform="translate(0 2.53003)"/>
</clipPath>
<clipPath id="clip1_2_1206">
<rect width="18" height="18" fill="white" transform="translate(0 2.53003)"/>
</clipPath>
<clipPath id="clip2_2_1206">
<rect width="18" height="18" fill="white" transform="translate(0 2.53003)"/>
</clipPath>
</defs>
</svg>
