<svg width="25" height="24" viewBox="0 0 25 24" fill="none" xmlns="http://www.w3.org/2000/svg">
<path d="M16.93 3.00012H16.9247C16.0516 2.99913 15.1884 3.18541 14.3933 3.54638C13.5983 3.90735 12.8899 4.43462 12.316 5.09262C11.7319 4.42661 11.0107 3.89469 10.2019 3.53327C9.39314 3.17185 8.5158 2.98947 7.62998 2.99862C6.89969 2.99867 6.17666 3.14363 5.50279 3.4251C4.82892 3.70658 4.2176 4.11897 3.70425 4.63839C3.1909 5.15781 2.78572 5.77394 2.51219 6.45107C2.23865 7.1282 2.1022 7.85288 2.11073 8.58312C2.11073 12.4201 5.59073 15.5401 10.8107 20.2801L12.3107 21.6001L13.8107 20.2801C19.0307 15.5401 22.5107 12.4201 22.5107 8.58012V8.52012C22.5107 7.05612 21.9292 5.65209 20.894 4.61689C19.8588 3.58169 18.4547 3.00012 16.9907 3.00012H16.927H16.93ZM12.97 19.3801L12.31 19.9801L11.65 19.3801H11.59C6.60998 14.8201 3.30998 11.8801 3.30998 8.58012L3.30923 8.51862C3.30918 7.94061 3.42513 7.36847 3.6502 6.83608C3.87527 6.30369 4.20489 5.82189 4.61954 5.41919C5.03419 5.0165 5.52544 4.70112 6.06418 4.49172C6.60293 4.28232 7.17822 4.18316 7.75598 4.20012C8.44781 4.20612 9.13055 4.35837 9.75939 4.64687C10.3882 4.93538 10.9489 5.35361 11.4047 5.87412L11.7692 6.29937H12.9092L13.2692 5.87937C13.7257 5.35686 14.2876 4.93699 14.9181 4.64742C15.5485 4.35784 16.2332 4.20514 16.927 4.19937L16.99 4.19862C18.1357 4.19862 19.2345 4.65376 20.0447 5.46392C20.8548 6.27407 21.31 7.37288 21.31 8.51862L21.3092 8.58237C21.3092 11.8794 18.0092 14.8194 12.9692 19.3794L12.97 19.3801Z" fill="#868E96"/>
</svg>
