<svg width="13" height="12" viewBox="0 0 13 12" fill="none" xmlns="http://www.w3.org/2000/svg">
<g clip-path="url(#clip0_4_1322)">
<g clip-path="url(#clip1_4_1322)">
<path d="M6.83003 10.1228L3.97253 11.889C3.62078 12.1065 3.16103 11.994 2.94578 11.6382C2.84303 11.4679 2.81153 11.2632 2.8569 11.0685L3.63353 7.77228L1.09103 5.56803C0.94043 5.43654 0.847513 5.25115 0.832292 5.0518C0.817072 4.85246 0.880765 4.65511 1.00965 4.50228C1.07293 4.4273 1.15039 4.36555 1.23758 4.32057C1.32478 4.27559 1.42 4.24826 1.51778 4.24015L4.85453 3.96978L6.1404 0.840405C6.19604 0.703084 6.29141 0.585503 6.4143 0.502728C6.53718 0.419952 6.68199 0.375753 6.83015 0.375793C6.97832 0.375834 7.12309 0.420112 7.24594 0.502954C7.36878 0.585796 7.46409 0.703429 7.51965 0.84078L8.80515 3.96978L12.1427 4.24015C12.3413 4.25761 12.525 4.35309 12.6534 4.50568C12.7818 4.65828 12.8445 4.85555 12.8278 5.05428C12.8122 5.25283 12.7193 5.43734 12.569 5.56803L10.0262 7.77228L10.8031 11.0685C10.8498 11.2627 10.8179 11.4674 10.7143 11.6381C10.6107 11.8088 10.4438 11.9316 10.25 11.9798C10.1549 12.0025 10.0562 12.0062 9.95965 11.9905C9.8631 11.9749 9.77061 11.9403 9.68753 11.8887L6.83003 10.1228Z" fill="#FFBE1A"/>
</g>
</g>
<defs>
<clipPath id="clip0_4_1322">
<rect width="12" height="12" fill="white" transform="translate(0.830078)"/>
</clipPath>
<clipPath id="clip1_4_1322">
<rect width="12" height="12" fill="white" transform="translate(0.830078)"/>
</clipPath>
</defs>
</svg>
