<svg width="17" height="17" viewBox="0 0 17 17" fill="none" xmlns="http://www.w3.org/2000/svg">
<g clip-path="url(#clip0_2_4488)">
<g clip-path="url(#clip1_2_4488)">
<mask id="mask0_2_4488" style="mask-type:luminance" maskUnits="userSpaceOnUse" x="-121" y="-566" width="376" height="1787">
<path d="M254.83 -565.22V1220.78H-120.17V-565.22H254.83Z" fill="white"/>
</mask>
<g mask="url(#mask0_2_4488)">
<mask id="mask1_2_4488" style="mask-type:luminance" maskUnits="userSpaceOnUse" x="1" y="5" width="5" height="5">
<path d="M3.57996 5.61304C4.04409 5.61304 4.4892 5.79741 4.81739 6.1256C5.14558 6.45379 5.32996 6.89891 5.32996 7.36304C5.32996 7.82717 5.14558 8.27229 4.81739 8.60047C4.4892 8.92866 4.04409 9.11304 3.57996 9.11304C3.11583 9.11304 2.67071 8.92866 2.34252 8.60047C2.01433 8.27229 1.82996 7.82717 1.82996 7.36304C1.82996 6.89891 2.01433 6.45379 2.34252 6.1256C2.67071 5.79741 3.11583 5.61304 3.57996 5.61304Z" fill="white"/>
</mask>
<g mask="url(#mask1_2_4488)">
<path d="M1.82996 5.61304H5.32996V9.11304H1.82996V5.61304Z" fill="#CCD2D7"/>
</g>
<mask id="mask2_2_4488" style="mask-type:luminance" maskUnits="userSpaceOnUse" x="0" y="8" width="7" height="7">
<path d="M3.57996 8.61304C4.3093 8.61304 5.00877 8.90277 5.5245 9.41849C6.04023 9.93422 6.32996 10.6337 6.32996 11.363V14.113C6.32996 14.2456 6.27728 14.3728 6.18351 14.4666C6.08974 14.5604 5.96256 14.613 5.82996 14.613H1.32996C1.19735 14.613 1.07017 14.5604 0.976403 14.4666C0.882634 14.3728 0.829956 14.2456 0.829956 14.113V11.363C0.829921 10.6628 1.09705 9.98883 1.57685 9.47874C2.05665 8.96865 2.71298 8.66082 3.41196 8.61804L3.57996 8.61304Z" fill="white"/>
</mask>
<g mask="url(#mask2_2_4488)">
<path d="M0.829956 8.61304H6.32996V14.613H0.829956V8.61304Z" fill="#CCD2D7"/>
</g>
<mask id="mask3_2_4488" style="mask-type:luminance" maskUnits="userSpaceOnUse" x="12" y="5" width="4" height="5">
<path d="M14.08 5.61304C14.5441 5.61304 14.9892 5.79741 15.3174 6.1256C15.6456 6.45379 15.83 6.89891 15.83 7.36304C15.83 7.82717 15.6456 8.27229 15.3174 8.60047C14.9892 8.92866 14.5441 9.11304 14.08 9.11304C13.6158 9.11304 13.1707 8.92866 12.8425 8.60047C12.5143 8.27229 12.33 7.82717 12.33 7.36304C12.33 6.89891 12.5143 6.45379 12.8425 6.1256C13.1707 5.79741 13.6158 5.61304 14.08 5.61304Z" fill="white"/>
</mask>
<g mask="url(#mask3_2_4488)">
<path d="M12.33 5.61304H15.83V9.11304H12.33V5.61304Z" fill="#CCD2D7"/>
</g>
<mask id="mask4_2_4488" style="mask-type:luminance" maskUnits="userSpaceOnUse" x="11" y="8" width="6" height="7">
<path d="M14.08 8.61304C14.8093 8.61304 15.5088 8.90277 16.0245 9.41849C16.5402 9.93422 16.83 10.6337 16.83 11.363V14.113C16.83 14.2456 16.7773 14.3728 16.6835 14.4666C16.5897 14.5604 16.4626 14.613 16.33 14.613H11.83C11.6973 14.613 11.5702 14.5604 11.4764 14.4666C11.3826 14.3728 11.33 14.2456 11.33 14.113V11.363C11.3299 10.6628 11.597 9.98883 12.0768 9.47874C12.5567 8.96865 13.213 8.66082 13.912 8.61804L14.08 8.61304Z" fill="white"/>
</mask>
<g mask="url(#mask4_2_4488)">
<path d="M11.33 8.61304H16.83V14.613H11.33V8.61304Z" fill="#CCD2D7"/>
</g>
<mask id="mask5_2_4488" style="mask-type:luminance" maskUnits="userSpaceOnUse" x="6" y="2" width="6" height="6">
<path d="M8.82996 2.11304C9.5593 2.11304 10.2588 2.40277 10.7745 2.91849C11.2902 3.43422 11.58 4.13369 11.58 4.86304C11.58 5.59238 11.2902 6.29186 10.7745 6.80758C10.2588 7.32331 9.5593 7.61304 8.82996 7.61304C8.10061 7.61304 7.40114 7.32331 6.88541 6.80758C6.36969 6.29186 6.07996 5.59238 6.07996 4.86304C6.07996 4.13369 6.36969 3.43422 6.88541 2.91849C7.40114 2.40277 8.10061 2.11304 8.82996 2.11304Z" fill="white"/>
</mask>
<g mask="url(#mask5_2_4488)">
<path d="M6.07996 2.11304H11.58V7.61304H6.07996V2.11304Z" fill="#ABB3BB"/>
</g>
<mask id="mask6_2_4488" style="mask-type:luminance" maskUnits="userSpaceOnUse" x="4" y="7" width="9" height="10">
<path d="M8.82996 7.11304C9.89082 7.11304 10.9082 7.53446 11.6584 8.28461C12.4085 9.03476 12.83 10.0522 12.83 11.113V15.613C12.83 15.7456 12.7773 15.8728 12.6835 15.9666C12.5897 16.0604 12.4626 16.113 12.33 16.113H5.32996C5.19735 16.113 5.07017 16.0604 4.9764 15.9666C4.88263 15.8728 4.82996 15.7456 4.82996 15.613V11.113C4.82996 10.0868 5.22439 9.09981 5.93168 8.35623C6.63897 7.61264 7.605 7.16935 8.62996 7.11804L8.82996 7.11304Z" fill="white"/>
</mask>
<g mask="url(#mask6_2_4488)">
<path d="M4.82996 7.11304H12.83V16.113H4.82996V7.11304Z" fill="#ABB3BB"/>
</g>
</g>
</g>
</g>
<defs>
<clipPath id="clip0_2_4488">
<rect width="16" height="16" fill="white" transform="translate(0.829956 0.780029)"/>
</clipPath>
<clipPath id="clip1_2_4488">
<rect width="16" height="16" fill="white" transform="translate(0.829956 0.780029)"/>
</clipPath>
</defs>
</svg>
