<svg width="12" height="12" viewBox="0 0 12 12" fill="none" xmlns="http://www.w3.org/2000/svg">
<g clip-path="url(#clip0_363_773)">
<g clip-path="url(#clip1_363_773)">
<path d="M5.99995 10.1239L3.14245 11.8902C2.7907 12.1077 2.33095 11.9952 2.1157 11.6393C2.01295 11.4691 1.98145 11.2643 2.02682 11.0697L2.80345 7.77344L0.260947 5.56919C0.110352 5.4377 0.0174351 5.25231 0.0022143 5.05296C-0.0130065 4.85362 0.0506865 4.65627 0.179572 4.50344C0.242853 4.42846 0.320311 4.36671 0.407507 4.32173C0.494702 4.27675 0.589919 4.24942 0.687697 4.24131L4.02445 3.97094L5.31032 0.841564C5.36596 0.704243 5.46133 0.586662 5.58422 0.503887C5.70711 0.421112 5.85191 0.376913 6.00007 0.376953C6.14824 0.376993 6.29302 0.421271 6.41586 0.504113C6.5387 0.586955 6.63401 0.704588 6.68957 0.841939L7.97507 3.97094L11.3126 4.24131C11.5112 4.25877 11.6949 4.35425 11.8233 4.50684C11.9517 4.65944 12.0144 4.85671 11.9977 5.05544C11.9822 5.25399 11.8892 5.4385 11.7389 5.56919L9.19607 7.77344L9.97307 11.0697C10.0197 11.2638 9.98779 11.4685 9.88419 11.6392C9.78058 11.8099 9.61371 11.9327 9.41995 11.9809C9.32482 12.0037 9.22612 12.0073 9.12957 11.9917C9.03302 11.9761 8.94053 11.9414 8.85745 11.8898L5.99995 10.1239Z" fill="#FFBE1A"/>
</g>
</g>
<defs>
<clipPath id="clip0_363_773">
<rect width="12" height="12" fill="white" transform="translate(0 0.000976562)"/>
</clipPath>
<clipPath id="clip1_363_773">
<rect width="12" height="12" fill="white" transform="translate(0 0.000976562)"/>
</clipPath>
</defs>
</svg>
