<svg width="15" height="17" viewBox="0 0 15 17" fill="none" xmlns="http://www.w3.org/2000/svg">
<mask id="mask0_2_5455" style="mask-type:luminance" maskUnits="userSpaceOnUse" x="1" y="3" width="13" height="13">
<path fill-rule="evenodd" clip-rule="evenodd" d="M3.21415 3.64258C2.03068 3.64258 1.07129 4.60197 1.07129 5.78544V10.7912C1.07129 11.9746 2.03068 12.934 3.21415 12.934H5.47713L6.78931 15.1768C6.99618 15.5305 7.50723 15.5305 7.71409 15.1768L9.02627 12.934H11.2499C12.4334 12.934 13.3927 11.9746 13.3927 10.7912V5.78544C13.3927 4.60197 12.4334 3.64258 11.2499 3.64258H3.21415Z" fill="white"/>
</mask>
<g mask="url(#mask0_2_5455)">
<path d="M5.47715 12.934L6.40194 12.393L6.09163 11.8626H5.47715V12.934ZM9.02629 12.934V11.8626H8.4118L8.10151 12.393L9.02629 12.934ZM2.14274 5.78545C2.14274 5.19372 2.62244 4.71402 3.21416 4.71402V2.57117C1.43897 2.57117 -0.00012207 4.01026 -0.00012207 5.78545H2.14274ZM2.14274 10.7912V5.78545H-0.00012207V10.7912H2.14274ZM3.21416 11.8626C2.62244 11.8626 2.14274 11.3829 2.14274 10.7912H-0.00012207C-0.00012207 12.5664 1.43897 14.0055 3.21416 14.0055V11.8626ZM5.47715 11.8626H3.21416V14.0055H5.47715V11.8626ZM7.71411 14.6359L6.40194 12.393L4.55237 13.4751L5.86455 15.7179L7.71411 14.6359ZM6.78933 14.6359C6.9962 14.2823 7.50725 14.2823 7.71411 14.6359L5.86455 15.7179C6.48514 16.7787 8.0183 16.7787 8.6389 15.7179L6.78933 14.6359ZM8.10151 12.393L6.78933 14.6359L8.6389 15.7179L9.95108 13.4751L8.10151 12.393ZM11.2499 11.8626H9.02629V14.0055H11.2499V11.8626ZM12.3213 10.7912C12.3213 11.3829 11.8416 11.8626 11.2499 11.8626V14.0055C13.0251 14.0055 14.4642 12.5664 14.4642 10.7912H12.3213ZM12.3213 5.78545V10.7912H14.4642V5.78545H12.3213ZM11.2499 4.71402C11.8416 4.71402 12.3213 5.19372 12.3213 5.78545H14.4642C14.4642 4.01026 13.0251 2.57117 11.2499 2.57117V4.71402ZM3.21416 4.71402H11.2499V2.57117H3.21416V4.71402Z" fill="#999999"/>
</g>
<path d="M4.66099 8.92355C5.10479 8.92355 5.46456 8.56378 5.46456 8.11998C5.46456 7.67618 5.10479 7.31641 4.66099 7.31641C4.21719 7.31641 3.85742 7.67618 3.85742 8.11998C3.85742 8.56378 4.21719 8.92355 4.66099 8.92355Z" fill="#999999"/>
<path d="M7.23216 8.92367C7.67596 8.92367 8.03573 8.5639 8.03573 8.1201C8.03573 7.6763 7.67596 7.31653 7.23216 7.31653C6.78836 7.31653 6.42859 7.6763 6.42859 8.1201C6.42859 8.5639 6.78836 8.92367 7.23216 8.92367Z" fill="#999999"/>
<path d="M9.80357 8.92367C10.2474 8.92367 10.6071 8.5639 10.6071 8.1201C10.6071 7.6763 10.2474 7.31653 9.80357 7.31653C9.35977 7.31653 9 7.6763 9 8.1201C9 8.5639 9.35977 8.92367 9.80357 8.92367Z" fill="#999999"/>
</svg>
