<svg width="20" height="23" viewBox="0 0 20 23" fill="none" xmlns="http://www.w3.org/2000/svg">
<path fill-rule="evenodd" clip-rule="evenodd" d="M7.67144 20.498C8.02299 20.2939 8.47329 20.4137 8.67722 20.7655C8.81157 20.9974 9.00441 21.1898 9.23643 21.3236C9.46844 21.4573 9.7315 21.5277 9.99925 21.5277C10.267 21.5277 10.5301 21.4573 10.7621 21.3236C10.9941 21.1898 11.1869 20.9974 11.3213 20.7655C11.5252 20.4137 11.9755 20.2939 12.3271 20.498C12.6786 20.7021 12.7983 21.1529 12.5943 21.5047C12.3306 21.9598 11.9521 22.3375 11.4966 22.6001C11.0412 22.8627 10.5248 23.0009 9.99925 23.0009C9.47366 23.0009 8.9573 22.8627 8.50185 22.6001C8.04641 22.3375 7.66788 21.9598 7.40415 21.5047C7.20023 21.1529 7.3199 20.7021 7.67144 20.498Z" fill="#585D68"/>
<path fill-rule="evenodd" clip-rule="evenodd" d="M3.05672 7.51488C3.05672 3.36453 6.16568 0 10.0008 0C13.8359 0 16.9448 3.36453 16.9448 7.51488V10.34C16.9448 12.5016 17.8102 13.3044 18.8248 14.7952C19.2977 15.49 19.2782 16.3842 19.021 17.0569C18.7634 17.7305 18.1748 18.4 17.3103 18.4H2.69124C1.82673 18.4 1.23816 17.7305 0.980573 17.0569C0.723313 16.3842 0.703852 15.49 1.17671 14.7952C2.19138 13.3044 3.05672 12.5016 3.05672 10.34V7.51488ZM10.0008 1.46908C6.9154 1.46908 4.4142 4.17588 4.4142 7.51488V10.34C4.4142 12.9228 3.38596 14.0264 2.2697 15.6665C2.14743 15.8461 2.11022 16.1692 2.23489 16.4952C2.35923 16.8203 2.55224 16.9309 2.69124 16.9309H17.3103C17.4493 16.9309 17.6423 16.8203 17.7667 16.4952C17.8913 16.1692 17.8541 15.8461 17.7319 15.6665C16.6156 14.0264 15.5874 12.9228 15.5874 10.34V7.51488C15.5874 4.17588 13.0862 1.46908 10.0008 1.46908Z" fill="#585D68"/>
</svg>
