<svg width="44" height="44" viewBox="0 0 44 44" fill="none" xmlns="http://www.w3.org/2000/svg">
<path d="M37.4819 27.6372C36.9527 28.8235 35.3343 29.2421 33.8671 28.5722L10.8441 18.0603C9.37696 17.3904 8.61663 15.8857 9.14586 14.6994L10.7429 11.1194C11.721 11.566 12.8 11.2869 13.1528 10.4961C13.5056 9.70522 12.9987 8.70206 12.0206 8.25548L13.6177 4.67554C14.1469 3.48925 15.7653 3.07062 17.2324 3.7405L40.2554 14.2525C41.7226 14.9224 42.4829 16.4271 41.9537 17.6134L40.3566 21.1933C39.3785 20.7467 38.2996 21.0258 37.9468 21.8167C37.594 22.6075 38.1009 23.6107 39.079 24.0573L37.4819 27.6372Z" fill="#D9DDFF"/>
<path d="M0.0711754 18.6398C0.0318291 16.9834 1.34302 15.6291 2.99982 15.615L28.9988 15.3928C30.6556 15.3786 32.0306 16.7099 32.07 18.3663L32.1887 23.3649C31.0842 23.3743 30.2101 24.2772 30.2363 25.3814C30.2625 26.4856 31.1792 27.3732 32.2837 27.3637L32.4024 32.3623C32.4418 34.0187 31.1306 35.373 29.4738 35.3871L3.47477 35.6093C1.81797 35.6235 0.442987 34.2922 0.40364 32.6358L0.284903 27.6372C1.38941 27.6278 2.26356 26.725 2.23733 25.6207C2.2111 24.5165 1.29442 23.6289 0.189913 23.6384L0.0711754 18.6398Z" fill="#7F8EFB"/>
<path d="M15.492 24.3789C18.5212 25.2391 20.0473 26.848 20.4073 28.8835C20.5035 29.4274 20.0443 29.8789 19.492 29.8789H15.742H12.3851C11.7009 29.8789 11.1907 29.1984 11.4098 28.5503C11.9266 27.021 12.8585 25.1304 15.492 24.3789Z" fill="#EAEEFF"/>
<path d="M14.1522 24.716C15.5152 25.6581 17.3838 25.3168 18.3258 23.9538C19.2679 22.5908 18.9266 20.7222 17.5636 19.7802C16.2006 18.8382 14.332 19.1794 13.39 20.5424C12.448 21.9054 12.7892 23.774 14.1522 24.716Z" fill="#EAEEFF" stroke="#7F8EFB"/>
<path d="M36.9507 27.375H25.0493C21.1561 27.375 18 30.5311 18 34.4243C18 38.3174 21.1561 41.4735 25.0493 41.4735H36.9507C40.8439 41.4735 44 38.3174 44 34.4243C44 30.5311 40.8439 27.375 36.9507 27.375Z" fill="#FF5555"/>
<path d="M27.5273 31.7695V37.4258H26.0352V33.1445H26.0039L24.7539 33.8945V32.6211L26.1523 31.7695H27.5273ZM30.4023 36.6445V35.207H28.9727V34.0039H30.4023V32.5742H31.6055V34.0039H33.0352V35.207H31.6055V36.6445H30.4023ZM36.8008 31.7695V37.4258H35.3086V33.1445H35.2773L34.0273 33.8945V32.6211L35.4258 31.7695H36.8008Z" fill="white"/>
</svg>
