<svg width="13" height="13" viewBox="0 0 13 13" fill="none" xmlns="http://www.w3.org/2000/svg">
<path fill-rule="evenodd" clip-rule="evenodd" d="M10.1108 12.2119L6.50019 9.58882L2.88893 12.2119C2.76919 12.3001 2.60635 12.2994 2.48661 12.2119C2.36688 12.1244 2.31624 11.97 2.36277 11.8292L3.75035 7.61365L0.142506 5.02952C0.0220845 4.94272 -0.0292313 4.78826 0.0166109 4.64679C0.0617688 4.50531 0.193137 4.40963 0.342295 4.40963H4.8054L6.17451 0.211186C6.26688 -0.0703954 6.73351 -0.0703954 6.82519 0.211186L8.19498 4.40963H12.6581C12.8066 4.40963 12.9379 4.50531 12.9838 4.64679C13.0289 4.78826 12.9776 4.94272 12.8572 5.02952L9.24935 7.61365L10.6369 11.8292C10.6835 11.97 10.6335 12.1244 10.5131 12.2119C10.4536 12.2557 10.3831 12.2775 10.3119 12.2775C10.2415 12.2775 10.1703 12.2557 10.1108 12.2119Z" fill="#CCCCCC"/>
</svg>
