<svg width="26" height="22" viewBox="0 0 26 22" fill="none" xmlns="http://www.w3.org/2000/svg">
<g clip-path="url(#clip0_2_5361)">
<path d="M1.87097 3.30078H4.80186L7.04464 12.9673H16.6758L18.6937 5.32845H5.94586M15.7102 18.2522C15.8955 18.2577 16.0802 18.2259 16.2532 18.1588C16.426 18.0917 16.5836 17.9905 16.7167 17.8613C16.8498 17.7322 16.9556 17.5775 17.0279 17.4067C17.1002 17.2359 17.1373 17.0524 17.1373 16.8668C17.1373 16.6814 17.1002 16.4977 17.0279 16.327C16.9556 16.1561 16.8498 16.0015 16.7167 15.8723C16.5836 15.7431 16.426 15.642 16.2532 15.5748C16.0802 15.5077 15.8955 15.4759 15.7102 15.4814C15.3499 15.4922 15.008 15.6428 14.7569 15.9014C14.5057 16.1601 14.3653 16.5064 14.3653 16.8668C14.3653 17.2273 14.5057 17.5736 14.7569 17.8323C15.008 18.0909 15.3499 18.2416 15.7102 18.2522ZM7.93075 18.2522C8.11614 18.2577 8.30075 18.2259 8.47365 18.1588C8.64654 18.0917 8.80421 17.9905 8.93729 17.8613C9.07037 17.7322 9.17617 17.5775 9.24843 17.4067C9.32067 17.2359 9.3579 17.0524 9.3579 16.8668C9.3579 16.6814 9.32067 16.4977 9.24843 16.327C9.17617 16.1561 9.07037 16.0015 8.93729 15.8723C8.80421 15.7431 8.64654 15.642 8.47365 15.5748C8.30075 15.5077 8.11614 15.4759 7.93075 15.4814C7.57044 15.4922 7.22848 15.6428 6.9774 15.9014C6.72633 16.1601 6.5859 16.5064 6.5859 16.8668C6.5859 17.2273 6.72633 17.5736 6.9774 17.8323C7.22848 18.0909 7.57044 18.2416 7.93075 18.2522Z" stroke="#333333" stroke-width="1.22222" stroke-linecap="square" stroke-linejoin="round"/>
</g>
<defs>
<clipPath id="clip0_2_5361">
<rect width="22" height="22" fill="white" transform="translate(-0.00500488)"/>
</clipPath>
</defs>
</svg>
