<svg width="18" height="18" viewBox="0 0 18 18" fill="none" xmlns="http://www.w3.org/2000/svg">
<path d="M16.4856 17.1916L10.2236 10.9296C9.72359 11.3556 9.14859 11.6853 8.49859 11.9186C7.84859 12.152 7.19526 12.2686 6.53859 12.2686C4.93726 12.2686 3.58193 11.7143 2.47259 10.6056C1.36326 9.49698 0.808594 8.14198 0.808594 6.54064C0.808594 4.93931 1.36259 3.58364 2.47059 2.47364C3.57859 1.36364 4.93326 0.807976 6.53459 0.806643C8.13593 0.80531 9.49193 1.35998 10.6026 2.47064C11.7133 3.58131 12.2686 4.93698 12.2686 6.53764C12.2686 7.23231 12.1456 7.90464 11.8996 8.55464C11.6536 9.20464 11.3303 9.76064 10.9296 10.2226L17.1916 16.4836L16.4856 17.1916ZM6.53959 11.2676C7.86626 11.2676 8.98626 10.811 9.89959 9.89764C10.8129 8.98431 11.2696 7.86398 11.2696 6.53664C11.2696 5.20931 10.8129 4.08931 9.89959 3.17664C8.98626 2.26398 7.86626 1.80731 6.53959 1.80664C5.21293 1.80598 4.09259 2.26264 3.17859 3.17664C2.26459 4.09064 1.80793 5.21064 1.80859 6.53664C1.80926 7.86264 2.26593 8.98264 3.17859 9.89664C4.09126 10.8106 5.21126 11.2673 6.53859 11.2666" fill="black"/>
</svg>
