<svg width="336" height="40" viewBox="0 0 336 40" fill="none" xmlns="http://www.w3.org/2000/svg">
<rect x="1.5" y="0.5" width="333" height="35" rx="9.5" fill="#FAFAFA"/>
<rect x="1.5" y="0.5" width="333" height="35" rx="9.5" stroke="#F2F4F5"/>
<path d="M22.0742 22.6566C25.357 22.6566 28.0183 19.9953 28.0183 16.7125C28.0183 13.4296 25.357 10.7683 22.0742 10.7683C18.7913 10.7683 16.13 13.4296 16.13 16.7125C16.13 19.9953 18.7913 22.6566 22.0742 22.6566Z" stroke="#660B68" stroke-width="1.08333"/>
<path d="M29.7475 25.1942C29.8661 25.3101 30.0259 25.3742 30.1917 25.3723C30.3575 25.3704 30.5158 25.3027 30.6317 25.1842C30.7476 25.0656 30.8117 24.9058 30.8098 24.74C30.8079 24.5742 30.7403 24.4159 30.6217 24.3L29.7475 25.1942ZM27.2675 21.0217C27.1489 20.9057 26.9892 20.8417 26.8234 20.8435C26.6576 20.8454 26.4993 20.9131 26.3834 21.0317C26.2674 21.1502 26.2034 21.31 26.2052 21.4758C26.2071 21.6416 26.2748 21.7999 26.3934 21.9158L27.2675 21.0217ZM30.6217 24.3L27.2675 21.0217L26.3934 21.9158L29.7475 25.1942L30.6217 24.3Z" fill="#660B68"/>
</svg>
