<svg width="52" height="12" viewBox="0 0 52 12" fill="none" xmlns="http://www.w3.org/2000/svg">
<g clip-path="url(#clip0_2_6647)">
<g clip-path="url(#clip1_2_6647)">
<path d="M4.22254 5.0368L5.17816 2.14824C5.27919 1.84284 5.69151 1.84284 5.79255 2.14824L6.74816 5.0368L9.66597 5.09623C9.97447 5.10252 10.1019 5.51329 9.85583 5.70833L7.52862 7.55299L8.37631 10.4783C8.46594 10.7876 8.13237 11.0414 7.87926 10.8566L5.48535 9.10808L3.09144 10.8566C2.83834 11.0414 2.50476 10.7876 2.59439 10.4783L3.44208 7.55299L1.11487 5.70833C0.868818 5.51329 0.996231 5.10252 1.30473 5.09623L4.22254 5.0368Z" fill="#DFE2E6"/>
</g>
</g>
<g clip-path="url(#clip2_2_6647)">
<g clip-path="url(#clip3_2_6647)">
<g clip-path="url(#clip4_2_6647)">
<path d="M4.2368 5.06015L5.20686 2.12691C5.29846 1.84995 5.67225 1.84995 5.76384 2.12691L6.7339 5.06015L9.69582 5.1205C9.97549 5.1262 10.091 5.49873 9.86793 5.6756L7.50555 7.5488L8.36605 10.5193C8.4473 10.7998 8.1449 11.0301 7.91544 10.8624L5.48535 9.08687L3.05526 10.8624C2.8258 11.0301 2.5234 10.7998 2.60465 10.5193L3.46515 7.5488L1.10277 5.6756C0.879707 5.49873 0.995215 5.1262 1.27489 5.1205L4.2368 5.06015Z" fill="#F27935"/>
</g>
</g>
</g>
<g clip-path="url(#clip5_2_6647)">
<g clip-path="url(#clip6_2_6647)">
<path d="M15.2225 5.0368L16.1782 2.14824C16.2792 1.84284 16.6915 1.84284 16.7925 2.14824L17.7482 5.0368L20.666 5.09623C20.9745 5.10252 21.1019 5.51329 20.8558 5.70833L18.5286 7.55299L19.3763 10.4783C19.4659 10.7876 19.1324 11.0414 18.8793 10.8566L16.4854 9.10808L14.0914 10.8566C13.8383 11.0414 13.5048 10.7876 13.5944 10.4783L14.4421 7.55299L12.1149 5.70833C11.8688 5.51329 11.9962 5.10252 12.3047 5.09623L15.2225 5.0368Z" fill="#DFE2E6"/>
</g>
</g>
<g clip-path="url(#clip7_2_6647)">
<g clip-path="url(#clip8_2_6647)">
<g clip-path="url(#clip9_2_6647)">
<path d="M15.2368 5.06015L16.2069 2.12691C16.2985 1.84995 16.6722 1.84995 16.7638 2.12691L17.7339 5.06015L20.6958 5.1205C20.9755 5.1262 21.091 5.49873 20.8679 5.6756L18.5055 7.5488L19.3661 10.5193C19.4473 10.7998 19.1449 11.0301 18.9154 10.8624L16.4854 9.08687L14.0553 10.8624C13.8258 11.0301 13.5234 10.7998 13.6047 10.5193L14.4652 7.5488L12.1028 5.6756C11.8797 5.49873 11.9952 5.1262 12.2749 5.1205L15.2368 5.06015Z" fill="#F27935"/>
</g>
</g>
</g>
<g clip-path="url(#clip10_2_6647)">
<g clip-path="url(#clip11_2_6647)">
<path d="M26.2225 5.0368L27.1782 2.14824C27.2792 1.84284 27.6915 1.84284 27.7925 2.14824L28.7482 5.0368L31.666 5.09623C31.9745 5.10252 32.1019 5.51329 31.8558 5.70833L29.5286 7.55299L30.3763 10.4783C30.4659 10.7876 30.1324 11.0414 29.8793 10.8566L27.4854 9.10808L25.0914 10.8566C24.8383 11.0414 24.5048 10.7876 24.5944 10.4783L25.4421 7.55299L23.1149 5.70833C22.8688 5.51329 22.9962 5.10252 23.3047 5.09623L26.2225 5.0368Z" fill="#DFE2E6"/>
</g>
</g>
<g clip-path="url(#clip12_2_6647)">
<g clip-path="url(#clip13_2_6647)">
<g clip-path="url(#clip14_2_6647)">
<path d="M26.2368 5.06015L27.2069 2.12691C27.2985 1.84995 27.6722 1.84995 27.7638 2.12691L28.7339 5.06015L31.6958 5.1205C31.9755 5.1262 32.091 5.49873 31.8679 5.6756L29.5055 7.5488L30.3661 10.5193C30.4473 10.7998 30.1449 11.0301 29.9154 10.8624L27.4854 9.08687L25.0553 10.8624C24.8258 11.0301 24.5234 10.7998 24.6047 10.5193L25.4652 7.5488L23.1028 5.6756C22.8797 5.49873 22.9952 5.1262 23.2749 5.1205L26.2368 5.06015Z" fill="#F27935"/>
</g>
</g>
</g>
<g clip-path="url(#clip15_2_6647)">
<g clip-path="url(#clip16_2_6647)">
<path d="M37.2225 5.0368L38.1782 2.14824C38.2792 1.84284 38.6915 1.84284 38.7925 2.14824L39.7482 5.0368L42.666 5.09623C42.9745 5.10252 43.1019 5.51329 42.8558 5.70833L40.5286 7.55299L41.3763 10.4783C41.4659 10.7876 41.1324 11.0414 40.8793 10.8566L38.4854 9.10808L36.0914 10.8566C35.8383 11.0414 35.5048 10.7876 35.5944 10.4783L36.4421 7.55299L34.1149 5.70833C33.8688 5.51329 33.9962 5.10252 34.3047 5.09623L37.2225 5.0368Z" fill="#DFE2E6"/>
</g>
</g>
<g clip-path="url(#clip17_2_6647)">
<g clip-path="url(#clip18_2_6647)">
<g clip-path="url(#clip19_2_6647)">
<path d="M37.2368 5.06015L38.2069 2.12691C38.2985 1.84995 38.6722 1.84995 38.7638 2.12691L39.7339 5.06015L42.6958 5.1205C42.9755 5.1262 43.091 5.49873 42.8679 5.6756L40.5055 7.5488L41.3661 10.5193C41.4473 10.7998 41.1449 11.0301 40.9154 10.8624L38.4854 9.08687L36.0553 10.8624C35.8258 11.0301 35.5234 10.7998 35.6047 10.5193L36.4652 7.5488L34.1028 5.6756C33.8797 5.49873 33.9952 5.1262 34.2749 5.1205L37.2368 5.06015Z" fill="#F27935"/>
</g>
</g>
</g>
<g clip-path="url(#clip20_2_6647)">
<g clip-path="url(#clip21_2_6647)">
<path d="M48.2225 5.0368L49.1782 2.14824C49.2792 1.84284 49.6915 1.84284 49.7925 2.14824L50.7482 5.0368L53.666 5.09623C53.9745 5.10252 54.1019 5.51329 53.8558 5.70833L51.5286 7.55299L52.3763 10.4783C52.4659 10.7876 52.1324 11.0414 51.8793 10.8566L49.4854 9.10808L47.0914 10.8566C46.8383 11.0414 46.5048 10.7876 46.5944 10.4783L47.4421 7.55299L45.1149 5.70833C44.8688 5.51329 44.9962 5.10252 45.3047 5.09623L48.2225 5.0368Z" fill="#DFE2E6"/>
</g>
</g>
<g clip-path="url(#clip22_2_6647)">
<g clip-path="url(#clip23_2_6647)">
<g clip-path="url(#clip24_2_6647)">
<path d="M48.2368 5.06015L49.2069 2.12691C49.2985 1.84995 49.6722 1.84995 49.7638 2.12691L50.7339 5.06015L53.6958 5.1205C53.9755 5.1262 54.091 5.49873 53.8679 5.6756L51.5055 7.5488L52.3661 10.5193C52.4473 10.7998 52.1449 11.0301 51.9154 10.8624L49.4854 9.08687L47.0553 10.8624C46.8258 11.0301 46.5234 10.7998 46.6047 10.5193L47.4652 7.5488L45.1028 5.6756C44.8797 5.49873 44.9952 5.1262 45.2749 5.1205L48.2368 5.06015Z" fill="#F27935"/>
</g>
</g>
</g>
<defs>
<clipPath id="clip0_2_6647">
<rect width="9" height="9" fill="white" transform="translate(0.985352 1.91919)"/>
</clipPath>
<clipPath id="clip1_2_6647">
<rect width="9" height="9" fill="white" transform="translate(0.985352 1.91919)"/>
</clipPath>
<clipPath id="clip2_2_6647">
<rect width="9" height="9" fill="white" transform="translate(0.985352 1.91919)"/>
</clipPath>
<clipPath id="clip3_2_6647">
<rect width="9" height="9" fill="white" transform="translate(0.985352 1.91919)"/>
</clipPath>
<clipPath id="clip4_2_6647">
<rect width="9" height="9" fill="white" transform="translate(0.985352 1.91919)"/>
</clipPath>
<clipPath id="clip5_2_6647">
<rect width="9" height="9" fill="white" transform="translate(11.9854 1.91919)"/>
</clipPath>
<clipPath id="clip6_2_6647">
<rect width="9" height="9" fill="white" transform="translate(11.9854 1.91919)"/>
</clipPath>
<clipPath id="clip7_2_6647">
<rect width="9" height="9" fill="white" transform="translate(11.9854 1.91919)"/>
</clipPath>
<clipPath id="clip8_2_6647">
<rect width="9" height="9" fill="white" transform="translate(11.9854 1.91919)"/>
</clipPath>
<clipPath id="clip9_2_6647">
<rect width="9" height="9" fill="white" transform="translate(11.9854 1.91919)"/>
</clipPath>
<clipPath id="clip10_2_6647">
<rect width="9" height="9" fill="white" transform="translate(22.9854 1.91919)"/>
</clipPath>
<clipPath id="clip11_2_6647">
<rect width="9" height="9" fill="white" transform="translate(22.9854 1.91919)"/>
</clipPath>
<clipPath id="clip12_2_6647">
<rect width="9" height="9" fill="white" transform="translate(22.9854 1.91919)"/>
</clipPath>
<clipPath id="clip13_2_6647">
<rect width="9" height="9" fill="white" transform="translate(22.9854 1.91919)"/>
</clipPath>
<clipPath id="clip14_2_6647">
<rect width="9" height="9" fill="white" transform="translate(22.9854 1.91919)"/>
</clipPath>
<clipPath id="clip15_2_6647">
<rect width="9" height="9" fill="white" transform="translate(33.9854 1.91919)"/>
</clipPath>
<clipPath id="clip16_2_6647">
<rect width="9" height="9" fill="white" transform="translate(33.9854 1.91919)"/>
</clipPath>
<clipPath id="clip17_2_6647">
<rect width="9" height="9" fill="white" transform="translate(33.9854 1.91919)"/>
</clipPath>
<clipPath id="clip18_2_6647">
<rect width="9" height="9" fill="white" transform="translate(33.9854 1.91919)"/>
</clipPath>
<clipPath id="clip19_2_6647">
<rect width="9" height="9" fill="white" transform="translate(33.9854 1.91919)"/>
</clipPath>
<clipPath id="clip20_2_6647">
<rect width="9" height="9" fill="white" transform="translate(44.9854 1.91919)"/>
</clipPath>
<clipPath id="clip21_2_6647">
<rect width="9" height="9" fill="white" transform="translate(44.9854 1.91919)"/>
</clipPath>
<clipPath id="clip22_2_6647">
<rect width="5.39" height="9" fill="white" transform="translate(44.9854 1.91919)"/>
</clipPath>
<clipPath id="clip23_2_6647">
<rect width="5.39" height="9" fill="white" transform="translate(44.9854 1.91919)"/>
</clipPath>
<clipPath id="clip24_2_6647">
<rect width="9" height="9" fill="white" transform="translate(44.9854 1.91919)"/>
</clipPath>
</defs>
</svg>
