<svg width="49" height="49" viewBox="0 0 49 49" fill="none" xmlns="http://www.w3.org/2000/svg">
<rect width="48" height="48" transform="translate(0.985352 0.919189)" fill="white"/>
<g clip-path="url(#clip0_2_6775)">
<path d="M26.0774 19.6597C25.7972 19.2363 25.3975 18.7044 24.9089 18.1475M24.9089 18.1475C23.4903 16.5304 21.3164 14.8632 19.1562 14.7018C15.7259 14.4454 12.28 16.3694 11.718 20.6963C11.4096 23.0707 12.1797 24.897 14.0326 26.7135C14.8802 27.5443 20.7056 33.0768 23.4823 35.6423C24.3245 36.4205 25.4997 36.4304 26.3427 35.653C29.1279 33.0844 34.9034 27.5376 35.7401 26.7135C38.2794 24.212 38.4257 22.2739 38.2794 20.6963C38.0099 17.7892 35.2457 15.2201 32.9536 14.8595C30.6004 14.4893 28.2796 14.4718 24.9089 18.1475Z" stroke="#DDDDDD" stroke-width="1.5" stroke-linecap="round" stroke-linejoin="round"/>
</g>
<defs>
<clipPath id="clip0_2_6775">
<rect width="32" height="32" fill="white" transform="translate(8.98535 8.91919)"/>
</clipPath>
</defs>
</svg>
