<svg width="25" height="24" viewBox="0 0 25 24" fill="none" xmlns="http://www.w3.org/2000/svg">
<path fill-rule="evenodd" clip-rule="evenodd" d="M20.25 12C20.25 11.8011 20.171 11.6103 20.0303 11.4697C19.8897 11.329 19.6989 11.25 19.5 11.25H5.5C5.30109 11.25 5.11032 11.329 4.96967 11.4697C4.82902 11.6103 4.75 11.8011 4.75 12C4.75 12.1989 4.82902 12.3897 4.96967 12.5303C5.11032 12.671 5.30109 12.75 5.5 12.75H19.5C19.6989 12.75 19.8897 12.671 20.0303 12.5303C20.171 12.3897 20.25 12.1989 20.25 12ZM20.25 7C20.25 6.80109 20.171 6.61032 20.0303 6.46967C19.8897 6.32902 19.6989 6.25 19.5 6.25H5.5C5.30109 6.25 5.11032 6.32902 4.96967 6.46967C4.82902 6.61032 4.75 6.80109 4.75 7C4.75 7.19891 4.82902 7.38968 4.96967 7.53033C5.11032 7.67098 5.30109 7.75 5.5 7.75H19.5C19.6989 7.75 19.8897 7.67098 20.0303 7.53033C20.171 7.38968 20.25 7.19891 20.25 7ZM20.25 17C20.25 16.8011 20.171 16.6103 20.0303 16.4697C19.8897 16.329 19.6989 16.25 19.5 16.25H5.5C5.30109 16.25 5.11032 16.329 4.96967 16.4697C4.82902 16.6103 4.75 16.8011 4.75 17C4.75 17.1989 4.82902 17.3897 4.96967 17.5303C5.11032 17.671 5.30109 17.75 5.5 17.75H19.5C19.6989 17.75 19.8897 17.671 20.0303 17.5303C20.171 17.3897 20.25 17.1989 20.25 17Z" fill="black"/>
</svg>
