<svg width="24" height="24" viewBox="0 0 24 24" fill="none" xmlns="http://www.w3.org/2000/svg">
<path d="M18 15.6C17.4563 15.6022 16.9201 15.7274 16.4317 15.9664C15.9433 16.2054 15.5154 16.552 15.18 16.98L8.22004 13.2C8.48529 12.4426 8.48529 11.6175 8.22004 10.86L15.18 7.08004C15.7463 7.78097 16.5549 8.24405 17.446 8.37778C18.3372 8.51152 19.2461 8.3062 19.9932 7.80237C20.7403 7.29854 21.2712 6.53285 21.4812 5.65655C21.6912 4.78024 21.5649 3.85705 21.1273 3.06934C20.6897 2.28163 19.9726 1.68667 19.1176 1.40201C18.2626 1.11734 17.332 1.16366 16.5095 1.53182C15.687 1.89998 15.0325 2.5632 14.6753 3.39047C14.3181 4.21775 14.2841 5.14891 14.58 6.00004L7.62004 9.78004C7.15808 9.19031 6.52366 8.75938 5.80519 8.54731C5.08671 8.33523 4.31997 8.35258 3.61182 8.59692C2.90367 8.84126 2.28938 9.30043 1.85455 9.91044C1.41973 10.5205 1.18604 11.2509 1.18604 12C1.18604 12.7492 1.41973 13.4796 1.85455 14.0896C2.28938 14.6996 2.90367 15.1588 3.61182 15.4032C4.31997 15.6475 5.08671 15.6648 5.80519 15.4528C6.52366 15.2407 7.15808 14.8098 7.62004 14.22L14.58 18C14.3257 18.7195 14.3066 19.5011 14.5254 20.2322C14.7442 20.9632 15.1896 21.6058 15.7974 22.0673C16.4052 22.5287 17.1438 22.785 17.9068 22.7993C18.6697 22.8136 19.4175 22.5851 20.0421 22.1467C20.6668 21.7084 21.1359 21.0829 21.382 20.3606C21.628 19.6383 21.6381 18.8564 21.4109 18.128C21.1837 17.3995 20.7308 16.7621 20.1178 16.3077C19.5047 15.8533 18.7631 15.6055 18 15.6ZM15.6 4.80004C15.6146 4.17392 15.8674 3.57691 16.3069 3.13074C16.7464 2.68458 17.3395 2.42284 17.9653 2.3989C18.5912 2.37496 19.2026 2.59062 19.6749 3.00191C20.1472 3.4132 20.4449 3.98914 20.5072 4.61232C20.5695 5.2355 20.3918 5.85899 20.0103 6.35566C19.6287 6.85233 19.0722 7.18479 18.454 7.28525C17.8358 7.38571 17.2026 7.24661 16.6834 6.89631C16.1643 6.546 15.7983 6.01088 15.66 5.40004C15.6149 5.20335 15.5947 5.00176 15.6 4.80004ZM4.80004 14.4C4.35186 14.397 3.91349 14.2685 3.53456 14.0292C3.15564 13.7898 2.85131 13.4492 2.65604 13.0457C2.46076 12.6423 2.38236 12.1923 2.42969 11.7466C2.47702 11.3009 2.64821 10.8774 2.92386 10.524C3.19951 10.1706 3.56861 9.90147 3.98936 9.74704C4.4101 9.59262 4.86568 9.5591 5.3045 9.65028C5.74332 9.74145 6.14784 9.95368 6.47225 10.2629C6.79665 10.5722 7.02799 10.9661 7.14004 11.4C7.23197 11.756 7.24087 12.1284 7.16608 12.4883C7.09129 12.8483 6.93479 13.1863 6.70867 13.4762C6.48255 13.7661 6.19285 14.0001 5.86192 14.1603C5.531 14.3205 5.16769 14.4025 4.80004 14.4ZM18 21.6C17.3635 21.6 16.7531 21.3472 16.303 20.8971C15.8529 20.447 15.6 19.8366 15.6 19.2C15.6 18.5635 15.8529 17.9531 16.303 17.503C16.7531 17.0529 17.3635 16.8 18 16.8C18.6366 16.8 19.247 17.0529 19.6971 17.503C20.1472 17.9531 20.4 18.5635 20.4 19.2C20.4 19.8366 20.1472 20.447 19.6971 20.8971C19.247 21.3472 18.6366 21.6 18 21.6Z" fill="black"/>
</svg>
