<svg width="24" height="25" viewBox="0 0 24 25" fill="none" xmlns="http://www.w3.org/2000/svg">
<path d="M16.6204 3.59948H16.6152C15.742 3.5985 14.8788 3.78477 14.0838 4.14574C13.2887 4.50671 12.5804 5.03398 12.0064 5.69198C11.4223 5.02598 10.7011 4.49405 9.89236 4.13264C9.08357 3.77122 8.20623 3.58884 7.32041 3.59798C6.59012 3.59803 5.86709 3.74299 5.19322 4.02447C4.51935 4.30594 3.90803 4.71834 3.39468 5.23776C2.88133 5.75718 2.47615 6.3733 2.20261 7.05043C1.92908 7.72756 1.79262 8.45224 1.80116 9.18248C1.80116 13.0195 5.28116 16.1395 10.5012 20.8795L12.0012 22.1995L13.5012 20.8795C18.7212 16.1395 22.2012 13.0195 22.2012 9.17948V9.11948C22.2012 7.65549 21.6196 6.25146 20.5844 5.21625C19.5492 4.18105 18.1452 3.59948 16.6812 3.59948H16.6174H16.6204Z" fill="#212529" fill-opacity="0.4" stroke="#F2F4F6" stroke-width="1.5"/>
</svg>
