<svg width="31" height="31" viewBox="0 0 31 31" fill="none" xmlns="http://www.w3.org/2000/svg">
<path d="M10.5039 22.062C10.2553 22.062 10.0168 21.9632 9.84099 21.7874C9.66518 21.6116 9.56641 21.3731 9.56641 21.1245V9.8745C9.56649 9.71476 9.60739 9.55769 9.68523 9.41819C9.76307 9.2787 9.87525 9.1614 10.0112 9.07744C10.147 8.99348 10.3021 8.94564 10.4617 8.93845C10.6213 8.93126 10.7801 8.96497 10.923 9.03637L22.173 14.6614C22.3285 14.7393 22.4592 14.859 22.5506 15.007C22.642 15.155 22.6904 15.3255 22.6904 15.4995C22.6904 15.6735 22.642 15.844 22.5506 15.992C22.4592 16.14 22.3285 16.2597 22.173 16.3376L10.923 21.9626C10.7929 22.0278 10.6494 22.0618 10.5039 22.062ZM11.4414 11.3914V19.6076L19.6577 15.4995L11.4414 11.3914Z" fill="black"/>
<path d="M15.1914 4.25C17.4165 4.25 19.5915 4.9098 21.4416 6.14597C23.2916 7.38213 24.7336 9.13914 25.5851 11.1948C26.4365 13.2505 26.6593 15.5125 26.2252 17.6948C25.7912 19.8771 24.7197 21.8816 23.1464 23.455C21.573 25.0283 19.5685 26.0998 17.3862 26.5338C15.2039 26.9679 12.9419 26.7451 10.8862 25.8936C8.83055 25.0422 7.07354 23.6002 5.83738 21.7502C4.60121 19.9001 3.94141 17.725 3.94141 15.5C3.94141 12.5163 5.12668 9.65483 7.23646 7.54505C9.34624 5.43526 12.2077 4.25 15.1914 4.25ZM15.1914 2.375C12.5955 2.375 10.0579 3.14477 7.89955 4.58696C5.74116 6.02916 4.05889 8.079 3.06549 10.4773C2.07209 12.8756 1.81217 15.5146 2.31861 18.0606C2.82504 20.6066 4.07507 22.9452 5.91064 24.7808C7.7462 26.6163 10.0849 27.8664 12.6309 28.3728C15.1769 28.8792 17.8159 28.6193 20.2141 27.6259C22.6124 26.6325 24.6623 24.9503 26.1045 22.7919C27.5466 20.6335 28.3164 18.0959 28.3164 15.5C28.3164 12.019 26.9336 8.68064 24.4722 6.21922C22.0108 3.75781 18.6724 2.375 15.1914 2.375Z" fill="black"/>
</svg>
