<svg width="31" height="30" viewBox="0 0 31 30" fill="none" xmlns="http://www.w3.org/2000/svg">
<path d="M10.504 21.562C10.2554 21.562 10.0169 21.4632 9.84112 21.2874C9.6653 21.1116 9.56653 20.8731 9.56653 20.6245V9.3745C9.56661 9.21476 9.60751 9.05769 9.68535 8.91819C9.76319 8.7787 9.87538 8.6614 10.0113 8.57744C10.1472 8.49348 10.3023 8.44564 10.4618 8.43845C10.6214 8.43126 10.7802 8.46497 10.9231 8.53637L22.1731 14.1614C22.3286 14.2393 22.4594 14.359 22.5507 14.507C22.6421 14.655 22.6905 14.8255 22.6905 14.9995C22.6905 15.1735 22.6421 15.344 22.5507 15.492C22.4594 15.64 22.3286 15.7597 22.1731 15.8376L10.9231 21.4626C10.793 21.5278 10.6495 21.5618 10.504 21.562ZM11.4415 10.8914V19.1076L19.6578 14.9995L11.4415 10.8914Z" fill="black"/>
<path d="M15.1915 3.75C17.4166 3.75 19.5916 4.4098 21.4417 5.64597C23.2918 6.88213 24.7337 8.63914 25.5852 10.6948C26.4367 12.7505 26.6595 15.0125 26.2254 17.1948C25.7913 19.3771 24.7198 21.3816 23.1465 22.955C21.5731 24.5283 19.5686 25.5997 17.3863 26.0338C15.204 26.4679 12.942 26.2451 10.8863 25.3936C8.83068 24.5422 7.07367 23.1002 5.8375 21.2502C4.60134 19.4001 3.94153 17.225 3.94153 15C3.94153 12.0163 5.1268 9.15483 7.23658 7.04505C9.34637 4.93526 12.2078 3.75 15.1915 3.75ZM15.1915 1.875C12.5957 1.875 10.0581 2.64477 7.89967 4.08696C5.74128 5.52915 4.05902 7.579 3.06562 9.97728C2.07222 12.3756 1.8123 15.0146 2.31873 17.5606C2.82516 20.1066 4.07519 22.4452 5.91076 24.2808C7.74632 26.1163 10.085 27.3664 12.631 27.8728C15.177 28.3792 17.816 28.1193 20.2143 27.1259C22.6125 26.1325 24.6624 24.4503 26.1046 22.2919C27.5468 20.1335 28.3165 17.5959 28.3165 15C28.3165 11.519 26.9337 8.18064 24.4723 5.71922C22.0109 3.25781 18.6725 1.875 15.1915 1.875Z" fill="black"/>
</svg>
