<svg width="31" height="30" viewBox="0 0 31 30" fill="none" xmlns="http://www.w3.org/2000/svg">
<path d="M10.504 21.562C10.2554 21.562 10.0169 21.4632 9.84109 21.2874C9.66527 21.1116 9.5665 20.8731 9.5665 20.6245V9.3745C9.56658 9.21476 9.60748 9.05769 9.68532 8.91819C9.76316 8.7787 9.87535 8.6614 10.0112 8.57744C10.1471 8.49348 10.3022 8.44564 10.4618 8.43845C10.6214 8.43126 10.7802 8.46497 10.9231 8.53637L22.1731 14.1614C22.3286 14.2393 22.4593 14.359 22.5507 14.507C22.6421 14.655 22.6905 14.8255 22.6905 14.9995C22.6905 15.1735 22.6421 15.344 22.5507 15.492C22.4593 15.64 22.3286 15.7597 22.1731 15.8376L10.9231 21.4626C10.793 21.5278 10.6495 21.5618 10.504 21.562ZM11.4415 10.8914V19.1076L19.6577 14.9995L11.4415 10.8914Z" fill="black"/>
<path d="M15.1915 3.75C17.4165 3.75 19.5916 4.4098 21.4417 5.64597C23.2917 6.88213 24.7337 8.63914 25.5851 10.6948C26.4366 12.7505 26.6594 15.0125 26.2253 17.1948C25.7913 19.3771 24.7198 21.3816 23.1465 22.955C21.5731 24.5283 19.5686 25.5998 17.3863 26.0338C15.204 26.4679 12.942 26.2451 10.8863 25.3936C8.83065 24.5422 7.07364 23.1002 5.83747 21.2502C4.6013 19.4001 3.9415 17.225 3.9415 15C3.9415 12.0163 5.12677 9.15483 7.23655 7.04505C9.34634 4.93526 12.2078 3.75 15.1915 3.75ZM15.1915 1.875C12.5956 1.875 10.058 2.64477 7.89964 4.08696C5.74125 5.52916 4.05898 7.579 3.06558 9.97728C2.07218 12.3756 1.81227 15.0146 2.3187 17.5606C2.82513 20.1066 4.07516 22.4452 5.91073 24.2808C7.74629 26.1163 10.0849 27.3664 12.6309 27.8728C15.1769 28.3792 17.8159 28.1193 20.2142 27.1259C22.6125 26.1325 24.6623 24.4503 26.1045 22.2919C27.5467 20.1335 28.3165 17.5959 28.3165 15C28.3165 11.519 26.9337 8.18064 24.4723 5.71922C22.0109 3.25781 18.6725 1.875 15.1915 1.875Z" fill="black"/>
</svg>
