<svg width="31" height="30" viewBox="0 0 31 30" fill="none" xmlns="http://www.w3.org/2000/svg">
<path d="M10.5039 21.562C10.2553 21.562 10.0168 21.4632 9.84099 21.2874C9.66518 21.1116 9.56641 20.8731 9.56641 20.6245V9.3745C9.56649 9.21476 9.60739 9.05769 9.68523 8.91819C9.76307 8.7787 9.87525 8.6614 10.0112 8.57744C10.147 8.49348 10.3021 8.44564 10.4617 8.43845C10.6213 8.43126 10.7801 8.46497 10.923 8.53637L22.173 14.1614C22.3285 14.2393 22.4592 14.359 22.5506 14.507C22.642 14.655 22.6904 14.8255 22.6904 14.9995C22.6904 15.1735 22.642 15.344 22.5506 15.492C22.4592 15.64 22.3285 15.7597 22.173 15.8376L10.923 21.4626C10.7929 21.5278 10.6494 21.5618 10.5039 21.562ZM11.4414 10.8914V19.1076L19.6577 14.9995L11.4414 10.8914Z" fill="black"/>
<path d="M15.1914 3.75C17.4165 3.75 19.5915 4.4098 21.4416 5.64597C23.2916 6.88213 24.7336 8.63914 25.5851 10.6948C26.4365 12.7505 26.6593 15.0125 26.2252 17.1948C25.7912 19.3771 24.7197 21.3816 23.1464 22.955C21.573 24.5283 19.5685 25.5998 17.3862 26.0338C15.2039 26.4679 12.9419 26.2451 10.8862 25.3936C8.83055 24.5422 7.07354 23.1002 5.83738 21.2502C4.60121 19.4001 3.94141 17.225 3.94141 15C3.94141 12.0163 5.12668 9.15483 7.23646 7.04505C9.34624 4.93526 12.2077 3.75 15.1914 3.75ZM15.1914 1.875C12.5955 1.875 10.0579 2.64477 7.89955 4.08696C5.74116 5.52916 4.05889 7.579 3.06549 9.97728C2.07209 12.3756 1.81217 15.0146 2.31861 17.5606C2.82504 20.1066 4.07507 22.4452 5.91064 24.2808C7.7462 26.1163 10.0849 27.3664 12.6309 27.8728C15.1769 28.3792 17.8159 28.1193 20.2141 27.1259C22.6124 26.1325 24.6623 24.4503 26.1045 22.2919C27.5466 20.1335 28.3164 17.5959 28.3164 15C28.3164 11.519 26.9336 8.18064 24.4722 5.71922C22.0108 3.25781 18.6724 1.875 15.1914 1.875Z" fill="black"/>
</svg>
