<svg width="25" height="25" viewBox="0 0 25 25" fill="none" xmlns="http://www.w3.org/2000/svg">
<path d="M16.93 3.78332H16.9247C16.0516 3.78234 15.1884 3.96861 14.3933 4.32958C13.5983 4.69055 12.8899 5.21782 12.316 5.87582C11.7319 5.20981 11.0107 4.67789 10.2019 4.31647C9.39314 3.95506 8.5158 3.77268 7.62998 3.78182C6.89969 3.78187 6.17666 3.92683 5.50279 4.20831C4.82892 4.48978 4.2176 4.90218 3.70425 5.4216C3.1909 5.94102 2.78572 6.55714 2.51219 7.23427C2.23865 7.9114 2.1022 8.63608 2.11073 9.36632C2.11073 13.2033 5.59073 16.3233 10.8107 21.0633L12.3107 22.3833L13.8107 21.0633C19.0307 16.3233 22.5107 13.2033 22.5107 9.36332V9.30332C22.5107 7.83933 21.9292 6.43529 20.894 5.40009C19.8588 4.36489 18.4547 3.78332 16.9907 3.78332H16.927H16.93ZM12.97 20.1633L12.31 20.7633L11.65 20.1633H11.59C6.60998 15.6033 3.30998 12.6633 3.30998 9.36332L3.30923 9.30182C3.30918 8.72381 3.42513 8.15167 3.6502 7.61928C3.87527 7.0869 4.20489 6.60509 4.61954 6.2024C5.03419 5.79971 5.52544 5.48432 6.06418 5.27492C6.60293 5.06552 7.17822 4.96636 7.75598 4.98332C8.44781 4.98933 9.13055 5.14158 9.75939 5.43008C10.3882 5.71858 10.9489 6.13681 11.4047 6.65732L11.7692 7.08257H12.9092L13.2692 6.66257C13.7257 6.14006 14.2876 5.72019 14.9181 5.43062C15.5485 5.14105 16.2332 4.98834 16.927 4.98257L16.99 4.98182C18.1357 4.98182 19.2345 5.43696 20.0447 6.24712C20.8548 7.05728 21.31 8.15609 21.31 9.30182L21.3092 9.36557C21.3092 12.6626 18.0092 15.6026 12.9692 20.1626L12.97 20.1633Z" fill="#868E96"/>
</svg>
