<svg width="25" height="24" viewBox="0 0 25 24" fill="none" xmlns="http://www.w3.org/2000/svg">
<path d="M16.9301 3.00012H16.9249C16.0517 2.99913 15.1885 3.18541 14.3935 3.54638C13.5984 3.90735 12.89 4.43462 12.3161 5.09262C11.732 4.42661 11.0108 3.89469 10.202 3.53327C9.39326 3.17185 8.51592 2.98947 7.6301 2.99862C6.89981 2.99867 6.17678 3.14363 5.50291 3.4251C4.82904 3.70658 4.21773 4.11897 3.70438 4.63839C3.19102 5.15781 2.78584 5.77394 2.51231 6.45107C2.23877 7.1282 2.10232 7.85288 2.11085 8.58312C2.11085 12.4201 5.59085 15.5401 10.8109 20.2801L12.3109 21.6001L13.8109 20.2801C19.0308 15.5401 22.5109 12.4201 22.5109 8.58012V8.52012C22.5109 7.05612 21.9293 5.65209 20.8941 4.61689C19.8589 3.58169 18.4548 3.00012 16.9909 3.00012H16.9271H16.9301ZM12.9701 19.3801L12.3101 19.9801L11.6501 19.3801H11.5901C6.6101 14.8201 3.3101 11.8801 3.3101 8.58012L3.30935 8.51862C3.3093 7.94061 3.42525 7.36847 3.65032 6.83608C3.87539 6.30369 4.20502 5.82189 4.61967 5.41919C5.03432 5.0165 5.52556 4.70112 6.06431 4.49172C6.60305 4.28232 7.17834 4.18316 7.7561 4.20012C8.44793 4.20612 9.13068 4.35837 9.75951 4.64687C10.3884 4.93538 10.9491 5.35361 11.4049 5.87412L11.7694 6.29937H12.9094L13.2694 5.87937C13.7258 5.35686 14.2877 4.93699 14.9182 4.64742C15.5487 4.35784 16.2333 4.20514 16.9271 4.19937L16.9901 4.19862C18.1358 4.19862 19.2346 4.65376 20.0448 5.46392C20.855 6.27407 21.3101 7.37288 21.3101 8.51862L21.3094 8.58237C21.3094 11.8794 18.0093 14.8194 12.9694 19.3794L12.9701 19.3801Z" fill="#868E96"/>
</svg>
