<svg width="30" height="30" viewBox="0 0 30 30" fill="none" xmlns="http://www.w3.org/2000/svg">
<path d="M10.9087 8.40869L16.1458 13.6458L21.3829 18.8829L12.4121 22.6166L3.44165 26.3499L7.17498 17.3795L10.9087 8.40869Z" fill="#F1B31C"/>
<path d="M16.6666 14.5833L10.7049 8.61206L6.82952 17.7246L2.9541 26.8371L16.6666 14.5833Z" fill="#FCEA2B"/>
<path d="M6.34334 18.8687L10.9525 23.4778L8.64792 24.4157L5.39917 21.167L6.34334 18.8687Z" fill="#EA5A47"/>
<path d="M7.22632 23.02L8.64798 24.4159L10.9526 23.478L8.95215 21.4775L7.22632 23.02Z" fill="#D22F27"/>
<path d="M8.66875 13.4014L11.4588 16.1914L16.3333 21.066L13.7196 22.2593L10.315 18.8543L7.5625 16.1022L8.66875 13.4014Z" fill="#EA5A47"/>
<path d="M11.0571 19.5963L13.7196 22.2592L16.3334 21.0659L13.0675 17.8L11.0571 19.5963Z" fill="#D22F27"/>
<path d="M12.6229 6.84538C13.0831 6.84538 13.4562 6.47769 13.4562 6.02413C13.4562 5.57057 13.0831 5.20288 12.6229 5.20288C12.1626 5.20288 11.7896 5.57057 11.7896 6.02413C11.7896 6.47769 12.1626 6.84538 12.6229 6.84538Z" fill="#8967AA"/>
<path d="M25.1229 8.51213C25.5831 8.51213 25.9562 8.14444 25.9562 7.69088C25.9562 7.23732 25.5831 6.86963 25.1229 6.86963C24.6626 6.86963 24.2896 7.23732 24.2896 7.69088C24.2896 8.14444 24.6626 8.51213 25.1229 8.51213Z" fill="#F1B31C"/>
<path d="M23.8729 17.2621C24.3331 17.2621 24.7062 16.8944 24.7062 16.4409C24.7062 15.9873 24.3331 15.6196 23.8729 15.6196C23.4126 15.6196 23.0396 15.9873 23.0396 16.4409C23.0396 16.8944 23.4126 17.2621 23.8729 17.2621Z" fill="#D22F27"/>
<path d="M21.1095 19.0162L21.1795 19.0866L12.067 22.9621L2.9541 26.8375L6.82952 17.7246L10.7049 8.61206" stroke="black" stroke-width="2" stroke-miterlimit="10" stroke-linecap="round" stroke-linejoin="round"/>
<path d="M21.1094 19.0162L15.9423 13.8492L10.7503 8.6575L10.7048 8.61208M19.3707 3.06958C19.4686 3.25666 19.5386 3.4625 19.5748 3.68333C19.7628 4.82791 18.9719 5.93916 17.8086 6.16541" stroke="black" stroke-width="2" stroke-miterlimit="10" stroke-linecap="round" stroke-linejoin="round"/>
<path d="M17.8888 6.15674C17.6724 6.17352 17.46 6.22472 17.2596 6.30841C16.1892 6.75507 15.6651 8.01382 16.0888 9.1209M25.7471 11.1322C25.7044 11.3448 25.628 11.5493 25.5209 11.738C24.9492 12.7476 23.6363 13.1172 22.5888 12.563" stroke="black" stroke-width="2" stroke-miterlimit="10" stroke-linecap="round" stroke-linejoin="round"/>
<path d="M22.6561 12.6067C22.477 12.4842 22.2795 12.3909 22.0711 12.3305C20.9573 12.0063 19.759 12.6584 19.3953 13.7859" stroke="black" stroke-width="2" stroke-miterlimit="10" stroke-linecap="round" stroke-linejoin="round"/>
</svg>
