<svg width="69" height="24" viewBox="0 0 69 24" fill="none" xmlns="http://www.w3.org/2000/svg">
<path d="M24.0078 3.77344C25.8945 3.77344 27.5351 4.62426 28.5 6.05008C29.4649 4.62426 31.1055 3.77344 32.9922 3.77344C34.4214 3.7751 35.7915 4.34358 36.8021 5.35415C37.8127 6.36473 38.3811 7.73489 38.3828 9.16406C38.3828 11.7875 36.7477 14.5179 33.5223 17.2779C32.0443 18.5372 30.4478 19.6505 28.7552 20.6021C28.6767 20.6442 28.5891 20.6663 28.5 20.6663C28.4109 20.6663 28.3233 20.6442 28.2448 20.6021C26.5522 19.6505 24.9557 18.5372 23.4777 17.2779C20.2523 14.5179 18.6172 11.7875 18.6172 9.16406C18.6189 7.73489 19.1873 6.36473 20.1979 5.35415C21.2085 4.34358 22.5786 3.7751 24.0078 3.77344ZM28.5 19.506C29.9743 18.6552 37.3047 14.1702 37.3047 9.16406C37.3035 8.02068 36.8488 6.92447 36.0403 6.11598C35.2318 5.30748 34.1356 4.85275 32.9922 4.85156C31.1702 4.85156 29.6401 5.82457 28.9986 7.39145C28.958 7.49031 28.8889 7.57488 28.8001 7.63439C28.7114 7.69391 28.6069 7.72568 28.5 7.72568C28.3931 7.72568 28.2886 7.69391 28.1999 7.63439C28.1111 7.57488 28.042 7.49031 28.0014 7.39145C27.3599 5.82457 25.8298 4.85156 24.0078 4.85156C22.8644 4.85275 21.7682 5.30748 20.9597 6.11598C20.1512 6.92447 19.6965 8.02068 19.6953 9.16406C19.6953 14.1702 27.0257 18.6552 28.5 19.506Z" fill="black"/>
<path d="M63.002 21.5C62.3087 21.5 61.7183 21.2567 61.231 20.77C60.7437 20.2847 60.5 19.6947 60.5 19C60.5 18.8667 60.5117 18.729 60.535 18.587C60.5577 18.4443 60.592 18.3103 60.638 18.185L52.896 13.623C52.6513 13.899 52.3667 14.114 52.042 14.268C51.718 14.4227 51.3707 14.5 51 14.5C50.3053 14.5 49.7153 14.2573 49.23 13.772C48.7433 13.286 48.5 12.696 48.5 12.002C48.5 11.308 48.7433 10.7177 49.23 10.231C49.7167 9.74433 50.3067 9.50067 51 9.5C51.3707 9.5 51.718 9.57733 52.042 9.732C52.3667 9.886 52.6513 10.101 52.896 10.377L60.638 5.815C60.592 5.68967 60.5577 5.55567 60.535 5.413C60.5117 5.271 60.5 5.13333 60.5 5C60.5 4.30533 60.743 3.71533 61.229 3.23C61.7143 2.74333 62.304 2.5 62.998 2.5C63.692 2.5 64.2823 2.743 64.769 3.229C65.2557 3.715 65.4993 4.30467 65.5 4.998C65.5007 5.69133 65.2573 6.28167 64.77 6.769C64.2847 7.25633 63.6947 7.5 63 7.5C62.6293 7.5 62.282 7.42267 61.958 7.268C61.6333 7.114 61.3487 6.899 61.104 6.623L53.362 11.185C53.408 11.3103 53.4423 11.4437 53.465 11.585C53.4883 11.727 53.5 11.864 53.5 11.996C53.5 12.128 53.4883 12.2663 53.465 12.411C53.4417 12.5557 53.4073 12.6903 53.362 12.815L61.104 17.377C61.3487 17.101 61.6333 16.886 61.958 16.732C62.282 16.5773 62.6293 16.5 63 16.5C63.6947 16.5 64.2847 16.743 64.77 17.229C65.2567 17.7143 65.5 18.304 65.5 18.998C65.5 19.692 65.2573 20.2823 64.772 20.769C64.2867 21.2557 63.6967 21.4993 63.002 21.5ZM63 6.5C63.4113 6.5 63.7643 6.353 64.059 6.059C64.3537 5.765 64.5007 5.412 64.5 5C64.4993 4.588 64.3523 4.235 64.059 3.941C63.7657 3.647 63.4127 3.5 63 3.5C62.5873 3.5 62.2343 3.647 61.941 3.941C61.6477 4.235 61.5007 4.588 61.5 5C61.4993 5.412 61.6463 5.765 61.941 6.059C62.2357 6.353 62.5887 6.5 63 6.5ZM51 13.5C51.4113 13.5 51.7643 13.353 52.059 13.059C52.3537 12.765 52.5007 12.412 52.5 12C52.4993 11.588 52.3523 11.235 52.059 10.941C51.7657 10.647 51.4127 10.5 51 10.5C50.5873 10.5 50.2343 10.647 49.941 10.941C49.6477 11.235 49.5007 11.588 49.5 12C49.4993 12.412 49.6463 12.765 49.941 13.059C50.2357 13.353 50.5887 13.5 51 13.5ZM63 20.5C63.4113 20.5 63.7643 20.353 64.059 20.059C64.3537 19.765 64.5007 19.412 64.5 19C64.4993 18.588 64.3523 18.235 64.059 17.941C63.7657 17.647 63.4127 17.5 63 17.5C62.5873 17.5 62.2343 17.647 61.941 17.941C61.6477 18.235 61.5007 18.588 61.5 19C61.4993 19.412 61.6463 19.765 61.941 20.059C62.2357 20.353 62.5887 20.5 63 20.5Z" fill="black"/>
</svg>
