<svg width="20" height="20" viewBox="0 0 20 20" fill="none" xmlns="http://www.w3.org/2000/svg">
<path d="M1 9C1 5.229 1 3.343 2.172 2.172C3.343 1 5.229 1 9 1H11C14.771 1 16.657 1 17.828 2.172C19 3.343 19 5.229 19 9V11C19 14.771 19 16.657 17.828 17.828C16.657 19 14.771 19 11 19H9C5.229 19 3.343 19 2.172 17.828C1 16.657 1 14.771 1 11V9Z" stroke="#FA0050" stroke-width="1.2"/>
<path d="M10.0001 13.4C11.8779 13.4 13.4001 11.8778 13.4001 10C13.4001 8.12223 11.8779 6.6 10.0001 6.6C8.12233 6.6 6.6001 8.12223 6.6001 10C6.6001 11.8778 8.12233 13.4 10.0001 13.4Z" stroke="#FA0050" stroke-width="1.2"/>
</svg>
