<svg width="24" height="18" viewBox="0 0 24 18" fill="none" xmlns="http://www.w3.org/2000/svg">
<g clip-path="url(#clip0_2_4536)">
<g clip-path="url(#clip1_2_4536)">
<path fill-rule="evenodd" clip-rule="evenodd" d="M18.9176 15.0008C18.6699 15.6497 18.13 16.1835 17.404 16.4071C16.2095 16.7752 14.9352 16.1723 14.4807 15.0447L14.464 15L9.04226 15.0007C8.81311 15.5967 8.33542 16.0945 7.69279 16.3402L7.54013 16.3928C6.30149 16.7745 4.97664 16.1055 4.58107 14.8901C4.18354 13.6689 4.87762 12.3682 6.12214 11.9848C7.36091 11.6033 8.68571 12.2723 9.08128 13.4877C9.1367 13.658 9.17091 13.8298 9.18536 14.0005L12.37 14V4L4.76363 4.0002H4.23088C3.95722 4.0002 3.73536 3.78439 3.73536 3.5182V3L13.3701 3.00011L13.37 4.423L16.8925 4.42382L20.986 8.37648L20.985 14H21V14.5182C21 14.7844 20.7842 15.0002 20.5181 15.0002L18.9176 15.0008ZM6.41652 12.9405C5.70086 13.161 5.30893 13.8954 5.53197 14.5806C5.75699 15.272 6.52432 15.6594 7.24576 15.4372C7.96151 15.2168 8.35341 14.4825 8.13037 13.7972C7.90535 13.1058 7.13798 12.7183 6.41652 12.9405ZM16.2803 12.9547C15.5725 13.1728 15.1851 13.8987 15.4055 14.576C15.6279 15.2595 16.387 15.6428 17.1008 15.4229C17.7643 15.2185 18.1462 14.5679 18.0097 13.9292L17.9754 13.8018L17.9276 13.6772C17.6584 13.0727 16.9494 12.7487 16.2803 12.9547ZM19.985 9.522H13.37V14L14.3212 14.0002C14.3935 13.1349 14.9608 12.3534 15.8235 12.0234L15.9771 11.9705C17.2236 11.5866 18.5568 12.2599 18.9548 13.4831C19.0108 13.6551 19.0452 13.8286 19.0597 14.001L19.985 14V9.522ZM8.7207 9.06894V10.0689L5.969 10.068L5.96989 10.069H5.43714C5.16348 10.069 4.94161 9.85322 4.94161 9.58703V9.06883L8.7207 9.06894ZM16.488 5.423H13.37V8.522H19.697L16.488 5.423ZM7.99591 6.34713V7.34713L2.49553 7.34722C2.22187 7.34722 2 7.13141 2 6.86522V6.34702L7.99591 6.34713Z" fill="#495057"/>
</g>
</g>
<defs>
<clipPath id="clip0_2_4536">
<rect width="24" height="24" fill="white" transform="translate(0 -2)"/>
</clipPath>
<clipPath id="clip1_2_4536">
<rect width="24" height="24" fill="white" transform="translate(0 -2)"/>
</clipPath>
</defs>
</svg>
