<svg width="10" height="10" viewBox="0 0 10 10" fill="none" xmlns="http://www.w3.org/2000/svg">
<g clip-path="url(#clip0_4_2623)">
<g clip-path="url(#clip1_4_2623)">
<g clip-path="url(#clip2_4_2623)">
<path fill-rule="evenodd" clip-rule="evenodd" d="M3 5.5C3.41421 5.5 3.75 5.83579 3.75 6.25C3.75 6.66421 3.41421 7 3 7C2.58579 7 2.25 6.66421 2.25 6.25C2.25 5.83579 2.58579 5.5 3 5.5ZM5 5.5C5.41421 5.5 5.75 5.83579 5.75 6.25C5.75 6.66421 5.41421 7 5 7C4.58579 7 4.25 6.66421 4.25 6.25C4.25 5.83579 4.58579 5.5 5 5.5ZM7 5.5C7.41421 5.5 7.75 5.83579 7.75 6.25C7.75 6.66421 7.41421 7 7 7C6.58579 7 6.25 6.66421 6.25 6.25C6.25 5.83579 6.58579 5.5 7 5.5Z" fill="#111111"/>
<path fill-rule="evenodd" clip-rule="evenodd" d="M7 0C7.55228 0 8 0.447715 8 1H9C9.55229 1 10 1.44772 10 2V9C10 9.55229 9.55229 10 9 10H1C0.447715 10 0 9.55229 0 9V2C0 1.44772 0.447715 1 1 1H2C2 0.447715 2.44772 0 3 0C3.55228 0 4 0.447715 4 1H6C6 0.447715 6.44772 0 7 0ZM8.5 4H1.5C1.22386 4 1 4.22386 1 4.5V8.5C1 8.77614 1.22386 9 1.5 9H8.5C8.77614 9 9 8.77614 9 8.5V4.5C9 4.22386 8.77614 4 8.5 4Z" fill="#111111"/>
</g>
</g>
</g>
<defs>
<clipPath id="clip0_4_2623">
<rect width="10" height="10" fill="white"/>
</clipPath>
<clipPath id="clip1_4_2623">
<rect width="10" height="10" fill="white"/>
</clipPath>
<clipPath id="clip2_4_2623">
<rect width="10" height="10" fill="white"/>
</clipPath>
</defs>
</svg>
