<svg width="12" height="12" viewBox="0 0 12 12" fill="none" xmlns="http://www.w3.org/2000/svg">
<g clip-path="url(#clip0_4_1379)">
<g clip-path="url(#clip1_4_1379)">
<path d="M5.99995 10.1227L3.14245 11.889C2.7907 12.1065 2.33095 11.994 2.1157 11.6381C2.01295 11.4679 1.98145 11.2631 2.02682 11.0685L2.80345 7.77225L0.260947 5.568C0.110352 5.4365 0.0174351 5.25112 0.0022143 5.05177C-0.0130065 4.85243 0.0506865 4.65508 0.179572 4.50225C0.242853 4.42727 0.320311 4.36552 0.407507 4.32054C0.494702 4.27556 0.589919 4.24823 0.687697 4.24012L4.02445 3.96975L5.31032 0.840374C5.36596 0.703053 5.46133 0.585472 5.58422 0.502697C5.70711 0.419922 5.85191 0.375723 6.00007 0.375763C6.14824 0.375803 6.29302 0.420081 6.41586 0.502923C6.5387 0.585765 6.63401 0.703398 6.68957 0.840749L7.97507 3.96975L11.3126 4.24012C11.5112 4.25758 11.6949 4.35306 11.8233 4.50565C11.9517 4.65825 12.0144 4.85551 11.9977 5.05425C11.9822 5.2528 11.8892 5.43731 11.7389 5.568L9.19607 7.77225L9.97307 11.0685C10.0197 11.2626 9.98779 11.4674 9.88419 11.638C9.78058 11.8087 9.61371 11.9316 9.41995 11.9797C9.32482 12.0025 9.22612 12.0062 9.12957 11.9905C9.03302 11.9749 8.94053 11.9402 8.85745 11.8886L5.99995 10.1227Z" fill="#FFBE1A"/>
</g>
</g>
<defs>
<clipPath id="clip0_4_1379">
<rect width="12" height="12" fill="white"/>
</clipPath>
<clipPath id="clip1_4_1379">
<rect width="12" height="12" fill="white"/>
</clipPath>
</defs>
</svg>
