<svg width="28" height="29" viewBox="0 0 28 29" fill="none" xmlns="http://www.w3.org/2000/svg">
<g clip-path="url(#clip0_1_1282)">
<g clip-path="url(#clip1_1_1282)">
<g clip-path="url(#clip2_1_1282)">
<path d="M15.6638 21.4408L13.4638 23.7568L13.4408 23.7338L13.4178 23.7568L4.57483 14.4728L4.49283 14.3728C3.95158 13.7961 3.53767 13.1121 3.27799 12.3651C3.01831 11.6181 2.91866 10.8248 2.98552 10.0368C3.05237 9.2488 3.28423 8.48365 3.66605 7.79108C4.04786 7.0985 4.57108 6.49398 5.20174 6.01677C5.83239 5.53957 6.55637 5.20036 7.32665 5.02117C8.09693 4.84198 8.89629 4.82681 9.67282 4.97667C10.4493 5.12652 11.1857 5.43803 11.834 5.89098C12.4823 6.34392 13.028 6.92816 13.4358 7.60577C13.8328 6.94962 14.3594 6.38132 14.9834 5.9356C15.6075 5.48988 16.3159 5.17611 17.0653 5.01347C17.8147 4.85082 18.5894 4.84272 19.3421 4.98966C20.0948 5.1366 20.8096 5.43549 21.4428 5.86806C22.076 6.30063 22.6144 6.8578 23.025 7.5055C23.4356 8.1532 23.7098 8.87783 23.8308 9.6351C23.9518 10.3924 23.9171 11.1664 23.7289 11.9098C23.5406 12.6532 23.2027 13.3504 22.7358 13.9588C23.6274 14.3624 24.3856 15.0114 24.9218 15.8301C25.458 16.6488 25.7501 17.6032 25.7638 18.5818C25.7181 19.9985 25.1122 21.3392 24.0789 22.3097C23.0457 23.2801 21.6697 23.8009 20.2528 23.7578C19.3585 23.7661 18.4751 23.5601 17.6767 23.157C16.8784 22.7538 16.1881 22.1654 15.6638 21.4408Z" stroke="black" stroke-width="1.2" stroke-miterlimit="10" stroke-linejoin="round"/>
<path d="M20.1001 24.5C23.4138 24.5 26.1001 21.8137 26.1001 18.5C26.1001 15.1863 23.4138 12.5 20.1001 12.5C16.7864 12.5 14.1001 15.1863 14.1001 18.5C14.1001 21.8137 16.7864 24.5 20.1001 24.5Z" stroke="white"/>
<path d="M13.5947 15.8008L14.918 18.8219L17.2759 16.6506" stroke="black" stroke-width="1.2"/>
<path d="M20.04 15.9189V19.0889L21.815 20.5719" stroke="black" stroke-width="1.2" stroke-miterlimit="10" stroke-linejoin="round"/>
<path d="M15.7301 20.8998C16.1386 21.7126 16.771 22.3916 17.5527 22.8569C18.3344 23.3222 19.2328 23.5543 20.1421 23.5258C21.1431 23.5258 22.1216 23.229 22.9539 22.6728C23.7862 22.1167 24.4349 21.3262 24.8179 20.4013C25.2009 19.4765 25.3011 18.4589 25.1057 17.4771C24.9104 16.4953 24.4283 15.5935 23.7204 14.8858C23.0125 14.178 22.1106 13.6961 21.1288 13.5009C20.147 13.3058 19.1294 13.4061 18.2046 13.7893C17.2798 14.1726 16.4895 14.8214 15.9335 15.6538C15.3775 16.4862 15.0809 17.4648 15.0811 18.4658L15.0921 18.6898" stroke="black" stroke-width="1.2" stroke-linecap="round"/>
</g>
</g>
</g>
<defs>
<clipPath id="clip0_1_1282">
<rect width="28" height="28" fill="white" transform="translate(0 0.5)"/>
</clipPath>
<clipPath id="clip1_1_1282">
<rect width="28" height="28" fill="white" transform="translate(0 0.5)"/>
</clipPath>
<clipPath id="clip2_1_1282">
<rect width="28" height="28" fill="white" transform="translate(0 0.5)"/>
</clipPath>
</defs>
</svg>
