<svg width="16" height="16" viewBox="0 0 16 16" fill="none" xmlns="http://www.w3.org/2000/svg">
<g clip-path="url(#clip0_212_434)">
<g clip-path="url(#clip1_212_434)">
<path d="M7.99993 13.497L4.18993 15.852C3.72093 16.142 3.10793 15.992 2.82093 15.5175C2.68393 15.2905 2.64193 15.0175 2.70243 14.758L3.73793 10.363L0.347929 7.42396C0.147136 7.24863 0.0232469 7.00145 0.0029524 6.73566C-0.0173421 6.46986 0.067582 6.20674 0.239429 6.00296C0.323803 5.90299 0.427082 5.82065 0.543342 5.76068C0.659602 5.7007 0.786558 5.66427 0.916929 5.65346L5.36593 5.29296L7.08043 1.12046C7.15461 0.937364 7.28178 0.780589 7.44563 0.670222C7.60948 0.559855 7.80255 0.500923 8.0001 0.500977C8.19765 0.50103 8.39069 0.560067 8.55448 0.670523C8.71826 0.78098 8.84534 0.937823 8.91943 1.12096L10.6334 5.29296L15.0834 5.65346C15.3483 5.67673 15.5932 5.80404 15.7644 6.0075C15.9356 6.21096 16.0192 6.47398 15.9969 6.73896C15.9762 7.0037 15.8523 7.2497 15.6519 7.42396L12.2614 10.363L13.2974 14.758C13.3597 15.0168 13.3171 15.2898 13.1789 15.5173C13.0408 15.7449 12.8183 15.9087 12.5599 15.973C12.4331 16.0033 12.3015 16.0082 12.1728 15.9873C12.044 15.9665 11.9207 15.9203 11.8099 15.8515L7.99993 13.497Z" fill="#FFBE1A"/>
</g>
</g>
<defs>
<clipPath id="clip0_212_434">
<rect width="16" height="16" fill="white"/>
</clipPath>
<clipPath id="clip1_212_434">
<rect width="16" height="16" fill="white"/>
</clipPath>
</defs>
</svg>
