<svg width="16" height="16" viewBox="0 0 16 16" fill="none" xmlns="http://www.w3.org/2000/svg">
<g clip-path="url(#clip0_2_4479)">
<g clip-path="url(#clip1_2_4479)">
<path d="M8.00005 13.497L4.19005 15.852C3.72105 16.142 3.10805 15.992 2.82105 15.5175C2.68405 15.2905 2.64205 15.0175 2.70255 14.758L3.73805 10.363L0.348051 7.42396C0.147258 7.24863 0.0233689 7.00145 0.00307447 6.73566C-0.01722 6.46986 0.067704 6.20674 0.239551 6.00296C0.323926 5.90299 0.427204 5.82065 0.543464 5.76068C0.659725 5.7007 0.78668 5.66427 0.917051 5.65346L5.36605 5.29296L7.08055 1.12046C7.15474 0.937364 7.2819 0.780589 7.44575 0.670222C7.6096 0.559855 7.80267 0.500923 8.00022 0.500977C8.19777 0.50103 8.39081 0.560067 8.5546 0.670523C8.71839 0.78098 8.84547 0.937823 8.91955 1.12096L10.6336 5.29296L15.0836 5.65346C15.3484 5.67673 15.5933 5.80404 15.7645 6.0075C15.9358 6.21096 16.0194 6.47398 15.9971 6.73896C15.9763 7.0037 15.8524 7.2497 15.6521 7.42396L12.2616 10.363L13.2976 14.758C13.3598 15.0168 13.3172 15.2898 13.179 15.5173C13.0409 15.7449 12.8184 15.9087 12.5601 15.973C12.4332 16.0033 12.3016 16.0082 12.1729 15.9873C12.0441 15.9665 11.9208 15.9203 11.8101 15.8515L8.00005 13.497Z" fill="#FFBE1A"/>
</g>
</g>
<defs>
<clipPath id="clip0_2_4479">
<rect width="16" height="16" fill="white"/>
</clipPath>
<clipPath id="clip1_2_4479">
<rect width="16" height="16" fill="white"/>
</clipPath>
</defs>
</svg>
