<svg width="13" height="12" viewBox="0 0 13 12" fill="none" xmlns="http://www.w3.org/2000/svg">
<g clip-path="url(#clip0_0_944)">
<g clip-path="url(#clip1_0_944)">
<path d="M6.8299 10.1227L3.9724 11.889C3.62065 12.1065 3.1609 11.994 2.94565 11.6381C2.8429 11.4678 2.8114 11.2631 2.85678 11.0685L3.6334 7.77222L1.0909 5.56797C0.940308 5.43647 0.847391 5.25109 0.83217 5.05174C0.81695 4.8524 0.880643 4.65505 1.00953 4.50222C1.07281 4.42724 1.15027 4.36549 1.23746 4.32051C1.32466 4.27553 1.41987 4.2482 1.51765 4.24009L4.8544 3.96972L6.14028 0.840344C6.19592 0.703023 6.29129 0.585442 6.41418 0.502666C6.53706 0.419891 6.68187 0.375692 6.83003 0.375732C6.97819 0.375773 7.12297 0.420051 7.24581 0.502893C7.36865 0.585735 7.46396 0.703368 7.51953 0.840719L8.80503 3.96972L12.1425 4.24009C12.3412 4.25755 12.5249 4.35303 12.6533 4.50562C12.7817 4.65822 12.8444 4.85548 12.8277 5.05422C12.8121 5.25277 12.7192 5.43728 12.5689 5.56797L10.026 7.77222L10.803 11.0685C10.8497 11.2626 10.8177 11.4673 10.7141 11.638C10.6105 11.8087 10.4437 11.9315 10.2499 11.9797C10.1548 12.0025 10.0561 12.0061 9.95953 11.9905C9.86298 11.9748 9.77049 11.9402 9.6874 11.8886L6.8299 10.1227Z" fill="#FFBE1A"/>
</g>
</g>
<defs>
<clipPath id="clip0_0_944">
<rect width="12" height="12" fill="white" transform="translate(0.829956)"/>
</clipPath>
<clipPath id="clip1_0_944">
<rect width="12" height="12" fill="white" transform="translate(0.829956)"/>
</clipPath>
</defs>
</svg>
