<svg width="17" height="17" viewBox="0 0 17 17" fill="none" xmlns="http://www.w3.org/2000/svg">
<g clip-path="url(#clip0_212_443)">
<g clip-path="url(#clip1_212_443)">
<mask id="mask0_212_443" style="mask-type:luminance" maskUnits="userSpaceOnUse" x="-121" y="-566" width="376" height="1787">
<path d="M254.83 -565.22V1220.78H-120.17V-565.22H254.83Z" fill="white"/>
</mask>
<g mask="url(#mask0_212_443)">
<mask id="mask1_212_443" style="mask-type:luminance" maskUnits="userSpaceOnUse" x="1" y="5" width="5" height="5">
<path d="M3.58008 5.61328C4.04421 5.61328 4.48933 5.79766 4.81751 6.12584C5.1457 6.45403 5.33008 6.89915 5.33008 7.36328C5.33008 7.82741 5.1457 8.27253 4.81751 8.60072C4.48933 8.92891 4.04421 9.11328 3.58008 9.11328C3.11595 9.11328 2.67083 8.92891 2.34264 8.60072C2.01445 8.27253 1.83008 7.82741 1.83008 7.36328C1.83008 6.89915 2.01445 6.45403 2.34264 6.12584C2.67083 5.79766 3.11595 5.61328 3.58008 5.61328Z" fill="white"/>
</mask>
<g mask="url(#mask1_212_443)">
<path d="M1.83008 5.61328H5.33008V9.11328H1.83008V5.61328Z" fill="#CCD2D7"/>
</g>
<mask id="mask2_212_443" style="mask-type:luminance" maskUnits="userSpaceOnUse" x="0" y="8" width="7" height="7">
<path d="M3.58008 8.61328C4.30942 8.61328 5.0089 8.90301 5.52462 9.41874C6.04035 9.93446 6.33008 10.6339 6.33008 11.3633V14.1133C6.33008 14.2459 6.2774 14.3731 6.18363 14.4668C6.08986 14.5606 5.96269 14.6133 5.83008 14.6133H1.33008C1.19747 14.6133 1.07029 14.5606 0.976525 14.4668C0.882757 14.3731 0.830078 14.2459 0.830078 14.1133V11.3633C0.830043 10.663 1.09717 9.98907 1.57697 9.47898C2.05677 8.96889 2.7131 8.66106 3.41208 8.61828L3.58008 8.61328Z" fill="white"/>
</mask>
<g mask="url(#mask2_212_443)">
<path d="M0.830078 8.61328H6.33008V14.6133H0.830078V8.61328Z" fill="#CCD2D7"/>
</g>
<mask id="mask3_212_443" style="mask-type:luminance" maskUnits="userSpaceOnUse" x="12" y="5" width="4" height="5">
<path d="M14.0801 5.61328C14.5442 5.61328 14.9893 5.79766 15.3175 6.12584C15.6457 6.45403 15.8301 6.89915 15.8301 7.36328C15.8301 7.82741 15.6457 8.27253 15.3175 8.60072C14.9893 8.92891 14.5442 9.11328 14.0801 9.11328C13.6159 9.11328 13.1708 8.92891 12.8426 8.60072C12.5145 8.27253 12.3301 7.82741 12.3301 7.36328C12.3301 6.89915 12.5145 6.45403 12.8426 6.12584C13.1708 5.79766 13.6159 5.61328 14.0801 5.61328Z" fill="white"/>
</mask>
<g mask="url(#mask3_212_443)">
<path d="M12.3301 5.61328H15.8301V9.11328H12.3301V5.61328Z" fill="#CCD2D7"/>
</g>
<mask id="mask4_212_443" style="mask-type:luminance" maskUnits="userSpaceOnUse" x="11" y="8" width="6" height="7">
<path d="M14.0801 8.61328C14.8094 8.61328 15.5089 8.90301 16.0246 9.41874C16.5403 9.93446 16.8301 10.6339 16.8301 11.3633V14.1133C16.8301 14.2459 16.7774 14.3731 16.6836 14.4668C16.5899 14.5606 16.4627 14.6133 16.3301 14.6133H11.8301C11.6975 14.6133 11.5703 14.5606 11.4765 14.4668C11.3828 14.3731 11.3301 14.2459 11.3301 14.1133V11.3633C11.33 10.663 11.5972 9.98907 12.077 9.47898C12.5568 8.96889 13.2131 8.66106 13.9121 8.61828L14.0801 8.61328Z" fill="white"/>
</mask>
<g mask="url(#mask4_212_443)">
<path d="M11.3301 8.61328H16.8301V14.6133H11.3301V8.61328Z" fill="#CCD2D7"/>
</g>
<mask id="mask5_212_443" style="mask-type:luminance" maskUnits="userSpaceOnUse" x="6" y="2" width="6" height="6">
<path d="M8.83008 2.11328C9.55942 2.11328 10.2589 2.40301 10.7746 2.91874C11.2903 3.43446 11.5801 4.13394 11.5801 4.86328C11.5801 5.59263 11.2903 6.2921 10.7746 6.80783C10.2589 7.32355 9.55942 7.61328 8.83008 7.61328C8.10073 7.61328 7.40126 7.32355 6.88553 6.80783C6.36981 6.2921 6.08008 5.59263 6.08008 4.86328C6.08008 4.13394 6.36981 3.43446 6.88553 2.91874C7.40126 2.40301 8.10073 2.11328 8.83008 2.11328Z" fill="white"/>
</mask>
<g mask="url(#mask5_212_443)">
<path d="M6.08008 2.11328H11.5801V7.61328H6.08008V2.11328Z" fill="#ABB3BB"/>
</g>
<mask id="mask6_212_443" style="mask-type:luminance" maskUnits="userSpaceOnUse" x="4" y="7" width="9" height="10">
<path d="M8.83008 7.11328C9.89094 7.11328 10.9084 7.53471 11.6585 8.28485C12.4087 9.035 12.8301 10.0524 12.8301 11.1133V15.6133C12.8301 15.7459 12.7774 15.8731 12.6836 15.9668C12.5899 16.0606 12.4627 16.1133 12.3301 16.1133H5.33008C5.19747 16.1133 5.07029 16.0606 4.97652 15.9668C4.88276 15.8731 4.83008 15.7459 4.83008 15.6133V11.1133C4.83008 10.087 5.22451 9.10005 5.9318 8.35647C6.63909 7.61289 7.60512 7.16959 8.63008 7.11828L8.83008 7.11328Z" fill="white"/>
</mask>
<g mask="url(#mask6_212_443)">
<path d="M4.83008 7.11328H12.8301V16.1133H4.83008V7.11328Z" fill="#ABB3BB"/>
</g>
</g>
</g>
</g>
<defs>
<clipPath id="clip0_212_443">
<rect width="16" height="16" fill="white" transform="translate(0.830078 0.780273)"/>
</clipPath>
<clipPath id="clip1_212_443">
<rect width="16" height="16" fill="white" transform="translate(0.830078 0.780273)"/>
</clipPath>
</defs>
</svg>
