<svg width="13" height="12" viewBox="0 0 13 12" fill="none" xmlns="http://www.w3.org/2000/svg">
<g clip-path="url(#clip0_2_3450)">
<g clip-path="url(#clip1_2_3450)">
<path d="M6.83003 10.1227L3.97253 11.889C3.62078 12.1065 3.16103 11.994 2.94578 11.6381C2.84303 11.4678 2.81153 11.2631 2.8569 11.0685L3.63353 7.77222L1.09103 5.56797C0.94043 5.43647 0.847513 5.25109 0.832292 5.05174C0.817072 4.8524 0.880765 4.65505 1.00965 4.50222C1.07293 4.42724 1.15039 4.36549 1.23758 4.32051C1.32478 4.27553 1.42 4.2482 1.51778 4.24009L4.85453 3.96972L6.1404 0.840344C6.19604 0.703023 6.29141 0.585442 6.4143 0.502666C6.53718 0.419891 6.68199 0.375692 6.83015 0.375732C6.97832 0.375773 7.12309 0.420051 7.24594 0.502893C7.36878 0.585735 7.46409 0.703368 7.51965 0.840719L8.80515 3.96972L12.1427 4.24009C12.3413 4.25755 12.525 4.35303 12.6534 4.50562C12.7818 4.65822 12.8445 4.85548 12.8278 5.05422C12.8122 5.25277 12.7193 5.43728 12.569 5.56797L10.0262 7.77222L10.8032 11.0685C10.8498 11.2626 10.8179 11.4673 10.7143 11.638C10.6107 11.8087 10.4438 11.9315 10.25 11.9797C10.1549 12.0025 10.0562 12.0061 9.95965 11.9905C9.8631 11.9748 9.77061 11.9402 9.68753 11.8886L6.83003 10.1227Z" fill="#FFBE1A"/>
</g>
</g>
<defs>
<clipPath id="clip0_2_3450">
<rect width="12" height="12" fill="white" transform="translate(0.830078)"/>
</clipPath>
<clipPath id="clip1_2_3450">
<rect width="12" height="12" fill="white" transform="translate(0.830078)"/>
</clipPath>
</defs>
</svg>
