<svg width="21" height="21" viewBox="0 0 21 21" fill="none" xmlns="http://www.w3.org/2000/svg">
<g clip-path="url(#clip0_2_6782)">
<path d="M11.353 5.39262C11.353 5.39262 15.9607 -0.26214 15.9607 5.39262M11.353 5.39262C11.353 5.39262 6.74549 -0.26214 6.74549 5.39262M11.353 5.39262V9.58136M5.00395 9.58136H17.7024C18.3598 9.58136 18.8929 9.04836 18.8929 8.39087V6.58312C18.8929 5.92563 18.3598 5.39264 17.7024 5.39264H5.00395C4.34647 5.39264 3.81348 5.92563 3.81348 6.58312V8.39088C3.81348 9.04836 4.34647 9.58136 5.00395 9.58136ZM4.65131 9.58135H18.0551V15.5778C18.0551 16.8928 16.9892 17.9588 15.6742 17.9588H7.03226C5.71729 17.9588 4.65131 16.8928 4.65131 15.5778V9.58135Z" stroke="#F27935" stroke-width="1.14286" stroke-linecap="round" stroke-linejoin="round"/>
</g>
<defs>
<clipPath id="clip0_2_6782">
<rect width="20" height="20" fill="white" transform="translate(0.895264 0.419189)"/>
</clipPath>
</defs>
</svg>
