<svg width="40" height="45" viewBox="0 0 40 45" fill="none" xmlns="http://www.w3.org/2000/svg">
<path d="M6.41085 16.6182L20 4.99194L33.5892 16.6182C33.6907 16.705 33.75 16.8386 33.75 16.98V36.25C33.75 36.5032 33.5635 36.7083 33.3333 36.7083H24.1667C23.9365 36.7083 23.75 36.5032 23.75 36.25V30.2917C23.75 29.2791 23.0038 28.4583 22.0833 28.4583H17.9167C16.9962 28.4583 16.25 29.2791 16.25 30.2917V36.25C16.25 36.5032 16.0634 36.7083 15.8333 36.7083H6.66667C6.43655 36.7083 6.25 36.5032 6.25 36.25V16.98C6.25 16.8386 6.30937 16.705 6.41085 16.6182Z" stroke="#111111" stroke-width="1.5" stroke-linejoin="round"/>
</svg>
