<svg width="16" height="25" viewBox="0 0 16 25" fill="none" xmlns="http://www.w3.org/2000/svg">
<g clip-path="url(#clip0_2_1324)">
<g clip-path="url(#clip1_2_1324)">
<g clip-path="url(#clip2_2_1324)">
<path d="M8.33984 22.1429C10.0803 22.1429 11.7495 21.4515 12.9802 20.2208C14.2109 18.9901 14.9023 17.3209 14.9023 15.5804C14.9023 13.8399 14.2109 12.1707 12.9802 10.94C11.7495 9.70933 10.0803 9.01793 8.33984 9.01793C6.59949 9.01793 4.93042 9.70928 3.69981 10.9399C2.4692 12.1705 1.77784 13.8396 1.77784 15.5799C1.77784 17.3203 2.4692 18.9893 3.69981 20.22C4.93042 21.4506 6.59949 22.1429 8.33984 22.1429ZM8.33984 23.0799C6.35072 23.0799 4.44307 22.2897 3.03654 20.8832C1.63002 19.4767 0.839844 17.569 0.839844 15.5799C0.839844 13.5908 1.63002 11.6831 3.03654 10.2766C4.44307 8.8701 6.35072 8.07993 8.33984 8.07993C10.329 8.07993 12.2366 8.8701 13.6431 10.2766C15.0497 11.6831 15.8398 13.5908 15.8398 15.5799C15.8398 17.569 15.0497 19.4767 13.6431 20.8832C12.2366 22.2897 10.329 23.0799 8.33984 23.0799Z" fill="#BBBBBB"/>
<path fill-rule="evenodd" clip-rule="evenodd" d="M7.41283 17.3169C7.41283 16.7339 7.48283 16.2699 7.62483 15.9239C7.76683 15.5789 8.02483 15.2389 8.40183 14.9039C8.77883 14.5689 9.02983 14.2959 9.15483 14.0859C9.27693 13.8856 9.34162 13.6555 9.34183 13.4209C9.34183 12.7179 9.01683 12.3659 8.36783 12.3659C8.05983 12.3659 7.81383 12.4609 7.62783 12.6499C7.44283 12.8399 7.34583 13.0999 7.33783 13.4329H5.52783C5.53583 12.6379 5.79283 12.0159 6.29783 11.5669C6.80383 11.1169 7.49383 10.8919 8.36783 10.8919C9.24983 10.8919 9.93483 11.1059 10.4218 11.5319C10.9088 11.9589 11.1518 12.5619 11.1518 13.3399C11.1532 13.688 11.072 14.0314 10.9148 14.3419C10.7568 14.6559 10.4798 15.0049 10.0848 15.3879L9.57883 15.8679C9.26283 16.1719 9.08183 16.5279 9.03583 16.9359L9.01083 17.3159H7.41283V17.3169ZM7.23183 19.2329C7.23183 18.9539 7.32683 18.7239 7.51583 18.5429C7.70583 18.3629 7.94783 18.2719 8.24283 18.2719C8.53883 18.2719 8.78083 18.3619 8.97083 18.5429C9.06399 18.6315 9.13743 18.7388 9.18636 18.8577C9.2353 18.9765 9.25863 19.1044 9.25483 19.2329C9.25855 19.3594 9.23573 19.4852 9.18785 19.6024C9.13997 19.7195 9.06808 19.8253 8.97683 19.9129C8.79183 20.0929 8.54683 20.1829 8.24283 20.1829C7.93883 20.1829 7.69483 20.0929 7.50983 19.9129C7.41858 19.8253 7.3467 19.7195 7.29882 19.6024C7.25094 19.4852 7.22812 19.3594 7.23183 19.2329Z" fill="#BBBBBB"/>
</g>
</g>
</g>
<defs>
<clipPath id="clip0_2_1324">
<rect width="15" height="15" fill="white" transform="translate(0.839844 8.07993)"/>
</clipPath>
<clipPath id="clip1_2_1324">
<rect width="15" height="15" fill="white" transform="translate(0.839844 8.07993)"/>
</clipPath>
<clipPath id="clip2_2_1324">
<rect width="15" height="15" fill="white" transform="translate(0.839844 8.07993)"/>
</clipPath>
</defs>
</svg>
