<svg width="311" height="36" viewBox="0 0 311 36" fill="none" xmlns="http://www.w3.org/2000/svg">
<rect x="0.5" y="0.5" width="310" height="35" rx="9.5" fill="#FAFAFA"/>
<rect x="0.5" y="0.5" width="310" height="35" rx="9.5" stroke="#F2F4F5"/>
<path d="M21.0742 22.6566C24.357 22.6566 27.0183 19.9953 27.0183 16.7125C27.0183 13.4296 24.357 10.7683 21.0742 10.7683C17.7913 10.7683 15.13 13.4296 15.13 16.7125C15.13 19.9953 17.7913 22.6566 21.0742 22.6566Z" stroke="#660B68" stroke-width="1.08333"/>
<path d="M28.7475 25.1942C28.8661 25.3101 29.0258 25.3742 29.1917 25.3723C29.3575 25.3704 29.5157 25.3027 29.6317 25.1842C29.7476 25.0656 29.8117 24.9058 29.8098 24.74C29.8079 24.5742 29.7402 24.4159 29.6217 24.3L28.7475 25.1942ZM26.2675 21.0217C26.1489 20.9057 25.9892 20.8417 25.8233 20.8435C25.6575 20.8454 25.4993 20.9131 25.3833 21.0317C25.2674 21.1502 25.2033 21.31 25.2052 21.4758C25.2071 21.6416 25.2748 21.7999 25.3933 21.9158L26.2675 21.0217ZM29.6217 24.3L26.2675 21.0217L25.3933 21.9158L28.7475 25.1942L29.6217 24.3Z" fill="#660B68"/>
</svg>
