<svg width="44" height="44" viewBox="0 0 44 44" fill="none" xmlns="http://www.w3.org/2000/svg">
<path fill-rule="evenodd" clip-rule="evenodd" d="M29.75 22C29.75 21.8011 29.671 21.6103 29.5303 21.4697C29.3897 21.329 29.1989 21.25 29 21.25H15C14.8011 21.25 14.6103 21.329 14.4697 21.4697C14.329 21.6103 14.25 21.8011 14.25 22C14.25 22.1989 14.329 22.3897 14.4697 22.5303C14.6103 22.671 14.8011 22.75 15 22.75H29C29.1989 22.75 29.3897 22.671 29.5303 22.5303C29.671 22.3897 29.75 22.1989 29.75 22ZM29.75 17C29.75 16.8011 29.671 16.6103 29.5303 16.4697C29.3897 16.329 29.1989 16.25 29 16.25H15C14.8011 16.25 14.6103 16.329 14.4697 16.4697C14.329 16.6103 14.25 16.8011 14.25 17C14.25 17.1989 14.329 17.3897 14.4697 17.5303C14.6103 17.671 14.8011 17.75 15 17.75H29C29.1989 17.75 29.3897 17.671 29.5303 17.5303C29.671 17.3897 29.75 17.1989 29.75 17ZM29.75 27C29.75 26.8011 29.671 26.6103 29.5303 26.4697C29.3897 26.329 29.1989 26.25 29 26.25H15C14.8011 26.25 14.6103 26.329 14.4697 26.4697C14.329 26.6103 14.25 26.8011 14.25 27C14.25 27.1989 14.329 27.3897 14.4697 27.5303C14.6103 27.671 14.8011 27.75 15 27.75H29C29.1989 27.75 29.3897 27.671 29.5303 27.5303C29.671 27.3897 29.75 27.1989 29.75 27Z" fill="black"/>
</svg>
