<svg width="15" height="17" viewBox="0 0 15 17" fill="none" xmlns="http://www.w3.org/2000/svg">
<mask id="mask0_19_48" style="mask-type:luminance" maskUnits="userSpaceOnUse" x="1" y="3" width="13" height="13">
<path fill-rule="evenodd" clip-rule="evenodd" d="M3.21415 3.2793C2.03068 3.2793 1.07129 4.23869 1.07129 5.42215V10.4279C1.07129 11.6113 2.03068 12.5707 3.21415 12.5707H5.47713L6.78931 14.8135C6.99618 15.1672 7.50723 15.1672 7.71409 14.8135L9.02627 12.5707H11.2499C12.4334 12.5707 13.3927 11.6113 13.3927 10.4279V5.42215C13.3927 4.23869 12.4334 3.2793 11.2499 3.2793H3.21415Z" fill="white"/>
</mask>
<g mask="url(#mask0_19_48)">
<path d="M5.47715 12.5707L6.40194 12.0297L6.09163 11.4993H5.47715V12.5707ZM9.02629 12.5707V11.4993H8.4118L8.10151 12.0297L9.02629 12.5707ZM2.14274 5.42217C2.14274 4.83044 2.62244 4.35074 3.21416 4.35074V2.20789C1.43897 2.20789 -0.00012207 3.64698 -0.00012207 5.42217H2.14274ZM2.14274 10.4279V5.42217H-0.00012207V10.4279H2.14274ZM3.21416 11.4993C2.62244 11.4993 2.14274 11.0196 2.14274 10.4279H-0.00012207C-0.00012207 12.2031 1.43897 13.6422 3.21416 13.6422V11.4993ZM5.47715 11.4993H3.21416V13.6422H5.47715V11.4993ZM7.71411 14.2726L6.40194 12.0297L4.55237 13.1118L5.86455 15.3546L7.71411 14.2726ZM6.78933 14.2726C6.9962 13.919 7.50725 13.919 7.71411 14.2726L5.86455 15.3546C6.48514 16.4155 8.0183 16.4155 8.6389 15.3546L6.78933 14.2726ZM8.10151 12.0297L6.78933 14.2726L8.6389 15.3546L9.95108 13.1118L8.10151 12.0297ZM11.2499 11.4993H9.02629V13.6422H11.2499V11.4993ZM12.3213 10.4279C12.3213 11.0196 11.8416 11.4993 11.2499 11.4993V13.6422C13.0251 13.6422 14.4642 12.2031 14.4642 10.4279H12.3213ZM12.3213 5.42217V10.4279H14.4642V5.42217H12.3213ZM11.2499 4.35074C11.8416 4.35074 12.3213 4.83044 12.3213 5.42217H14.4642C14.4642 3.64698 13.0251 2.20789 11.2499 2.20789V4.35074ZM3.21416 4.35074H11.2499V2.20789H3.21416V4.35074Z" fill="#999999"/>
</g>
<path d="M4.66099 8.56027C5.10479 8.56027 5.46456 8.2005 5.46456 7.7567C5.46456 7.3129 5.10479 6.95312 4.66099 6.95312C4.21719 6.95312 3.85742 7.3129 3.85742 7.7567C3.85742 8.2005 4.21719 8.56027 4.66099 8.56027Z" fill="#999999"/>
<path d="M7.23216 8.56039C7.67596 8.56039 8.03573 8.20062 8.03573 7.75682C8.03573 7.31302 7.67596 6.95325 7.23216 6.95325C6.78836 6.95325 6.42859 7.31302 6.42859 7.75682C6.42859 8.20062 6.78836 8.56039 7.23216 8.56039Z" fill="#999999"/>
<path d="M9.80357 8.56039C10.2474 8.56039 10.6071 8.20062 10.6071 7.75682C10.6071 7.31302 10.2474 6.95325 9.80357 6.95325C9.35977 6.95325 9 7.31302 9 7.75682C9 8.20062 9.35977 8.56039 9.80357 8.56039Z" fill="#999999"/>
</svg>
