<svg width="20" height="20" viewBox="0 0 20 20" fill="none" xmlns="http://www.w3.org/2000/svg">
<g clip-path="url(#clip0_4_473)">
<path d="M12.5 7.29504V11.8784H7.5V7.29504" stroke="#8A8484" stroke-width="1.5" stroke-linecap="round" stroke-linejoin="round"/>
<path d="M6.25 8.12793L10 5.62793L13.75 8.12793" stroke="#8A8484" stroke-width="1.5" stroke-linecap="round" stroke-linejoin="round"/>
<path d="M17.5 8.12793C17.5 14.7112 11.7233 18.4037 10.3092 19.2112C10.2149 19.2652 10.1082 19.2935 9.99958 19.2935C9.891 19.2935 9.78425 19.2652 9.69 19.2112C8.27583 18.4029 2.5 14.7096 2.5 8.12793C2.5 6.13881 3.29018 4.23115 4.6967 2.82463C6.10323 1.41811 8.01087 0.62793 10 0.62793C11.9891 0.62793 13.8968 1.41811 15.3033 2.82463C16.7098 4.23115 17.5 6.13881 17.5 8.12793Z" stroke="#8A8484" stroke-width="1.5" stroke-linecap="round" stroke-linejoin="round"/>
</g>
<defs>
<clipPath id="clip0_4_473">
<rect width="20" height="20" fill="white"/>
</clipPath>
</defs>
</svg>
