<svg width="27" height="23" viewBox="0 0 27 23" fill="none" xmlns="http://www.w3.org/2000/svg">
<g clip-path="url(#clip0_19_544)">
<path d="M2.62817 3.58545H5.55906L7.80184 13.252H17.433L19.4509 5.61312H6.70306M16.4674 18.5369C16.6527 18.5424 16.8374 18.5106 17.0104 18.4435C17.1832 18.3764 17.3408 18.2752 17.4739 18.146C17.607 18.0168 17.7128 17.8622 17.7851 17.6913C17.8574 17.5206 17.8945 17.337 17.8945 17.1515C17.8945 16.9661 17.8574 16.7824 17.7851 16.6116C17.7128 16.4408 17.607 16.2862 17.4739 16.157C17.3408 16.0278 17.1832 15.9267 17.0104 15.8595C16.8374 15.7924 16.6527 15.7606 16.4674 15.7661C16.1071 15.7769 15.7652 15.9274 15.5141 16.1861C15.2629 16.4448 15.1225 16.7911 15.1225 17.1515C15.1225 17.5119 15.2629 17.8583 15.5141 18.1169C15.7652 18.3755 16.1071 18.5262 16.4674 18.5369ZM8.68795 18.5369C8.87334 18.5424 9.05795 18.5106 9.23085 18.4435C9.40375 18.3764 9.56141 18.2752 9.69449 18.146C9.82758 18.0168 9.93337 17.8622 10.0056 17.6913C10.0779 17.5206 10.1151 17.337 10.1151 17.1515C10.1151 16.9661 10.0779 16.7824 10.0056 16.6116C9.93337 16.4408 9.82758 16.2862 9.69449 16.157C9.56141 16.0278 9.40375 15.9267 9.23085 15.8595C9.05795 15.7924 8.87334 15.7606 8.68795 15.7661C8.32764 15.7769 7.98569 15.9274 7.73461 16.1861C7.48354 16.4448 7.3431 16.7911 7.3431 17.1515C7.3431 17.5119 7.48354 17.8583 7.73461 18.1169C7.98569 18.3755 8.32764 18.5262 8.68795 18.5369Z" stroke="#333333" stroke-width="1.22222" stroke-linecap="square" stroke-linejoin="round"/>
</g>
<defs>
<clipPath id="clip0_19_544">
<rect width="22" height="22" fill="white" transform="translate(0.752197 0.285645)"/>
</clipPath>
</defs>
</svg>
