<svg width="27" height="23" viewBox="0 0 27 23" fill="none" xmlns="http://www.w3.org/2000/svg">
<g clip-path="url(#clip0_19_116)">
<path d="M2.7207 3.81339H5.65159L7.89437 13.4799H17.5255L19.5434 5.84105H6.79559M16.56 18.7648C16.7453 18.7703 16.9299 18.7385 17.1029 18.6714C17.2757 18.6043 17.4334 18.5031 17.5665 18.374C17.6996 18.2448 17.8053 18.0902 17.8777 17.9193C17.9499 17.7485 17.987 17.565 17.987 17.3794C17.987 17.194 17.9499 17.0103 17.8777 16.8396C17.8053 16.6687 17.6996 16.5141 17.5665 16.3849C17.4334 16.2557 17.2757 16.1546 17.1029 16.0874C16.9299 16.0203 16.7453 15.9885 16.56 15.994C16.1997 16.0048 15.8577 16.1554 15.6066 16.414C15.3555 16.6727 15.215 17.019 15.215 17.3794C15.215 17.7399 15.3555 18.0862 15.6066 18.3449C15.8577 18.6035 16.1997 18.7542 16.56 18.7648ZM8.78048 18.7648C8.96587 18.7703 9.15048 18.7385 9.32338 18.6714C9.49627 18.6043 9.65394 18.5031 9.78702 18.374C9.92011 18.2448 10.0259 18.0902 10.0982 17.9193C10.1704 17.7485 10.2076 17.565 10.2076 17.3794C10.2076 17.194 10.1704 17.0103 10.0982 16.8396C10.0259 16.6687 9.92011 16.5141 9.78702 16.3849C9.65394 16.2557 9.49627 16.1546 9.32338 16.0874C9.15048 16.0203 8.96587 15.9885 8.78048 15.994C8.42017 16.0048 8.07822 16.1554 7.82714 16.414C7.57607 16.6727 7.43563 17.019 7.43563 17.3794C7.43563 17.7399 7.57607 18.0862 7.82714 18.3449C8.07822 18.6035 8.42017 18.7542 8.78048 18.7648Z" stroke="#333333" stroke-width="1.22222" stroke-linecap="square" stroke-linejoin="round"/>
</g>
<defs>
<clipPath id="clip0_19_116">
<rect width="22" height="22" fill="white" transform="translate(0.844727 0.51358)"/>
</clipPath>
</defs>
</svg>
