<svg width="27" height="23" viewBox="0 0 27 23" fill="none" xmlns="http://www.w3.org/2000/svg">
<g clip-path="url(#clip0_19_131)">
<path d="M2.7439 3.81339H5.67479L7.91756 13.4799H17.5487L19.5666 5.84105H6.81879M16.5832 18.7648C16.7685 18.7703 16.9531 18.7385 17.1261 18.6714C17.2989 18.6043 17.4566 18.5031 17.5897 18.374C17.7228 18.2448 17.8285 18.0902 17.9008 17.9193C17.9731 17.7485 18.0102 17.565 18.0102 17.3794C18.0102 17.194 17.9731 17.0103 17.9008 16.8396C17.8285 16.6687 17.7228 16.5141 17.5897 16.3849C17.4566 16.2557 17.2989 16.1546 17.1261 16.0874C16.9531 16.0203 16.7685 15.9885 16.5832 15.994C16.2229 16.0048 15.8809 16.1554 15.6298 16.414C15.3787 16.6727 15.2382 17.019 15.2382 17.3794C15.2382 17.7399 15.3787 18.0862 15.6298 18.3449C15.8809 18.6035 16.2229 18.7542 16.5832 18.7648ZM8.80367 18.7648C8.98906 18.7703 9.17368 18.7385 9.34657 18.6714C9.51947 18.6043 9.67714 18.5031 9.81021 18.374C9.9433 18.2448 10.0491 18.0902 10.1214 17.9193C10.1936 17.7485 10.2308 17.565 10.2308 17.3794C10.2308 17.194 10.1936 17.0103 10.1214 16.8396C10.0491 16.6687 9.9433 16.5141 9.81021 16.3849C9.67714 16.2557 9.51947 16.1546 9.34657 16.0874C9.17368 16.0203 8.98906 15.9885 8.80367 15.994C8.44336 16.0048 8.10141 16.1554 7.85033 16.414C7.59926 16.6727 7.45883 17.019 7.45883 17.3794C7.45883 17.7399 7.59926 18.0862 7.85033 18.3449C8.10141 18.6035 8.44336 18.7542 8.80367 18.7648Z" stroke="#333333" stroke-width="1.22222" stroke-linecap="square" stroke-linejoin="round"/>
</g>
<defs>
<clipPath id="clip0_19_131">
<rect width="22" height="22" fill="white" transform="translate(0.86792 0.51358)"/>
</clipPath>
</defs>
</svg>
