<svg width="20" height="23" viewBox="0 0 20 23" fill="none" xmlns="http://www.w3.org/2000/svg">
<path fill-rule="evenodd" clip-rule="evenodd" d="M7.65019 20.498C8.00077 20.2939 8.44982 20.4137 8.65318 20.7655C8.78716 20.9974 8.97947 21.1898 9.21084 21.3236C9.44221 21.4573 9.70454 21.5277 9.97155 21.5277C10.2386 21.5277 10.5009 21.4573 10.7323 21.3236C10.9636 21.1898 11.1559 20.9974 11.2899 20.7655C11.4933 20.4137 11.9423 20.2939 12.293 20.498C12.6435 20.7021 12.7628 21.1529 12.5594 21.5047C12.2964 21.9598 11.919 22.3375 11.4648 22.6001C11.0106 22.8627 10.4956 23.0009 9.97155 23.0009C9.44742 23.0009 8.93249 22.8627 8.4783 22.6001C8.02412 22.3375 7.64664 21.9598 7.38364 21.5047C7.18028 21.1529 7.29962 20.7021 7.65019 20.498Z" fill="#585D68"/>
<path fill-rule="evenodd" clip-rule="evenodd" d="M3.04824 7.51488C3.04824 3.36453 6.14859 0 9.97309 0C13.7976 0 16.8979 3.36453 16.8979 7.51488V10.34C16.8979 12.5016 17.7609 13.3044 18.7726 14.7952C19.2442 15.49 19.2248 16.3842 18.9683 17.0569C18.7114 17.7305 18.1244 18.4 17.2623 18.4H2.68378C1.82166 18.4 1.23472 17.7305 0.977847 17.0569C0.7213 16.3842 0.701893 15.49 1.17344 14.7952C2.1853 13.3044 3.04824 12.5016 3.04824 10.34V7.51488ZM9.97309 1.46908C6.89623 1.46908 4.40196 4.17588 4.40196 7.51488V10.34C4.40196 12.9228 3.37657 14.0264 2.2634 15.6665C2.14147 15.8461 2.10437 16.1692 2.22869 16.4952C2.35269 16.8203 2.54516 16.9309 2.68378 16.9309H17.2623C17.401 16.9309 17.5934 16.8203 17.7175 16.4952C17.8417 16.1692 17.8046 15.8461 17.6828 15.6665C16.5696 14.0264 15.5442 12.9228 15.5442 10.34V7.51488C15.5442 4.17588 13.0499 1.46908 9.97309 1.46908Z" fill="#585D68"/>
</svg>
