<svg width="26" height="22" viewBox="0 0 26 22" fill="none" xmlns="http://www.w3.org/2000/svg">
<g clip-path="url(#clip0_2_5412)">
<path d="M1.87097 3.2998H4.80186L7.04464 12.9663H16.6758L18.6937 5.32747H5.94586M15.7102 18.2512C15.8955 18.2567 16.0802 18.225 16.2532 18.1579C16.426 18.0908 16.5836 17.9896 16.7167 17.8604C16.8498 17.7312 16.9556 17.5766 17.0279 17.4057C17.1002 17.235 17.1373 17.0514 17.1373 16.8658C17.1373 16.6804 17.1002 16.4967 17.0279 16.326C16.9556 16.1551 16.8498 16.0005 16.7167 15.8713C16.5836 15.7421 16.426 15.6411 16.2532 15.5738C16.0802 15.5067 15.8955 15.475 15.7102 15.4805C15.3499 15.4912 15.008 15.6418 14.7569 15.9004C14.5057 16.1592 14.3653 16.5054 14.3653 16.8658C14.3653 17.2263 14.5057 17.5727 14.7569 17.8313C15.008 18.0899 15.3499 18.2406 15.7102 18.2512ZM7.93075 18.2512C8.11614 18.2567 8.30075 18.225 8.47365 18.1579C8.64654 18.0908 8.80421 17.9896 8.93729 17.8604C9.07037 17.7312 9.17617 17.5766 9.24843 17.4057C9.32067 17.235 9.3579 17.0514 9.3579 16.8658C9.3579 16.6804 9.32067 16.4967 9.24843 16.326C9.17617 16.1551 9.07037 16.0005 8.93729 15.8713C8.80421 15.7421 8.64654 15.6411 8.47365 15.5738C8.30075 15.5067 8.11614 15.475 7.93075 15.4805C7.57044 15.4912 7.22848 15.6418 6.9774 15.9004C6.72633 16.1592 6.5859 16.5054 6.5859 16.8658C6.5859 17.2263 6.72633 17.5727 6.9774 17.8313C7.22848 18.0899 7.57044 18.2406 7.93075 18.2512Z" stroke="#333333" stroke-width="1.22222" stroke-linecap="square" stroke-linejoin="round"/>
</g>
<defs>
<clipPath id="clip0_2_5412">
<rect width="22" height="22" fill="white" transform="translate(-0.00500488)"/>
</clipPath>
</defs>
</svg>
