<svg width="8" height="9" viewBox="0 0 8 9" fill="none" xmlns="http://www.w3.org/2000/svg">
<path fill-rule="evenodd" clip-rule="evenodd" d="M4.60541 1.03363C4.56777 0.732771 4.31107 0.5 4 0.5C3.66301 0.5 3.38983 0.773182 3.38983 1.11017V3.88983H0.610169L0.533631 3.89459C0.232771 3.93223 0 4.18893 0 4.5C0 4.83699 0.273182 5.11017 0.610169 5.11017H3.38983V7.8898L3.39459 7.9664C3.43223 8.2672 3.68893 8.5 4 8.5C4.33699 8.5 4.61017 8.2268 4.61017 7.8898V5.11017H7.3898L7.4664 5.10541C7.7672 5.06777 8 4.81107 8 4.5C8 4.16301 7.7268 3.88983 7.3898 3.88983H4.61017V1.11017L4.60541 1.03363Z" fill="white"/>
</svg>
