<svg width="13" height="14" viewBox="0 0 13 14" fill="none" xmlns="http://www.w3.org/2000/svg">
<path fill-rule="evenodd" clip-rule="evenodd" d="M10.1108 12.7119L6.50019 10.0888L2.88893 12.7119C2.76919 12.8001 2.60635 12.7994 2.48661 12.7119C2.36688 12.6244 2.31624 12.47 2.36277 12.3292L3.75035 8.11365L0.142506 5.52952C0.0220845 5.44272 -0.0292313 5.28826 0.0166109 5.14679C0.0617688 5.00531 0.193137 4.90963 0.342295 4.90963H4.8054L6.17451 0.711186C6.26688 0.429605 6.73351 0.429605 6.82519 0.711186L8.19498 4.90963H12.6581C12.8066 4.90963 12.9379 5.00531 12.9838 5.14679C13.0289 5.28826 12.9776 5.44272 12.8572 5.52952L9.24935 8.11365L10.6369 12.3292C10.6835 12.47 10.6335 12.6244 10.5131 12.7119C10.4536 12.7557 10.3831 12.7775 10.3119 12.7775C10.2415 12.7775 10.1703 12.7557 10.1108 12.7119Z" fill="#CCCCCC"/>
</svg>
