<svg width="21" height="21" viewBox="0 0 21 21" fill="none" xmlns="http://www.w3.org/2000/svg">
<path d="M1.3125 2.84375C1.07088 2.84375 0.875 3.03963 0.875 3.28125C0.875 3.52287 1.07088 3.71875 1.3125 3.71875H19.6875C19.9291 3.71875 20.125 3.52287 20.125 3.28125C20.125 3.03963 19.9291 2.84375 19.6875 2.84375H1.3125Z" fill="black"/>
<path d="M9.1875 7.65625C8.94587 7.65625 8.75 7.85212 8.75 8.09375C8.75 8.33538 8.94587 8.53125 9.1875 8.53125H19.6875C19.9291 8.53125 20.125 8.33538 20.125 8.09375C20.125 7.85212 19.9291 7.65625 19.6875 7.65625H9.1875Z" fill="black"/>
<path d="M0.875 12.9062C0.875 12.6646 1.07088 12.4688 1.3125 12.4688H19.6875C19.9291 12.4688 20.125 12.6646 20.125 12.9062C20.125 13.1479 19.9291 13.3438 19.6875 13.3438H1.3125C1.07088 13.3438 0.875 13.1479 0.875 12.9062Z" fill="black"/>
<path d="M9.1875 17.2812C8.94587 17.2812 8.75 17.4771 8.75 17.7188C8.75 17.9604 8.94587 18.1562 9.1875 18.1562H19.6875C19.9291 18.1562 20.125 17.9604 20.125 17.7188C20.125 17.4771 19.9291 17.2812 19.6875 17.2812H9.1875Z" fill="black"/>
</svg>
