<svg width="15" height="15" viewBox="0 0 15 15" fill="none" xmlns="http://www.w3.org/2000/svg">
<path d="M7.19141 7.77778C8.11966 7.77778 9.0099 7.42659 9.66628 6.80147C10.3227 6.17635 10.6914 5.3285 10.6914 4.44444C10.6914 3.56039 10.3227 2.71254 9.66628 2.08742C9.0099 1.4623 8.11966 1.11111 7.19141 1.11111C6.26315 1.11111 5.37291 1.4623 4.71653 2.08742C4.06016 2.71254 3.69141 3.56039 3.69141 4.44444C3.69141 5.3285 4.06016 6.17635 4.71653 6.80147C5.37291 7.42659 6.26315 7.77778 7.19141 7.77778ZM7.19141 8.88889C5.95373 8.88889 4.76674 8.42064 3.89157 7.58714C3.0164 6.75365 2.52474 5.62318 2.52474 4.44444C2.52474 3.2657 3.0164 2.13524 3.89157 1.30175C4.76674 0.468253 5.95373 0 7.19141 0C8.42908 0 9.61607 0.468253 10.4912 1.30175C11.3664 2.13524 11.8581 3.2657 11.8581 4.44444C11.8581 5.62318 11.3664 6.75365 10.4912 7.58714C9.61607 8.42064 8.42908 8.88889 7.19141 8.88889ZM13.0247 14.4444V12.7778C13.0247 12.3358 12.8404 11.9118 12.5122 11.5993C12.184 11.2867 11.7389 11.1111 11.2747 11.1111H3.10807C2.64394 11.1111 2.19882 11.2867 1.87064 11.5993C1.54245 11.9118 1.35807 12.3358 1.35807 12.7778V14.4444C1.35807 14.5918 1.29661 14.7331 1.18722 14.8373C1.07782 14.9415 0.929449 15 0.77474 15C0.62003 15 0.471657 14.9415 0.362261 14.8373C0.252865 14.7331 0.191406 14.5918 0.191406 14.4444V12.7778C0.191406 12.0411 0.498697 11.3345 1.04568 10.8136C1.59266 10.2927 2.33452 10 3.10807 10H11.2747C12.0483 10 12.7902 10.2927 13.3371 10.8136C13.8841 11.3345 14.1914 12.0411 14.1914 12.7778V14.4444C14.1914 14.5918 14.1299 14.7331 14.0206 14.8373C13.9112 14.9415 13.7628 15 13.6081 15C13.4534 15 13.305 14.9415 13.1956 14.8373C13.0862 14.7331 13.0247 14.5918 13.0247 14.4444Z" fill="black"/>
</svg>
