<svg width="15" height="18" viewBox="0 0 15 18" fill="none" xmlns="http://www.w3.org/2000/svg">
<path d="M1.8075 18C1.34683 18 0.962498 17.846 0.654498 17.538C0.346498 17.23 0.192164 16.8457 0.191498 16.385V5.615C0.191498 5.155 0.345831 4.771 0.654498 4.463C0.963164 4.155 1.3475 4.00067 1.8075 4H3.6915V3.5C3.6915 2.528 4.03183 1.70167 4.7125 1.021C5.39316 0.340333 6.2195 0 7.1915 0C8.1635 0 8.98983 0.340333 9.6705 1.021C10.3512 1.70167 10.6915 2.528 10.6915 3.5V4H12.5765C13.0365 4 13.4205 4.15433 13.7285 4.463C14.0365 4.77167 14.1908 5.156 14.1915 5.616V16.385C14.1915 16.845 14.0372 17.2293 13.7285 17.538C13.4198 17.8467 13.0358 18.0007 12.5765 18H1.8075ZM1.8075 17H12.5765C12.7298 17 12.8708 16.936 12.9995 16.808C13.1282 16.68 13.1922 16.5387 13.1915 16.384V5.616C13.1915 5.462 13.1275 5.32067 12.9995 5.192C12.8715 5.06333 12.7302 4.99933 12.5755 5H10.6915V7.5C10.6915 7.64267 10.6438 7.76167 10.5485 7.857C10.4532 7.95233 10.3342 8 10.1915 8C10.0488 8 9.92983 7.95233 9.8345 7.857C9.73916 7.76167 9.6915 7.64267 9.6915 7.5V5H4.6915V7.5C4.6915 7.64267 4.64383 7.76167 4.5485 7.857C4.45317 7.95233 4.33416 8 4.1915 8C4.04883 8 3.92983 7.95233 3.8345 7.857C3.73916 7.76167 3.6915 7.64267 3.6915 7.5V5H1.8075C1.6535 5 1.51216 5.064 1.3835 5.192C1.25483 5.32 1.19083 5.46133 1.1915 5.616V16.385C1.1915 16.5383 1.2555 16.6793 1.3835 16.808C1.5115 16.9367 1.6525 17.0007 1.8065 17M4.6915 4H9.6915V3.5C9.6915 2.796 9.45083 2.20333 8.9695 1.722C8.48816 1.24067 7.8955 1 7.1915 1C6.4875 1 5.89483 1.24067 5.4135 1.722C4.93216 2.20333 4.6915 2.796 4.6915 3.5V4Z" fill="black"/>
</svg>
