<svg width="301" height="75" viewBox="0 0 301 75" fill="none" xmlns="http://www.w3.org/2000/svg">
<path d="M244.981 3C245.722 3.00005 246.443 2.70541 247.029 2.16238C247.615 1.61935 248.034 0.858708 248.22 0H291.385C296.695 0 301 5.149 301 11.5V63.5C301 69.851 296.695 75 291.385 75H248.22C248.034 74.1411 247.615 73.3803 247.029 72.8371C246.443 72.2938 245.722 71.9991 244.981 71.9991C244.239 71.9991 243.518 72.2938 242.932 72.8371C242.346 73.3803 241.927 74.1411 241.741 75H9.61528C4.30514 75 0 69.851 0 63.5V11.5C0 5.149 4.30514 0 9.61528 0H241.741C242.113 1.725 243.422 3 244.981 3Z" fill="white"/>
</svg>
