<svg width="15" height="15" viewBox="0 0 15 15" fill="none" xmlns="http://www.w3.org/2000/svg">
<path d="M7.1915 7.77778C8.11976 7.77778 9.00999 7.42659 9.66637 6.80147C10.3227 6.17635 10.6915 5.3285 10.6915 4.44444C10.6915 3.56039 10.3227 2.71254 9.66637 2.08742C9.00999 1.4623 8.11976 1.11111 7.1915 1.11111C6.26324 1.11111 5.373 1.4623 4.71662 2.08742C4.06025 2.71254 3.6915 3.56039 3.6915 4.44444C3.6915 5.3285 4.06025 6.17635 4.71662 6.80147C5.373 7.42659 6.26324 7.77778 7.1915 7.77778ZM7.1915 8.88889C5.95382 8.88889 4.76684 8.42064 3.89167 7.58714C3.0165 6.75365 2.52483 5.62318 2.52483 4.44444C2.52483 3.2657 3.0165 2.13524 3.89167 1.30175C4.76684 0.468253 5.95382 0 7.1915 0C8.42917 0 9.61616 0.468253 10.4913 1.30175C11.3665 2.13524 11.8582 3.2657 11.8582 4.44444C11.8582 5.62318 11.3665 6.75365 10.4913 7.58714C9.61616 8.42064 8.42917 8.88889 7.1915 8.88889ZM13.0248 14.4444V12.7778C13.0248 12.3358 12.8405 11.9118 12.5123 11.5993C12.1841 11.2867 11.739 11.1111 11.2748 11.1111H3.10816C2.64404 11.1111 2.19892 11.2867 1.87073 11.5993C1.54254 11.9118 1.35816 12.3358 1.35816 12.7778V14.4444C1.35816 14.5918 1.29671 14.7331 1.18731 14.8373C1.07791 14.9415 0.929541 15 0.774831 15C0.620122 15 0.471749 14.9415 0.362352 14.8373C0.252956 14.7331 0.191498 14.5918 0.191498 14.4444V12.7778C0.191498 12.0411 0.498789 11.3345 1.04577 10.8136C1.59275 10.2927 2.33462 10 3.10816 10H11.2748C12.0484 10 12.7902 10.2927 13.3372 10.8136C13.8842 11.3345 14.1915 12.0411 14.1915 12.7778V14.4444C14.1915 14.5918 14.13 14.7331 14.0206 14.8373C13.9112 14.9415 13.7629 15 13.6082 15C13.4535 15 13.3051 14.9415 13.1957 14.8373C13.0863 14.7331 13.0248 14.5918 13.0248 14.4444Z" fill="black"/>
</svg>
