<svg width="53" height="42" viewBox="0 0 53 42" fill="none" xmlns="http://www.w3.org/2000/svg">
<g filter="url(#filter0_d_4_1764)">
<path fill-rule="evenodd" clip-rule="evenodd" d="M4 4.90549C4 2.62798 5.84682 0.781738 8.125 0.781738H44.875C47.1532 0.781738 49 2.62798 49 4.90549V12.7744C47.0278 13.0429 45.5019 14.8722 45.5019 17.0891C45.5019 19.306 47.0278 21.1354 49 21.4038V29.2728C49 31.5503 47.1532 33.3965 44.875 33.3965H8.125C5.84682 33.3965 4 31.5503 4 29.2728V21.4042C5.97316 21.1366 7.5 19.3067 7.5 17.0891C7.5 14.8716 5.97316 13.0416 4 12.7741V4.90549Z" fill="#FB5315" fill-opacity="0.1" shape-rendering="crispEdges"/>
</g>
<defs>
<filter id="filter0_d_4_1764" x="0" y="0.781738" width="53" height="40.6147" filterUnits="userSpaceOnUse" color-interpolation-filters="sRGB">
<feFlood flood-opacity="0" result="BackgroundImageFix"/>
<feColorMatrix in="SourceAlpha" type="matrix" values="0 0 0 0 0 0 0 0 0 0 0 0 0 0 0 0 0 0 127 0" result="hardAlpha"/>
<feOffset dy="4"/>
<feGaussianBlur stdDeviation="2"/>
<feComposite in2="hardAlpha" operator="out"/>
<feColorMatrix type="matrix" values="0 0 0 0 0 0 0 0 0 0 0 0 0 0 0 0 0 0 0.25 0"/>
<feBlend mode="normal" in2="BackgroundImageFix" result="effect1_dropShadow_4_1764"/>
<feBlend mode="normal" in="SourceGraphic" in2="effect1_dropShadow_4_1764" result="shape"/>
</filter>
</defs>
</svg>
