<svg width="18" height="17" viewBox="0 0 18 17" fill="none" xmlns="http://www.w3.org/2000/svg">
<path d="M16.4855 16.6925L10.2235 10.4305C9.7235 10.8565 9.1485 11.1862 8.4985 11.4195C7.8485 11.6528 7.19517 11.7695 6.5385 11.7695C4.93717 11.7695 3.58184 11.2152 2.4725 10.1065C1.36317 8.99783 0.808502 7.64283 0.808502 6.0415C0.808502 4.44016 1.3625 3.0845 2.4705 1.9745C3.5785 0.864497 4.93317 0.308831 6.5345 0.307498C8.13584 0.306164 9.49184 0.860831 10.6025 1.9715C11.7132 3.08216 12.2685 4.43783 12.2685 6.0385C12.2685 6.73316 12.1455 7.4055 11.8995 8.0555C11.6535 8.7055 11.3302 9.2615 10.9295 9.7235L17.1915 15.9845L16.4855 16.6925ZM6.5395 10.7685C7.86617 10.7685 8.98617 10.3118 9.8995 9.3985C10.8128 8.48516 11.2695 7.36483 11.2695 6.0375C11.2695 4.71016 10.8128 3.59016 9.8995 2.6775C8.98617 1.76483 7.86617 1.30816 6.5395 1.3075C5.21283 1.30683 4.0925 1.7635 3.1785 2.6775C2.2645 3.5915 1.80784 4.7115 1.8085 6.0375C1.80917 7.3635 2.26584 8.4835 3.1785 9.3975C4.09117 10.3115 5.21117 10.7682 6.5385 10.7675" fill="black"/>
</svg>
