<svg width="53" height="42" viewBox="0 0 53 42" fill="none" xmlns="http://www.w3.org/2000/svg">
<g filter="url(#filter0_d_0_486)">
<path fill-rule="evenodd" clip-rule="evenodd" d="M4 4.90561C4 2.62811 5.84682 0.78186 8.125 0.78186H44.875C47.1532 0.78186 49 2.62811 49 4.90561V12.7745C47.0278 13.043 45.5019 14.8724 45.5019 17.0893C45.5019 19.3062 47.0278 21.1355 49 21.404V29.2729C49 31.5504 47.1532 33.3967 44.875 33.3967H8.125C5.84682 33.3967 4 31.5504 4 29.2729V21.4043C5.97316 21.1368 7.5 19.3068 7.5 17.0893C7.5 14.8717 5.97316 13.0418 4 12.7742V4.90561Z" fill="#FB5315" fill-opacity="0.1" shape-rendering="crispEdges"/>
</g>
<defs>
<filter id="filter0_d_0_486" x="0" y="0.78186" width="53" height="40.6147" filterUnits="userSpaceOnUse" color-interpolation-filters="sRGB">
<feFlood flood-opacity="0" result="BackgroundImageFix"/>
<feColorMatrix in="SourceAlpha" type="matrix" values="0 0 0 0 0 0 0 0 0 0 0 0 0 0 0 0 0 0 127 0" result="hardAlpha"/>
<feOffset dy="4"/>
<feGaussianBlur stdDeviation="2"/>
<feComposite in2="hardAlpha" operator="out"/>
<feColorMatrix type="matrix" values="0 0 0 0 0 0 0 0 0 0 0 0 0 0 0 0 0 0 0.25 0"/>
<feBlend mode="normal" in2="BackgroundImageFix" result="effect1_dropShadow_0_486"/>
<feBlend mode="normal" in="SourceGraphic" in2="effect1_dropShadow_0_486" result="shape"/>
</filter>
</defs>
</svg>
