<svg width="53" height="41" viewBox="0 0 53 41" fill="none" xmlns="http://www.w3.org/2000/svg">
<g filter="url(#filter0_d_2_3736)">
<path fill-rule="evenodd" clip-rule="evenodd" d="M4 4.12375C4 1.84625 5.84682 0 8.125 0H44.875C47.1532 0 49 1.84625 49 4.12375V11.9927C47.0278 12.2611 45.5019 14.0905 45.5019 16.3074C45.5019 18.5243 47.0278 20.3537 49 20.6221V28.491C49 30.7686 47.1532 32.6148 44.875 32.6148H8.125C5.84682 32.6148 4 30.7686 4 28.491V20.6224C5.97316 20.3549 7.5 18.525 7.5 16.3074C7.5 14.0898 5.97316 12.2599 4 11.9923V4.12375Z" fill="#FB5315" fill-opacity="0.1" shape-rendering="crispEdges"/>
</g>
<defs>
<filter id="filter0_d_2_3736" x="0" y="0" width="53" height="40.6147" filterUnits="userSpaceOnUse" color-interpolation-filters="sRGB">
<feFlood flood-opacity="0" result="BackgroundImageFix"/>
<feColorMatrix in="SourceAlpha" type="matrix" values="0 0 0 0 0 0 0 0 0 0 0 0 0 0 0 0 0 0 127 0" result="hardAlpha"/>
<feOffset dy="4"/>
<feGaussianBlur stdDeviation="2"/>
<feComposite in2="hardAlpha" operator="out"/>
<feColorMatrix type="matrix" values="0 0 0 0 0 0 0 0 0 0 0 0 0 0 0 0 0 0 0.25 0"/>
<feBlend mode="normal" in2="BackgroundImageFix" result="effect1_dropShadow_2_3736"/>
<feBlend mode="normal" in="SourceGraphic" in2="effect1_dropShadow_2_3736" result="shape"/>
</filter>
</defs>
</svg>
