<svg width="18" height="18" viewBox="0 0 18 18" fill="none" xmlns="http://www.w3.org/2000/svg">
<path d="M16.4856 17.1926L10.2236 10.9306C9.72359 11.3566 9.14859 11.6863 8.49859 11.9196C7.84859 12.153 7.19526 12.2696 6.53859 12.2696C4.93726 12.2696 3.58193 11.7153 2.47259 10.6066C1.36326 9.49795 0.808594 8.14295 0.808594 6.54162C0.808594 4.94029 1.36259 3.58462 2.47059 2.47462C3.57859 1.36462 4.93326 0.808953 6.53459 0.80762C8.13593 0.806286 9.49193 1.36095 10.6026 2.47162C11.7133 3.58229 12.2686 4.93795 12.2686 6.53862C12.2686 7.23329 12.1456 7.90562 11.8996 8.55562C11.6536 9.20562 11.3303 9.76162 10.9296 10.2236L17.1916 16.4846L16.4856 17.1926ZM6.53959 11.2686C7.86626 11.2686 8.98626 10.812 9.89959 9.89862C10.8129 8.98529 11.2696 7.86495 11.2696 6.53762C11.2696 5.21029 10.8129 4.09029 9.89959 3.17762C8.98626 2.26495 7.86626 1.80829 6.53959 1.80762C5.21293 1.80695 4.09259 2.26362 3.17859 3.17762C2.26459 4.09162 1.80793 5.21162 1.80859 6.53762C1.80926 7.86362 2.26593 8.98362 3.17859 9.89762C4.09126 10.8116 5.21126 11.2683 6.53859 11.2676" fill="black"/>
</svg>
