<svg width="18" height="18" viewBox="0 0 18 18" fill="none" xmlns="http://www.w3.org/2000/svg">
<path d="M16.4855 17.1925L10.2235 10.9305C9.72347 11.3565 9.14847 11.6862 8.49847 11.9195C7.84847 12.1528 7.19514 12.2695 6.53847 12.2695C4.93714 12.2695 3.5818 11.7152 2.47247 10.6065C1.36314 9.49783 0.808472 8.14283 0.808472 6.5415C0.808472 4.94016 1.36247 3.5845 2.47047 2.4745C3.57847 1.3645 4.93314 0.808831 6.53447 0.807498C8.13581 0.806164 9.49181 1.36083 10.6025 2.4715C11.7131 3.58216 12.2685 4.93783 12.2685 6.5385C12.2685 7.23316 12.1455 7.9055 11.8995 8.5555C11.6535 9.2055 11.3301 9.7615 10.9295 10.2235L17.1915 16.4845L16.4855 17.1925ZM6.53947 11.2685C7.86614 11.2685 8.98614 10.8118 9.89947 9.8985C10.8128 8.98516 11.2695 7.86483 11.2695 6.5375C11.2695 5.21016 10.8128 4.09016 9.89947 3.1775C8.98614 2.26483 7.86614 1.80816 6.53947 1.8075C5.2128 1.80683 4.09247 2.2635 3.17847 3.1775C2.26447 4.0915 1.80781 5.2115 1.80847 6.5375C1.80914 7.8635 2.2658 8.9835 3.17847 9.8975C4.09114 10.8115 5.21114 11.2682 6.53847 11.2675" fill="black"/>
</svg>
