<svg width="9" height="76" viewBox="0 0 9 76" fill="none" xmlns="http://www.w3.org/2000/svg">
<path fill-rule="evenodd" clip-rule="evenodd" d="M249.052 1C248.793 1.87749 248.312 2.63721 247.676 3.17455C247.04 3.7119 246.281 4.00043 245.502 4.00043C244.724 4.00043 243.964 3.7119 243.328 3.17455C242.693 2.63721 242.212 1.87749 241.952 1H10.0388C4.95665 1 0.836565 5.925 0.836565 12V64C0.836565 70.075 4.95665 75 10.0388 75H241.951C242.211 74.1222 242.692 73.3621 243.327 72.8245C243.963 72.2868 244.723 71.9982 245.502 71.9982C246.281 71.9982 247.04 72.2868 247.676 72.8245C248.312 73.3621 248.793 74.1222 249.052 75H291.961C297.043 75 301.163 70.075 301.163 64V12C301.163 5.925 297.043 1 291.961 1H249.052ZM248.4 0C248.3 0.833569 247.952 1.59606 247.42 2.1476C246.887 2.69915 246.207 3.00277 245.502 3.00277C244.798 3.00277 244.117 2.69915 243.584 2.1476C243.052 1.59606 242.704 0.833569 242.604 0L10.0388 0C4.49486 0 0 5.373 0 12V64C0 70.627 4.49486 76 10.0388 76H242.604C242.703 75.1657 243.051 74.4023 243.584 73.8501C244.116 73.2978 244.798 72.9937 245.503 72.9937C246.208 72.9937 246.889 73.2978 247.421 73.8501C247.954 74.4023 248.302 75.1657 248.401 76H291.961C297.505 76 302 70.627 302 64V12C302 5.373 297.505 0 291.961 0H248.401H248.4Z" fill="#E9E9EC"/>
</svg>
