<svg width="15" height="19" viewBox="0 0 15 19" fill="none" xmlns="http://www.w3.org/2000/svg">
<path d="M1.8075 18.5C1.34683 18.5 0.962498 18.346 0.654498 18.038C0.346498 17.73 0.192164 17.3457 0.191498 16.885V6.115C0.191498 5.655 0.345831 5.271 0.654498 4.963C0.963164 4.655 1.3475 4.50067 1.8075 4.5H3.6915V4C3.6915 3.028 4.03183 2.20167 4.7125 1.521C5.39316 0.840333 6.2195 0.5 7.1915 0.5C8.1635 0.5 8.98983 0.840333 9.6705 1.521C10.3512 2.20167 10.6915 3.028 10.6915 4V4.5H12.5765C13.0365 4.5 13.4205 4.65433 13.7285 4.963C14.0365 5.27167 14.1908 5.656 14.1915 6.116V16.885C14.1915 17.345 14.0372 17.7293 13.7285 18.038C13.4198 18.3467 13.0358 18.5007 12.5765 18.5H1.8075ZM1.8075 17.5H12.5765C12.7298 17.5 12.8708 17.436 12.9995 17.308C13.1282 17.18 13.1922 17.0387 13.1915 16.884V6.116C13.1915 5.962 13.1275 5.82067 12.9995 5.692C12.8715 5.56333 12.7302 5.49933 12.5755 5.5H10.6915V8C10.6915 8.14267 10.6438 8.26167 10.5485 8.357C10.4532 8.45233 10.3342 8.5 10.1915 8.5C10.0488 8.5 9.92983 8.45233 9.8345 8.357C9.73916 8.26167 9.6915 8.14267 9.6915 8V5.5H4.6915V8C4.6915 8.14267 4.64383 8.26167 4.5485 8.357C4.45317 8.45233 4.33416 8.5 4.1915 8.5C4.04883 8.5 3.92983 8.45233 3.8345 8.357C3.73916 8.26167 3.6915 8.14267 3.6915 8V5.5H1.8075C1.6535 5.5 1.51216 5.564 1.3835 5.692C1.25483 5.82 1.19083 5.96133 1.1915 6.116V16.885C1.1915 17.0383 1.2555 17.1793 1.3835 17.308C1.5115 17.4367 1.6525 17.5007 1.8065 17.5M4.6915 4.5H9.6915V4C9.6915 3.296 9.45083 2.70333 8.9695 2.222C8.48816 1.74067 7.8955 1.5 7.1915 1.5C6.4875 1.5 5.89483 1.74067 5.4135 2.222C4.93216 2.70333 4.6915 3.296 4.6915 4V4.5Z" fill="black"/>
</svg>
